<svg xmlns="http://www.w3.org/2000/svg" xmlns:xlink="http://www.w3.org/1999/xlink" width="66.484" height="70.196" viewBox="0 0 66.484 70.196">
  <defs>
    <clipPath id="clip-path">
      <rect id="Rectangle_39" data-name="Rectangle 39" width="66.484" height="70.196" fill="#0d064c"/>
    </clipPath>
  </defs>
  <g id="announcement_icon" data-name="announcement icon" clip-path="url(#clip-path)">
    <path id="Path_34" data-name="Path 34" d="M13.253,70.2A1.648,1.648,0,0,1,11.6,68.547V58.486h-5.7A5.915,5.915,0,0,1,0,52.578V5.908A5.915,5.915,0,0,1,5.908,0H60.576a5.915,5.915,0,0,1,5.908,5.908v46.67a5.914,5.914,0,0,1-5.908,5.908h-33.6L14.352,69.776a1.65,1.65,0,0,1-1.1.42M5.908,3.3A2.614,2.614,0,0,0,3.3,5.908v46.67a2.614,2.614,0,0,0,2.611,2.611h7.345A1.648,1.648,0,0,1,14.9,56.837v8.024l10.341-9.252a1.649,1.649,0,0,1,1.1-.42H60.576a2.614,2.614,0,0,0,2.611-2.611V5.908A2.614,2.614,0,0,0,60.576,3.3Z" transform="translate(0 0)" fill="#0d064c"/>
    <path id="Path_35" data-name="Path 35" d="M47.8,39.935c-2.877,0-4.892-2.157-4.916-5.251l-1.048-17.2a5.964,5.964,0,0,1,11.927,0l0,.1-1.045,17.1c-.023,3.094-2.038,5.251-4.915,5.251m-2.666-22.5L46.184,34.63c0,.749.21,2.008,1.619,2.008s1.618-1.259,1.618-2.008l0-.1,1.044-17.092a2.667,2.667,0,0,0-5.332,0" transform="translate(-14.252 -3.923)" fill="#0d064c"/>
    <path id="Path_36" data-name="Path 36" d="M47.747,70.074a5.991,5.991,0,1,1,5.991-5.991,6,6,0,0,1-5.991,5.991m0-8.684a2.694,2.694,0,1,0,2.694,2.694,2.7,2.7,0,0,0-2.694-2.694" transform="translate(-14.224 -19.789)" fill="#0d064c"/>
  </g>
</svg>
