<svg xmlns="http://www.w3.org/2000/svg" width="233.52" height="34.957" viewBox="0 0 233.52 34.957">
  <g id="BP_Logo_BossPac_Logo_-_Pantone" data-name="BP Logo_BossPac Logo - Pantone" transform="translate(-354.8 -379.3)">
    <g id="Group_10" data-name="Group 10" transform="translate(354.8 379.3)">
      <g id="Group_8" data-name="Group 8" transform="translate(0 0)">
        <g id="Group_7" data-name="Group 7">
          <g id="Group_2" data-name="Group 2" transform="translate(71.714 0.015)">
            <path id="Path_1" data-name="Path 1" d="M839.246,379.4a10.422,10.422,0,0,0,0,20.844h9a2.984,2.984,0,0,1,2.208.938,3.051,3.051,0,0,1,.938,2.239,3.085,3.085,0,0,1-.938,2.254,2.97,2.97,0,0,1-2.208.923H830.73v7.261h17.516a10.422,10.422,0,0,0,0-20.844h-9a2.97,2.97,0,0,1-2.208-.923,3.109,3.109,0,0,1-.938-2.254,3.051,3.051,0,0,1,.938-2.239,2.929,2.929,0,0,1,2.208-.938h17.516V379.4Z" transform="translate(-828.9 -379.4)"/>
          </g>
          <g id="Group_3" data-name="Group 3" transform="translate(105.204 0.015)">
            <path id="Path_2" data-name="Path 2" d="M1060.646,379.4a10.422,10.422,0,0,0,0,20.844h9a2.984,2.984,0,0,1,2.208.938,3.051,3.051,0,0,1,.938,2.239,3.085,3.085,0,0,1-.938,2.254,2.97,2.97,0,0,1-2.208.923H1052.13v7.261h17.516a10.422,10.422,0,0,0,0-20.844h-9a2.97,2.97,0,0,1-2.208-.923,3.109,3.109,0,0,1-.938-2.254,3.051,3.051,0,0,1,.938-2.239,2.929,2.929,0,0,1,2.208-.938h17.516V379.4Z" transform="translate(-1050.3 -379.4)"/>
          </g>
          <g id="Group_4" data-name="Group 4" transform="translate(140.509)">
            <path id="Path_3" data-name="Path 3" d="M1309.672,383.036a12.113,12.113,0,0,0-8.909-3.736H1287.3a3.42,3.42,0,0,0-2.556,1.089,3.516,3.516,0,0,0-1.044,2.556v30.843h7.185v-9.076h9.877a12.079,12.079,0,0,0,8.909-3.736,12.745,12.745,0,0,0,0-17.94Zm-5.1,12.827a5.151,5.151,0,0,1-3.812,1.588h-9.877V386.561h9.877a5.122,5.122,0,0,1,3.812,1.619,5.4,5.4,0,0,1,0,7.684Z" transform="translate(-1283.7 -379.3)"/>
          </g>
          <g id="Group_5" data-name="Group 5" transform="translate(204.372 0.015)">
            <path id="Path_4" data-name="Path 4" d="M1729.936,403.693a9.824,9.824,0,0,1-13.977,0,10.025,10.025,0,0,1,0-14.113,9.824,9.824,0,0,1,13.977,0,.015.015,0,0,1,.015.015l5.083-5.128a16.911,16.911,0,0,0-24.142,0,17.329,17.329,0,0,0,.015,24.353,16.982,16.982,0,0,0,24.142,0h0Z" transform="translate(-1705.9 -379.4)"/>
          </g>
          <g id="Group_6" data-name="Group 6" transform="translate(0 0.03)">
            <path id="Path_5" data-name="Path 5" d="M382.935,398.09a10.019,10.019,0,0,0-3.948-3.751,10.346,10.346,0,0,0,.983-4.417,10.073,10.073,0,0,0-3.04-7.367,9.918,9.918,0,0,0-7.306-3.056H358.4a3.42,3.42,0,0,0-2.556,1.089,3.517,3.517,0,0,0-1.044,2.556v30.843h19.331a10.407,10.407,0,0,0,10.346-10.422A10.36,10.36,0,0,0,382.935,398.09Zm-20.95-11.36h7.654a2.984,2.984,0,0,1,2.208.938,3.051,3.051,0,0,1,.938,2.239,3.084,3.084,0,0,1-.938,2.254,2.97,2.97,0,0,1-2.208.923h-7.654Zm14.355,19.044a2.97,2.97,0,0,1-2.208.923H361.985v-6.353h12.146a2.984,2.984,0,0,1,2.208.938,3.051,3.051,0,0,1,.938,2.239A3.085,3.085,0,0,1,376.34,405.774Z" transform="translate(-354.8 -379.5)"/>
          </g>
        </g>
      </g>
      <g id="Group_9" data-name="Group 9" transform="translate(165.906 0.212)">
        <path id="Path_6" data-name="Path 6" d="M1459.662,415.112l3.63-7.064h15.6l3.328,6.731h7.956l-15.882-32.1a3.658,3.658,0,0,0-1.3-1.452,3.55,3.55,0,0,0-1.875-.529,3.421,3.421,0,0,0-1.876.529,3.544,3.544,0,0,0-1.3,1.452L1451.6,415.112ZM1471.1,392.3l4.235,8.561h-8.486Z" transform="translate(-1451.6 -380.7)"/>
      </g>
    </g>
    <g id="Group_12" data-name="Group 12" transform="translate(388.199 379.421)">
      <g id="Group_11" data-name="Group 11" transform="translate(0 0)">
        <path id="Path_7" data-name="Path 7" d="M602.491,391.036l8.561-4.992,8.425,4.9,5.566-3.661a17.191,17.191,0,0,0-28.044.121Z" transform="translate(-593.763 -380.1)"/>
        <path id="Path_8" data-name="Path 8" d="M707.346,445.915V456.08l-8.546,4.977.076,6.656A17.488,17.488,0,0,0,712.822,442.3Z" transform="translate(-680.164 -432.891)"/>
        <path id="Path_9" data-name="Path 9" d="M591.6,461.851l-8.592-5.007v-9.983l-5.536-3.661a17.471,17.471,0,0,0,14.2,25.291Z" transform="translate(-575.6 -433.655)"/>
      </g>
    </g>
    <path id="Path_10" data-name="Path 10" d="M649.261,439.4,642,443.635v8.471l7.261,4.235,7.261-4.235v-8.471Z" transform="translate(-243.757 -51.009)" fill="#ffc62b"/>
  </g>
</svg>
