<?xml version="1.0" encoding="UTF-8"?> <svg xmlns="http://www.w3.org/2000/svg" id="eea79acc-5bc0-4d43-a11c-2e06fa2c79e7" data-name="Layer 1" viewBox="0 0 1437.5 329.3"><defs><style>.bbfcd078-bb52-4ca5-a22c-94200f9d352e{fill:#fff;}.b28293c7-c143-437d-b6bd-b5ca4f80dba6{fill:#007571;}.e17ef853-dd1e-4545-b272-f42bf5a4e1c9{fill:#a5a5a5;}.aed50a78-d7c6-4536-baba-21392abecb55{fill:#8fd5d3;}</style></defs><path class="bbfcd078-bb52-4ca5-a22c-94200f9d352e" d="M1249,1002.1l-3.3-.2c.1-7.5-1.4-16.6-4.5-27.2l2.6-.7c1.3,4.1,2.3,7.1,3,8.9a19.2,19.2,0,0,0,2.9,4.8,15.6,15.6,0,0,0,4.8,3.7,83.3,83.3,0,0,0,12.2,5,51.1,51.1,0,0,0,14.9,2.2,30.7,30.7,0,0,0,13.8-3.5c4.7-2.2,7-7.3,7-15a23.6,23.6,0,0,0-2-10.1,18.9,18.9,0,0,0-5.4-6.9,37.4,37.4,0,0,0-7.6-4.6c-2.9-1.4-6.7-3-11.3-4.7a91.4,91.4,0,0,1-15.8-7.2,29.4,29.4,0,0,1-9.8-9,22.4,22.4,0,0,1-3.7-13.1,26.5,26.5,0,0,1,9-20.5c6-5.5,14.6-8.2,25.8-8.2a78.6,78.6,0,0,1,16.8,1.8l4.2.6a8.4,8.4,0,0,0,4.8-1.6l.7-.3,1.6.3c-.2,1.2-.3,2.5-.4,3.7s-.3,2.6-.4,4a27.5,27.5,0,0,0-.3,3.4,13,13,0,0,1-.2,1.7c.7,6.6,1,10.1,1,10.7l-2.5.2c-.4-5.5-2.2-9.9-5.4-13.1a25.3,25.3,0,0,0-10.8-6.5,44,44,0,0,0-11.6-1.7c-8.9,0-14.9,2.4-17.8,7.1s-4.3,9.1-4.3,13.3,1,8.1,3.2,11a23.1,23.1,0,0,0,8.1,6.8c3.2,1.7,7.8,3.6,13.6,5.9a141.8,141.8,0,0,1,15.9,7.2,34.5,34.5,0,0,1,10.8,9.5,27.1,27.1,0,0,1,.6,29.6c-2.7,4.2-6.8,7.5-12.2,10s-12,3.7-19.9,3.7a92.4,92.4,0,0,1-23.8-3.4l-2.7-.5C1249.2,999.2,1248.7,1000.2,1249,1002.1Z" transform="translate(-323.7 -682.5)"></path><path class="bbfcd078-bb52-4ca5-a22c-94200f9d352e" d="M1323.1,971.2a30.5,30.5,0,0,1,2.7-13,29.2,29.2,0,0,1,7.2-10.1,32.8,32.8,0,0,1,10.8-6.5,39.1,39.1,0,0,1,13.3-2.3,30.7,30.7,0,0,1,12.1,2.4,29.7,29.7,0,0,1,10.1,6.5,29.7,29.7,0,0,1,9.2,22,32.6,32.6,0,0,1-4,15.9,31.7,31.7,0,0,1-11.4,11.9,30.8,30.8,0,0,1-16.9,4.6,39.2,39.2,0,0,1-14.9-3.2,30.3,30.3,0,0,1-12.9-10.2C1324.9,984.5,1323.1,978.5,1323.1,971.2Zm10.7-4.5a40.6,40.6,0,0,0,3,15.1,32.1,32.1,0,0,0,8.4,12.3,17.6,17.6,0,0,0,11.9,4.8,18.6,18.6,0,0,0,10.3-3.1,21.4,21.4,0,0,0,7.4-9,29,29,0,0,0,2.8-13.1,35.5,35.5,0,0,0-3.2-14.5,31,31,0,0,0-8.9-11.5,20.1,20.1,0,0,0-12.5-4.4,17,17,0,0,0-9.9,3,20.6,20.6,0,0,0-6.9,8.4A29.2,29.2,0,0,0,1333.8,966.7Z" transform="translate(-323.7 -682.5)"></path><path class="bbfcd078-bb52-4ca5-a22c-94200f9d352e" d="M1400.6,945.3v-4.9h10.8c0-9.5.9-17,2.4-22.5a35.5,35.5,0,0,1,6.9-13.6,39.9,39.9,0,0,1,8.9-7.6,50,50,0,0,1,10.6-5.3,26.9,26.9,0,0,1,8.8-1.9,27.9,27.9,0,0,1,9.4,1.7c3.1,1.1,4.6,2.5,4.6,4s-.6,2.2-1.8,3.9-2.3,2.6-3.4,2.6l-6.5-2.3c-4.6-1.6-8.2-2.5-10.8-2.5a14.2,14.2,0,0,0-10.3,3.8q-3.9,3.8-6,13.2c-1.3,6.4-2.1,15.2-2.3,26.5H1444v5.2l-22.1.2-.4,23.2c0,9.3.1,16.2.3,20.6s.6,7,1.4,7.8a5.7,5.7,0,0,0,2.4.7l9.9.4v3.2l-16.3-.3H1400v-2.7a26.8,26.8,0,0,0,6.5-1.1,5.7,5.7,0,0,0,3.1-3,16.4,16.4,0,0,0,1.3-6.2q.3-4,.3-11.4l.2-27.2c0-2-.2-3.1-.7-3.4S1406.3,945.3,1400.6,945.3Z" transform="translate(-323.7 -682.5)"></path><path class="bbfcd078-bb52-4ca5-a22c-94200f9d352e" d="M1456.9,978.3l.4-31.7a73,73,0,0,0-8.7-.5,8.8,8.8,0,0,0,.2-2,61.4,61.4,0,0,0,11-8.2,104.7,104.7,0,0,0,9.5-11.1l-.9,14.7q7,.6,15.3.6h8.7v5a84.6,84.6,0,0,1-8.7.5h-3.2l-8.6-.4a6.3,6.3,0,0,0-2.3.3,1.5,1.5,0,0,0-1.1,1.1,13.6,13.6,0,0,0-.4,3.1c-.1,1.5-.2,3.1-.2,4.8l-.4,25.4c-.1,4.9.4,9,1.7,12.1s4.1,4.8,8.8,4.8a23.2,23.2,0,0,0,6.6-1.2,76.8,76.8,0,0,0,9.1-3.6,8.7,8.7,0,0,0,.2,1,1.7,1.7,0,0,0,.1.7c-1.9,2.1-5.4,4.2-10.5,6.2a37.4,37.4,0,0,1-13.7,3,12.5,12.5,0,0,1-9-3.6c-2.5-2.4-3.8-6.6-3.8-12.5Z" transform="translate(-323.7 -682.5)"></path><path class="bbfcd078-bb52-4ca5-a22c-94200f9d352e" d="M1524.4,1004.8h-2.7c-.9-7.3-4.5-21-10.9-41.1a98.1,98.1,0,0,0-4.5-11.7,13.1,13.1,0,0,0-3.5-5,17,17,0,0,0-5.3-2.8v-2a49.9,49.9,0,0,1,6.2-.3l13.4-.2,8.1-.6-.5,3.1c-2.8.3-4.6.7-5.6,1.3a2.7,2.7,0,0,0-1.5,2.7c0,2.9.9,7.5,2.9,13.9s4.3,13.5,7.1,21.4l1,2.3.8-2.3,4.1-7.9c1.9-3.7,3.8-7.7,5.7-11.8a76.5,76.5,0,0,0,4.1-10.6c-1.3-3.5-2.6-5.7-3.8-6.6s-3.3-1.6-6.3-2l.3-2.7,8.1.2,15.3-.7,5.2-.2-.2,2.6c-5.5.4-8.2,1.8-8.2,4.4,0,.9.8,4.4,2.6,10.7s4.6,15.6,8.5,27.9c2.6-4.9,5-9.6,7.2-14.2s4.3-9.1,6.1-13.6,2.7-7.9,2.7-9.9a6.1,6.1,0,0,0-.9-3.7,3.7,3.7,0,0,0-2-1.4,20.5,20.5,0,0,0-3.7-.5l.2-2.3c3.1.3,6.5.4,10.1.4s6.9-.1,11.1-.4a12.8,12.8,0,0,1-.1,2.2q-2.9.6-5.4,4.2c-1.7,2.5-5.1,8.6-10.2,18.5l-10.5,20.9a21.8,21.8,0,0,0-2.4,4.5c-1,2-2,4.6-3.2,7.5a60.7,60.7,0,0,0-2.1,5.8h-2.5a30.3,30.3,0,0,0-.9-4.3l-1.4-5-6.7-22.5c-.2-.5-.7-2.2-1.7-5.1s-1.8-5.6-2.6-8l-16.4,33.9C1526.5,1000.8,1524.8,1004.4,1524.4,1004.8Z" transform="translate(-323.7 -682.5)"></path><path class="bbfcd078-bb52-4ca5-a22c-94200f9d352e" d="M1611.5,953.6l-10,4.5a20.9,20.9,0,0,1-.7-3.8c0-2.8,1.7-5.3,5.1-7.7a45.9,45.9,0,0,1,11.5-5.8c4.2-1.4,7.2-2.2,8.9-2.2a10.9,10.9,0,0,1,5.4,2,26,26,0,0,1,5.2,3.9,14.8,14.8,0,0,1,2.7,3.2,17,17,0,0,1,1.6,5.1,40.2,40.2,0,0,1,.8,8.7c0,1-.2,4.6-.4,10.9l-.4,6.1c-.2,2.9-.3,5.3-.3,7a31.5,31.5,0,0,0,.9,7.2c.6,2.6,1.8,3.9,3.7,3.9s4.9-.8,8.4-2.4v3.4l-11.9,4.8-4.1,1.2c-1.2,0-2.5-.8-3.7-2.5a21.7,21.7,0,0,1-3-5.9c-10,5.6-17.7,8.4-23,8.4-3.3,0-5.8-.9-7.5-2.9s-2.5-4.8-2.5-8.7.4-6.4,1.3-8.2a9,9,0,0,1,4.4-4.2,50.7,50.7,0,0,1,12.9-4.6c4.5-1,9.3-1.9,14.3-2.6l.4-10v-2.7c0-4.6-1.3-8.3-4-11a12.4,12.4,0,0,0-9.2-4,11.2,11.2,0,0,0-5.1,1.4,4.4,4.4,0,0,0-2.5,4A11.3,11.3,0,0,0,1611.5,953.6Zm19.3,38.6c-.2-1.8,0-6.9.4-15.3-7.1-.5-12.8.4-17.1,2.6s-6.5,5-6.5,8.4a13.4,13.4,0,0,0,2,6.9,6,6,0,0,0,5.4,3.3C1617.6,998.1,1622.9,996.1,1630.8,992.2Z" transform="translate(-323.7 -682.5)"></path><path class="bbfcd078-bb52-4ca5-a22c-94200f9d352e" d="M1657.9,1001.9l.2-2.4a20.4,20.4,0,0,0,5.6-1.6c1-.5,1.9-1.8,2.7-3.8a37.6,37.6,0,0,0,1.5-9c.2-4.1.3-10.2.3-18.5,0-6.6-.3-11-1-13.1s-2.5-3.3-5.3-3.3a17.9,17.9,0,0,0-5.1.7l.3-2.7,21-12.2q.3,4.9.3,13.8l8.7-5,1.1-.7,2.1-1.2,3.9-2.3,4.3-2.8.7.4,1.1.8a11.6,11.6,0,0,1,3.9,2.6,6.9,6.9,0,0,1-1.3,9.4,11.9,11.9,0,0,1-6.2,2.5,6.7,6.7,0,0,0-1.3-4.3,5,5,0,0,0-3.7-1.4,14.1,14.1,0,0,0-5.8,1.7,26.9,26.9,0,0,0-5,3.3,9.1,9.1,0,0,0-2.4,3,28.8,28.8,0,0,0-.4,5.8c-.4,9.2-.5,14.1-.5,14.6,0,10.6.5,17.2,1.6,19.7a3.5,3.5,0,0,0,1.6,1.6,11.4,11.4,0,0,0,3.1.3l2.1-.2,9.7-.2-.2,3.4h-5.1l-6.3.2Z" transform="translate(-323.7 -682.5)"></path><path class="bbfcd078-bb52-4ca5-a22c-94200f9d352e" d="M1761.1,959.4l-40.6,8.8A67.4,67.4,0,0,0,1722,980a24.4,24.4,0,0,0,4.3,8.5c4.2,5.5,9.3,8.3,15.2,8.3a25.8,25.8,0,0,0,7.8-1.4,34.9,34.9,0,0,0,9.1-5l1.5,2c-9.4,6.8-17.8,10.2-25.1,10.2s-13.8-3-18.1-8.8a33,33,0,0,1-6.5-20.3c0-7.7,1.6-14.2,4.9-19.3s7-8.9,11.2-11.2,7.2-3.5,9.3-3.5a29.7,29.7,0,0,1,7.6,1.1,20.2,20.2,0,0,1,7.7,4.6,25.3,25.3,0,0,1,6.3,9.1,4.6,4.6,0,0,0,1.4,1.6,4.5,4.5,0,0,0,2.4.4Zm-40.4,5.6,10.6-2.3a32.7,32.7,0,0,1,4.9-1.3l5.7-1.2c2.9-.7,4.7-1.1,5.4-1.4s1.2-.7,1.2-1.3-.7-2.4-2-4.5a20.1,20.1,0,0,0-5.6-5.7,13.6,13.6,0,0,0-8.5-2.6c-4,0-6.9,2.1-8.6,6.4A44.8,44.8,0,0,0,1720.7,965Z" transform="translate(-323.7 -682.5)"></path><path class="bbfcd078-bb52-4ca5-a22c-94200f9d352e" d="M1077,694c10.9,0,19.3,8.2,19.3,18.5s-8.2,18.6-19.3,18.6-19.3-7.8-19.3-18.6S1065.9,694,1077,694Z" transform="translate(-323.7 -682.5)"></path><rect class="bbfcd078-bb52-4ca5-a22c-94200f9d352e" x="736.4" y="67" width="33.6" height="131.99"></rect><path class="bbfcd078-bb52-4ca5-a22c-94200f9d352e" d="M1155,881.5h-32.1V695.9H1155Z" transform="translate(-323.7 -682.5)"></path><path class="bbfcd078-bb52-4ca5-a22c-94200f9d352e" d="M1272.8,787s-10.1-8.9-23.8-8.4c-21.8.8-33.4,13.6-33.3,35.9v67h-32.1l-.2-131.4H1214l1.8,15.4c9.7-14.8,22.3-19.5,39.1-19.5s32.6,13.2,32.6,13.2Z" transform="translate(-323.7 -682.5)"></path><path class="bbfcd078-bb52-4ca5-a22c-94200f9d352e" d="M1362.2,747.1c39.1,0,67.8,29.7,67.8,68.9s-28.7,69-67.8,69-68.6-30.2-67.9-69S1324,746.6,1362.2,747.1Zm0,29.2c-21.9,0-36.8,17.3-36.8,39.7,0,11.5,3.3,20.7,10.2,28.3s15.6,11.2,26.6,11.2,19.6-3.7,26.5-11.2,10.5-16.8,10.5-28.3C1399.2,793.6,1384.2,776.3,1362.2,776.3Z" transform="translate(-323.7 -682.5)"></path><path class="bbfcd078-bb52-4ca5-a22c-94200f9d352e" d="M1753.9,695.9V881.5l-32.1-.2V862.5c-11.4,14.8-27.5,22.5-46.4,22.5-37.7,0-65.9-30.7-65.9-70s28-68.7,65.5-68c18.9,0,35.4,5.5,45.8,20.1V695.9Zm-73,78.6c-11.3,0-20.6,3.9-27.9,11.6s-10.5,17.3-10.5,28.9c0,23,15.6,40.5,38.4,40.5s38.5-16,38.5-40.5S1703.3,774.5,1680.9,774.5Z" transform="translate(-323.7 -682.5)"></path><path class="bbfcd078-bb52-4ca5-a22c-94200f9d352e" d="M1032.7,881.5v-132h-31.4v18.4c-9.2-14.4-25.5-21.8-44.7-21.8-38.1-.7-67.5,30.9-67,69.4s28.7,69.5,67,69.5c19.2,0,35.5-7.6,44.7-22.1v18.6Zm-70.5-25.7c-23.2,0-39.1-17.5-39.1-40.3,0-11.5,3.6-21.1,10.7-28.7s16.9-11.5,28.4-11.5c22.8,0,39.1,15.9,39.1,40.2S985,855.8,962.2,855.8Z" transform="translate(-323.7 -682.5)"></path><path class="bbfcd078-bb52-4ca5-a22c-94200f9d352e" d="M1587.7,881.5v-132h-31.4v18.4c-9.2-14.4-25.5-21.8-44.7-21.8-38.1-.7-67.5,30.9-67,69.4s28.6,69.5,67,69.5c19.2,0,35.5-7.6,44.7-22.1v18.6Zm-70.5-25.7c-23.3,0-39.1-17.5-39.1-40.3,0-11.5,3.6-21.1,10.7-28.7s16.9-11.5,28.4-11.5c22.8,0,39.1,15.9,39.1,40.2S1540,855.8,1517.2,855.8Z" transform="translate(-323.7 -682.5)"></path><path class="bbfcd078-bb52-4ca5-a22c-94200f9d352e" d="M887.2,881.5l-58-64.9c25.8-6.6,46.1-27,46.1-59.5v-1.2A61.9,61.9,0,0,0,813.5,694H719.3V881.5h35V819h35.2l53.3,62.5ZM755,727h55.9A30.1,30.1,0,0,1,841,757.1v.6a30.1,30.1,0,0,1-30.1,30.1H755Z" transform="translate(-323.7 -682.5)"></path><path class="b28293c7-c143-437d-b6bd-b5ca4f80dba6" d="M691.5,682.5S547.5,684,340,781c0,0,107-19,180,3s84,57.6,82.5,97.5C602.5,881.5,682.5,759,691.5,682.5Z" transform="translate(-323.7 -682.5)"></path><path class="e17ef853-dd1e-4545-b272-f42bf5a4e1c9" d="M331,865.2,437,985.8s63.5-43.8,41.3-92.7C455,841.6,343.2,856.2,331,865.2Z" transform="translate(-323.7 -682.5)"></path><path class="aed50a78-d7c6-4536-baba-21392abecb55" d="M448,1011.8s69.5-36.3,112.5-98.8-9-104.7-59-111c-57.3-7.2-106.8,2.4-147.8,11-37.4,7.8-37.4,22.3-13.7,21.3s111.7-4.6,143,24.4S528.7,935.2,448,1011.8Z" transform="translate(-323.7 -682.5)"></path></svg> 