<svg id="heavy_Haul_icon" data-name="heavy Haul icon" xmlns="http://www.w3.org/2000/svg" xmlns:xlink="http://www.w3.org/1999/xlink" width="50.611" height="67.704" viewBox="0 0 50.611 67.704">
  <defs>
    <clipPath id="clip-path">
      <path id="Rectangle_24" data-name="Rectangle 24" d="M0,0H50.611l-.846,67.7H.294Z" fill="#fff"/>
    </clipPath>
  </defs>
  <g id="Group_12" data-name="Group 12" clip-path="url(#clip-path)">
    <path id="Path_29" data-name="Path 29" d="M34.628,4.288c-.21-.667-.369-1.173-.492-1.561s-.209-.657-.272-.848-.1-.3-.132-.381a1.439,1.439,0,0,0-.072-.161,2.013,2.013,0,0,0-.535-.659,2.4,2.4,0,0,0-.757-.4A4.644,4.644,0,0,0,31.4.089,11.224,11.224,0,0,0,30.239.038h-.012C29.988.028,29.143.021,28,.016S25.429.007,24.011,0l-3.9,0H16.237L12.349,0c-1.414,0-2.841.005-3.972.01S6.413.025,6.188.034A10.866,10.866,0,0,0,4.856.1a4.377,4.377,0,0,0-.984.225,2.244,2.244,0,0,0-.7.4,2.091,2.091,0,0,0-.474.6,1.358,1.358,0,0,0-.074.16c-.031.078-.073.2-.14.392s-.159.475-.289.876-.3.923-.522,1.609c-.127.392-.265.82-.4,1.249S.992,6.475.863,6.867.617,7.612.521,7.894s-.17.491-.211.591a3.848,3.848,0,0,0-.035,2.843,3.945,3.945,0,0,0,.464.868,2.606,2.606,0,0,0,.711.693,2.747,2.747,0,0,0,.809.351,4.27,4.27,0,0,0,.83.124c.272.016.534.014.775.012l.292,0,13.983-2.807,13.68,2.779.574.03h.276a7.165,7.165,0,0,0,.726-.031,3.76,3.76,0,0,0,.756-.15,2.6,2.6,0,0,0,1.373-1,3.984,3.984,0,0,0,.471-.866,3.89,3.89,0,0,0,.238-.935,3.846,3.846,0,0,0-.246-1.906c-.042-.1-.116-.319-.212-.607s-.213-.651-.341-1.05-.266-.836-.4-1.272-.275-.873-.4-1.273M4.007,10.75H3.832l-.245,0c-.086,0-.173,0-.254,0s-.156,0-.216-.009a.54.54,0,0,1-.131-.021,1.375,1.375,0,0,1-.159-.3,1.284,1.284,0,0,1-.074-.644,1.355,1.355,0,0,1,.088-.324c.047-.114.115-.3.2-.55s.193-.564.315-.932.262-.793.416-1.265.322-.99.5-1.548L4.5,4.47l.218-.67c.07-.214.136-.415.195-.594s.111-.336.153-.461c.049-.008.107-.016.178-.024s.153-.016.248-.022.2-.012.328-.016.262-.006.417-.006.678-.011,1.416-.015,1.7-.007,2.75-.01l3.306-.006,3.083,0-.015,5.514Zm29.306-.045a.558.558,0,0,1-.145.03c-.064.007-.14.012-.223.014s-.17,0-.256,0l-.245,0h-.177L19.5,8.154l.02-5.511,3.088,0,3.319.006c1.058,0,2.026.006,2.773.011s1.273.01,1.449.017c.146,0,.278,0,.4.006s.222.009.314.015.172.014.24.021.126.016.174.024c.04.122.089.274.144.447l.182.573.2.646.21.665c.179.568.346,1.1.5,1.577s.291.913.412,1.29.227.7.313.951.154.446.2.563a1.363,1.363,0,0,1,.086.323,1.327,1.327,0,0,1-.069.636,1.348,1.348,0,0,1-.147.288" transform="translate(7.097 10.621)" fill="#fff"/>
    <path id="Path_30" data-name="Path 30" d="M46.348,10.012l-.429-1.147a11.727,11.727,0,0,0-1.349-2.75,4.47,4.47,0,0,0-1.814-1.521,8.67,8.67,0,0,0-2.814-.649c-1.164-.111-2.584-.136-4.349-.136H30.4a5.009,5.009,0,0,0-.7-1.518,5.2,5.2,0,0,0-1.15-1.207,5.306,5.306,0,0,0-1.5-.8,5.406,5.406,0,0,0-5,.8A5.265,5.265,0,0,0,20.9,2.29a5.057,5.057,0,0,0-.714,1.518h-5.2c-1.761,0-3.178.025-4.34.136a8.686,8.686,0,0,0-2.813.649A4.521,4.521,0,0,0,6.01,6.115a11.868,11.868,0,0,0-1.371,2.75L4.16,10.113c-.406,1.057-.865,2.249-1.323,3.5s-.915,2.546-1.322,3.823S.755,19.959.5,21.109a14.615,14.615,0,0,0-.4,3.067L.217,49.907a2.631,2.631,0,0,0,.221,1.047,2.676,2.676,0,0,0,.265.469,2.8,2.8,0,0,0,.361.417,2.881,2.881,0,0,0,.856.563,2.924,2.924,0,0,0,.489.159,2.993,2.993,0,0,0,.516.073l5.355,1.095L1.98,65.864a1.212,1.212,0,0,0-.066.973,1.266,1.266,0,0,0,.255.425,1.335,1.335,0,0,0,.422.31,1.4,1.4,0,0,0,.958.086,1.38,1.38,0,0,0,.335-.138,1.314,1.314,0,0,0,.286-.222,1.266,1.266,0,0,0,.216-.3L7.047,61.88H42.19L44.812,67a1.254,1.254,0,0,0,.214.3,1.3,1.3,0,0,0,.284.222,1.367,1.367,0,0,0,.333.138,1.4,1.4,0,0,0,.958-.086,1.349,1.349,0,0,0,.424-.31,1.279,1.279,0,0,0,.259-.425,1.223,1.223,0,0,0,.073-.484,1.211,1.211,0,0,0-.132-.489l-2.943-5.756,0-.005,0-.005,0-.005,0-.005L41.1,53.89l6.153-1.256a3,3,0,0,0,.517-.073,2.945,2.945,0,0,0,.49-.159,2.913,2.913,0,0,0,.86-.563,2.838,2.838,0,0,0,.364-.417,2.7,2.7,0,0,0,.269-.469,2.644,2.644,0,0,0,.229-1.047l.322-25.731a14.708,14.708,0,0,0-.375-3.09c-.244-1.159-.59-2.42-.988-3.705s-.847-2.6-1.3-3.85-.9-2.455-1.3-3.519m-5.467,49.31H8.376L11,54.284,24.791,57.1l.07.012.07.009L25,57.13l.071,0,.071,0,.071-.005.07-.009.07-.012,13.029-2.659Zm6.41-9.415a.16.16,0,0,1,0,.031.147.147,0,0,1-.009.029.151.151,0,0,1-.015.027.171.171,0,0,1-.022.024.21.21,0,0,1-.086.047.441.441,0,0,1-.1.015l-.108,0a.63.63,0,0,0-.107.01L25.083,54.537,3.362,50.093a.629.629,0,0,0-.106-.01l-.108,0a.44.44,0,0,1-.1-.015.208.208,0,0,1-.085-.047.169.169,0,0,1-.021-.024.149.149,0,0,1-.015-.027.146.146,0,0,1-.009-.029.16.16,0,0,1,0-.031L2.825,24.176a12.816,12.816,0,0,1,.4-2.781c.25-1.074.6-2.265,1-3.481s.838-2.459,1.273-3.635.863-2.286,1.229-3.236L7.2,9.786a12.119,12.119,0,0,1,.8-1.841,2.328,2.328,0,0,1,1.092-1,6.3,6.3,0,0,1,2.089-.408c.942-.067,2.168-.078,3.8-.078h6.385a1.4,1.4,0,0,0,.533-.1,1.378,1.378,0,0,0,.436-.284,1.333,1.333,0,0,0,.294-.422,1.292,1.292,0,0,0,.109-.517,2.4,2.4,0,0,1,.2-.962,2.493,2.493,0,0,1,.55-.787,2.578,2.578,0,0,1,.813-.531,2.621,2.621,0,0,1,1.984,0,2.549,2.549,0,0,1,.808.531,2.465,2.465,0,0,1,.543.787,2.39,2.39,0,0,1,.2.962,1.285,1.285,0,0,0,.105.517,1.318,1.318,0,0,0,.291.422,1.364,1.364,0,0,0,.433.284,1.4,1.4,0,0,0,.532.1h6.372c1.634,0,2.863.012,3.807.078a6.3,6.3,0,0,1,2.092.408,2.3,2.3,0,0,1,1.086,1,11.97,11.97,0,0,1,.788,1.84l.433,1.154c.361.957.782,2.075,1.21,3.26s.862,2.436,1.251,3.662.73,2.426.972,3.509a12.912,12.912,0,0,1,.377,2.8Z" fill="#fff"/>
    <path id="Path_31" data-name="Path 31" d="M5.266,0A5.4,5.4,0,0,0,3.224.4,5.3,5.3,0,0,0,1.554,1.481a5.073,5.073,0,0,0-1.128,1.6A4.856,4.856,0,0,0,.418,7,5.023,5.023,0,0,0,1.537,8.6,5.248,5.248,0,0,0,3.2,9.676a5.435,5.435,0,0,0,4.068,0A5.3,5.3,0,0,0,8.933,8.6,5.075,5.075,0,0,0,10.064,7a4.855,4.855,0,0,0,.021-3.916,5.023,5.023,0,0,0-1.117-1.6A5.249,5.249,0,0,0,7.305.4,5.381,5.381,0,0,0,5.266,0M5.239,7.47a2.6,2.6,0,0,1-.981-.191,2.531,2.531,0,0,1-.8-.52,2.422,2.422,0,0,1-.539-.771A2.342,2.342,0,0,1,2.923,4.1a2.446,2.446,0,0,1,.544-.773,2.556,2.556,0,0,1,.805-.522,2.621,2.621,0,0,1,1.966,0,2.531,2.531,0,0,1,.8.522A2.422,2.422,0,0,1,7.58,4.1a2.342,2.342,0,0,1-.008,1.888,2.447,2.447,0,0,1-.545.771,2.556,2.556,0,0,1-.8.52,2.607,2.607,0,0,1-.983.191" transform="translate(18.61 27.211)" fill="#fff"/>
  </g>
</svg>
