<?xml version="1.0" encoding="UTF-8"?>
<svg id="Layer_1" data-name="Layer 1" xmlns="http://www.w3.org/2000/svg" version="1.1" viewBox="0 0 86 75.1">
  <defs>
    <style>
      .cls-1 {
        fill: #030303;
      }

      .cls-1, .cls-2 {
        stroke-width: 0px;
      }

      .cls-2 {
        fill: #0150b3;
      }
    </style>
  </defs>
  <path class="cls-2" d="M5.4,3.6h43.6v1.9c-.6,10.2-3.9,19.5-8.5,28.5-4.1,7.9-9.3,15-15.9,21-4.5,4.1-9.6,7.5-15.3,9.9-1.6.7-3.2,1.1-5,1.6,0-.7,0-1.1,0-1.6V5.2c0-.6-.4-1.7,1.2-1.6Z"/>
  <path class="cls-1" d="M53.3,71.3H10.5c15.6-1.7,30.1-6.8,42.9-15.8,12.9-9,22.8-20.6,28.6-35.5v51.4c-9.5,0-19,0-28.7,0Z"/>
</svg>