<?xml version="1.0" encoding="utf-8"?>
<!-- Generator: Adobe Illustrator 28.0.0, SVG Export Plug-In . SVG Version: 6.00 Build 0)  -->
<svg version="1.1" id="Layer_1" xmlns="http://www.w3.org/2000/svg" xmlns:xlink="http://www.w3.org/1999/xlink" x="0px" y="0px"
	 viewBox="0 0 500 166.4" style="enable-background:new 0 0 500 166.4;" xml:space="preserve">
<style type="text/css">
	.st0{fill:#FEFEFE;}
	.st1{fill:#0352B4;}
	.st2{fill:#0150B3;}
	.st3{fill:#020202;}
	.st4{fill:#030303;}
	.st5{fill:#040404;}
	.st6{fill:#0A0A0A;}
	.st7{fill:#111111;}
	.st8{fill:#0C0C0C;}
	.st9{fill:#0D0D0D;}
	.st10{fill:#090909;}
	.st11{fill:#101010;}
	.st12{fill:#131313;}
	.st13{fill:#0F0F0F;}
	.st14{fill:#0E0E0E;}
	.st15{fill:#161616;}
	.st16{fill:#181818;}
	.st17{fill:#FDFDFD;}
	.st18{fill:#FCFCFC;}
	.st19{fill:#FAFAFA;}
	.st20{fill:#F8F8F8;}
</style>
<path class="st0" d="M395,175.3c-131.7,0-263.1,0-394.6,0c0-58.4,0-116.8,0-175.3c166.6,0,333.3,0,500,0c0,58.4,0,116.9,0,175.3
	C465.3,175.3,430.2,175.3,395,175.3 M14.8,129.9c-3.5,0-7.1,0-10.6,0c0,2.3,0,4.5,0,6.6c163.7,0,327.2,0,490.7,0c0-2.2,0-4.4,0-6.6
	C334.9,129.9,175,129.9,14.8,129.9 M5.2,53.9c-1.4-0.1-0.9,1-0.9,1.6c0,19.9,0,39.8,0,59.7c0,0.5,0.1,1,0.1,1.6c1.8-0.6,3.5-1,5-1.6
	c5.7-2.4,10.7-5.8,15.3-9.9c6.6-6,11.8-13.1,15.9-21c4.6-9,7.9-18.3,8.5-28.5c0-0.6,0-1.2,0-1.9C34.4,53.9,20,53.9,5.2,53.9
	 M174.8,121.2c-0.1-1.1-0.2-2.2-0.2-3.3c-0.1-5.5-0.1-11.1-0.1-16.6c0-5.9,0.1-11.7-0.2-17.6c-0.2-4-1.8-7.8-5.1-10.5
	c-6.1-5.1-16.6-4.9-22.8,0.5c-1.7,1.5-3.1,3.3-4.7,5c0.1-2.6,0.2-5.1,0.3-7.5c-5.3,0-10.4,0-15.4,0c0.9,17.1,0.9,34.3,0,51.5
	c5.3,0,10.6,0,16,0c0-0.4,0-0.8,0-1.1c-0.3-9-0.6-17.9-0.8-26.9c-0.1-3.9,0.4-7.8,2.4-11.4c2.5-4.7,8.5-5.6,12.3-1.8
	c2.1,2.1,3,4.7,3,7.5c0.2,7,0.1,14.1,0,21.1c0,2.5-0.3,5-0.5,7.4c-0.1,1.7-0.3,3.5-0.5,5.1c2.8,0,5.4,0,8,0c2.7,0,5.3,0,8.1,0
	C174.8,122.3,174.8,121.9,174.8,121.2 M346.5,104.7c-0.3,2.6-0.9,5.2-0.7,7.7c0.2,3.2,1.5,6.3,4.1,8.5c5.2,4.4,14.9,4.7,20.4,0.6
	c1.7-1.3,3.1-2.9,4.7-4.3c1.7,4.5,4.9,7.1,9.8,7.2c3.6,0.1,6.9-1.2,10.2-2.7c0-0.9,0-1.8,0-2.8c-0.6,0-1.1,0-1.7,0
	c-2.7-0.2-4.2-1.7-4.4-4.4c-0.1-1.4-0.2-2.8-0.2-4.1c0.1-8.2,0.3-16.3,0.3-24.5c0-6.9-4.1-12.8-10.7-14.8
	c-10.5-3.3-19.9-0.8-28.4,5.7c-0.3,0.3-0.6,0.9-0.5,1.3c0.3,1.7,0.7,3.4,1,5c0.2,1,0.7,1,1.4,0.3c3.7-3.8,8.1-5.6,13.4-5.4
	c5.5,0.2,9.2,3.8,9.2,9.4c0,2.1-0.8,3.7-2.9,4.3c-4.2,1.3-8.4,2.4-12.6,3.7C353.8,97,348.7,98.7,346.5,104.7 M457.5,76.6
	c-1.4,2.2-3.1,4.3-4.3,6.6c-1.8,3.6-2.4,7.6-2.6,11.6c-0.3,6.1,0.4,12,3.2,17.4c2.6,4.9,6.6,8.5,12,10.2c8.5,2.7,16.9,2.9,25-1.3
	c1.4-0.7,2.6-1.6,3-3.3c0.3-1.1,0.9-2,1.2-3.1c0.1-0.5,0.1-1.3-0.3-1.6c-0.3-0.3-1.1-0.1-1.6,0.1c-2.2,1-4.2,2.5-6.5,3.1
	c-8.5,2.5-15.3,0.1-18.4-8.6c-0.2-0.6-0.5-1.3-0.6-1.9c-0.5-2.8-0.9-5.7-1.3-8.8c10.6,0,20.8,0,31,0c0-2.5,0.1-4.9,0-7.3
	c-0.5-7.6-3.5-13.9-10.3-17.7c-4.1-2.3-8.7-2.8-13.4-2.5C467.4,70,462,72,457.5,76.6 M252.5,97.1c3.9,0,7.8,0,12.1,0
	c-0.3-3.8-0.3-7.4-1-10.9c-1.5-7.8-5.8-13.6-13.7-15.6c-3.1-0.8-6.5-1-9.7-0.9c-8.7,0.4-15.4,4.4-19.4,12.1
	c-4.1,7.8-4.1,16.1-2.3,24.5c1.4,6.4,5.1,11.5,11,14.7c4,2.2,8.3,3,12.8,3.2c5.7,0.2,11.3-0.5,16.3-3.6c0.5-0.3,1.2-0.8,1.4-1.3
	c0.9-1.9,1.6-3.9,2.6-6.3c-1.1,0.1-2-0.2-2.5,0.2c-2.3,1.9-5.1,2.9-7.9,3.6c-4.3,0.9-8.5,0.9-12-1.9c-5.7-4.5-6.4-11-6.6-17.8
	C239.9,97.1,246,97.1,252.5,97.1 M318.7,83.1c-0.2,13.2-0.4,26.3-0.6,39.6c5.2,0,10.5,0,15.7,0c-0.3-15.2-0.5-30.3-0.8-45.5
	c3.7,0,6.9,0,10.1,0c0-1.9,0-3.8,0-5.7c-3.3,0-6.6,0-10.5,0c-1.3-3.4-2.8-6.9-3.9-10.6c-1.8-5.9,0.9-7.8,6.7-7.7
	c0.1,0,0.2,0,0.3,0.1c2.7,0.9,5.5,1.7,8.1,2.7c1.7,0.6,2.3,0.3,2.3-1.4c0-4.2,0-8.5,0-12.9c-7.9-2.2-16.8,1.5-21.2,9
	c-2.9,5-4.1,10.5-5.3,16c-0.4,1.7-0.7,3.3-1,4.8c-2.5,0-4.9,0-7.2,0c0,1.9,0,3.7,0,5.7c2.5,0,4.8,0,7.3,0
	C318.7,79.3,318.7,81,318.7,83.1 M211.4,71.5c-2.8,0-5.7,0-8.8,0c0.4-6,0.8-11.9,1.1-17.8c0.1-1.3-0.6-1.9-1.7-1.4
	c-4.7,2.2-9.3,4.4-13.9,6.6c0,4.3,0,8.6,0,12.8c-2.5,0-4.9,0-7.3,0c0,1.9,0,3.7,0,5.7c2.5,0,5,0,7.3,0c0,3.8,0.1,7.5,0,11.2
	c-0.1,4-0.4,8-0.4,11.9c0,4.2-0.1,8.3,0.4,12.5c0.7,6.2,3.9,9.8,9.3,10.9c5.2,1.1,10.1,0,14.9-1.9c0.3-0.1,0.6-0.6,0.6-1
	c0.1-1.2,0-2.5,0-3.5c-1.8,0.2-3.4,0.5-5,0.6c-2.8,0.1-4.4-1.1-4.9-3.9c-0.4-2-0.8-4.1-0.8-6.2c0-8.2,0-16.3,0.1-24.5
	c0-2.1,0.3-4.2,0.5-6.3c3.3,0,6.3,0,9.3,0c0-1.7,0-3.3,0-4.9C212.1,72,211.9,71.8,211.4,71.5 M53.5,121.6c9.5,0,19,0,28.6,0
	c0-17.3,0-34.3,0-51.4c-5.8,14.9-15.7,26.5-28.6,35.5c-12.9,9-27.3,14.2-42.9,15.8C24.7,121.6,39,121.6,53.5,121.6 M399.7,86.8
	c-2.8,8.3-2.2,16.4,1.2,24.3c2.5,5.7,7.2,9.3,12.9,11.2c7.9,2.6,15.8,3,23.6-0.6c1.9-0.9,3.4-2,3.8-4.2c0.2-0.9,0.5-1.7,1-2.5
	c0.6-1.2,0.7-2.2-0.3-2.5c-2.3,1.3-4.2,2.7-6.2,3.6c-7.7,3.4-16.7-0.5-19.4-8.4c-2.8-8.2-2.2-16.3,0.5-24.4c1-3.1,2.8-5.7,6-7.1
	c5.6-2.5,11.5-0.4,13.9,5.3c0.6,1.4,1,2.9,1.5,4.3c0.9,0,1.8,0,2.3,0c1.4-3.8,2.8-7.5,4.2-11.3c-0.4-0.2-0.8-0.5-1.3-0.8
	c-5.9-3.2-12.1-4.7-18.8-4.2C413,70.6,404.2,75.3,399.7,86.8 M296.8,84.7c2.6-0.4,5.2-0.5,7.6,0.8c0.9,0.5,1.7-0.1,1.7-1.1
	c0-4.8,0.1-9.6,0.1-14.5c-4-0.5-7.8,0.6-10.9,3.6c-2.9,2.8-5,6.3-6.6,10.5c0-4.7,0-8.8,0-12.8c-4.9,0-9.7,0-14.7,0
	c1.1,17.1,1.1,34.3,0,51.5c5.4,0,10.7,0,16,0c0-0.2,0.1-0.4,0.1-0.6c-0.3-9.1-0.6-18.1-0.8-27.2C289.2,90.2,292,86.4,296.8,84.7
	 M98,122c0.3,0.3,0.5,0.7,0.8,0.7c5,0,10.1,0,15.2,0c-1.2-17.3-1.1-34.5,0-51.6c-5.4,0-10.7,0-15.8,0c0.2,6.8,0.5,13.7,0.5,20.6
	C98.6,101.8,98.2,111.7,98,122 M104.4,59.1c4,0.6,7.2-0.8,9-3.9c2.4-4.1,1.2-9.1-2.8-11.7c-3.8-2.5-8.7-1.7-11.5,2.1
	C94.9,51.4,99.2,58.7,104.4,59.1 M209.1,17.9c-0.6,1.6-1.1,3.3-1.8,5.4c-1.9-6.5-3.7-12.5-5.5-18.6c-1,0-2.1,0-3.3,0
	c2.3,7.4,4.6,14.6,6.9,21.8c2.3,0.2,2.3,0.2,3-1.8c1.3-3.7,2.6-7.4,3.9-11.1c0.5-1.5,1.1-2.9,1.8-4.7c2,6.2,3.8,12,5.6,17.7
	c1.8,0.5,2.8,0,3.2-1.8c0.5-2,1.2-4,1.9-6c1.6-4.6,3.2-9.3,4.8-14c-0.8,0-1.6,0-2.4,0c-1.8,6.1-3.6,12.1-5.4,18.1
	c-0.1,0-0.3,0-0.4,0c-2-6.1-4-12.1-6-18.1c-0.7,0-1.4,0-2,0C212.1,9.1,210.7,13.4,209.1,17.9 M472.9,151.2c-0.3-2.2-1.7-0.6-2.6-1
	c0,5.5,0,10.9,0,16.2c0.9,0,1.7,0,2.6,0c0-3.2,0-6.3,0-9.4c0-2.9,0.2-3.3,3-4.2c2.6-0.9,4.2,0.1,4.4,2.8c0.2,1.7,0.1,3.4,0.1,5.1
	c0,1.9,0,3.7,0,5.6c1.1,0,2.1,0,2.9,0c0-3.8,0-7.5,0-11.1c0-0.5,0.3-1,0.7-1.3c0.7-0.5,1.4-0.8,2.2-1.1c2.5-1,4.3,0,4.6,2.7
	c0.2,1.6,0.1,3.3,0.1,5c0,2,0,4,0,5.9c1.1,0,2,0,3,0c0-1.8,0-3.4,0-5.1c0-2.4,0.1-4.9-0.2-7.3c-0.4-3-2.4-4.7-5.4-4.3
	c-1.9,0.3-3.8,1.2-5.9,2c-1.2-1.8-3.2-2.5-5.7-1.9C475.5,150.1,474.3,150.9,472.9,151.2 M44.5,156c1,2.8,2,5.6,2.8,8.5
	c0.5,1.9,1.5,2.4,3.4,1.8c1.4-5.3,2.8-10.7,4.3-16c-3-0.4-3-0.4-3.6,2.4c-0.7,3.1-1.4,6.2-2.2,9.7c-1.1-3.6-2.2-6.7-3.2-9.9
	c-0.8-2.5-0.8-2.5-3.3-2.2c-1.3,3.9-2.5,7.8-3.9,11.9c-1-4.1-1.9-8-2.9-11.8c-1.1,0-2,0-3.1,0c1.4,5.1,2.7,10,4,14.9
	c0.2,0.8,0.3,1.5,1.4,1.4c0.9-0.1,1.6-0.1,1.9-1.2c1.1-3.6,2.4-7.1,3.7-10.9C44.1,155,44.3,155.3,44.5,156 M12.6,154.6
	c-0.8,2.4-1.6,4.8-2.5,7.7c-0.9-3.9-1.8-7.3-2.6-10.8c-0.2-1.2-0.7-1.6-1.9-1.4c-0.5,0.1-1,0.1-1.6,0.1c1.5,5.5,2.9,10.9,4.3,16
	c2.2,0.8,3.2-0.1,3.6-2c0.2-1.1,0.6-2.1,0.9-3.2c0.7-2.2,1.4-4.3,2.2-6.8c1.3,3.7,2.4,6.9,3.5,10.1c0.8,2.3,0.8,2.3,3.3,1.9
	c1.4-5.3,2.8-10.7,4.3-16.1c-3-0.3-3-0.3-3.5,2.2c-0.1,0.3-0.1,0.5-0.2,0.8c-0.6,2.9-1.2,5.7-1.9,9.1c-1.4-4.1-2.7-7.7-3.8-11.3
	c-0.3-1-1-1-1.7-0.8c-0.5,0.1-1.2,0.5-1.4,0.9C13.2,152.1,13,153.3,12.6,154.6 M68.3,160c-0.2,0.6-0.5,1.3-0.9,2.3
	c-0.8-3.6-1.4-6.7-2.1-9.8c-0.6-2.7-0.7-2.7-3.6-2.1c1.4,5.3,2.8,10.7,4.2,16c2.6,0.4,2.6,0.4,3.4-1.9c0.7-2,1.4-4.1,2.1-6.1
	c0.4-1.2,0.8-2.4,1.3-4c0.2,0.5,0.3,0.6,0.3,0.8c1.1,3.5,2.3,6.9,3.3,10.4c0.3,1,1,1.1,1.8,1c0.6-0.1,1.4-0.4,1.5-0.7
	c1.4-5.1,2.7-10.2,4.1-15.5c-1.1,0-2.1,0-3,0c-0.9,4-1.8,7.8-2.8,12.1c-1.3-4-2.4-7.4-3.5-10.9c-0.2-0.7-0.2-1.4-1.3-1.4
	c-1,0-1.7,0.1-2.1,1.3C70.2,154.2,69.3,157,68.3,160 M308.8,25.8c1.2,1.7,2.8,0.5,4.4,0.6c-2.8-3.4-5.5-6.8-8.3-10.3
	c1.1-0.4,2.1-0.7,3-1.1c2.5-1.2,3.8-3.5,3.4-6.2c-0.3-1.9-1.8-3.6-4.2-3.8c-3.3-0.3-6.6-0.1-9.7-0.1c0,7.3,0,14.5,0,21.8
	c1.1,0,2.1,0,3,0c0-3,0-5.9,0-8.9c0-0.5,0.2-1,0.4-1.5c0.4,0.3,1,0.4,1.3,0.8C304.2,19.8,306.4,22.7,308.8,25.8 M378.8,157.2
	c-2.3,1.8-2.9,4.3-1.8,6.7c1.1,2.3,3.6,3.5,6.3,2.8c1.5-0.4,2.9-1,4.3-1.6c0,0.3,0.1,0.7,0.2,1.1c1,0,1.8,0,2.8,0
	c0-4.1,0.1-8,0-11.9c0-2.1-1.3-3.5-3.2-4.2c-3.1-1-6.2-0.6-9.2,0.2c0,1.1,0,2,0,3c0.7-0.2,1.2-0.4,1.8-0.5c1.9-0.2,3.8-0.4,5.7-0.3
	c1.4,0.1,2.1,1.2,2,2.4C384.6,155.8,381.8,156.4,378.8,157.2 M223.7,166.5c0.6,0,1.3,0,2,0c0-4,0.1-7.9,0-11.7
	c-0.1-2.7-1.8-4.3-4.4-4.9c-2.7-0.6-5.4-0.1-8,0.5c0,1,0,2,0,3.1c0.8-0.2,1.4-0.6,2-0.6c1.8-0.1,3.7-0.4,5.5-0.2
	c1.3,0.1,2.2,1.1,1.8,2.9c-0.6,0-1.1-0.1-1.6,0c-1.9,0.3-3.9,0.4-5.7,1c-3,1-4.2,3.6-3.4,6.4c0.8,2.7,3.3,4.4,6.3,3.8
	c1.5-0.3,3-1,4.4-1.5C222.8,165.7,223.1,166.1,223.7,166.5 M165.2,158.6c2.4,0,4.8,0,7.3,0c0-1.2,0.1-2.1,0-3
	c-0.2-3.3-2.3-5.5-5.5-5.9c-3.7-0.5-6.8,1.1-8.5,4.3c-1.5,2.9-1,8,1,10.2c2.8,3.1,6.4,3.2,10.1,2.3c2.8-0.7,2.9-0.9,2.3-3.8
	c-6.5,3.1-11.4,1.4-11.1-4C162.2,158.6,163.5,158.6,165.2,158.6 M257.5,161.5c-0.2-0.9-0.5-1.8-0.8-2.9c4.1,0,8,0,12,0
	c0-1.1,0-2,0-2.9c-0.2-3.4-2.3-5.8-5.6-6.1c-3.5-0.3-6.4,0.8-8.1,4c-1.6,3.2-1.7,6.6,0.2,9.7c2.1,3.3,6.3,4.4,10.7,3.1
	c2.7-0.8,2.7-0.8,2.4-3.8c-1.1,0.4-2.1,0.9-3.2,1.2C261.8,164.8,259.4,164.1,257.5,161.5 M22.5,9.5c0,5.7,0,11.4,0,17.1
	c0.9,0,1.9,0,2.7,0c0-3,0-5.8,0-8.7c0-0.9,0.2-1.8,0.4-2.6c0.6-1.7,1.9-2.4,3.6-2.4c1.7,0,2.6,1,3.1,2.5c0.2,0.7,0.3,1.5,0.3,2.3
	c0,3,0,5.9,0,8.9c0.9,0,1.8,0,2.7,0c0-3.8,0.1-7.4,0-11.1c0-2.1-1.3-3.5-3.3-4.1c-2.5-0.7-4.8-0.1-6.9,2c0-2.1,0-3.9,0-5.6
	c0-1.7,0-3.5,0-5.2c-1,0-1.9,0-2.7,0C22.5,4.8,22.5,7,22.5,9.5 M446.5,156.4c0.1,1.6-0.1,3.2,0.2,4.8c1,5.3,7.7,7.7,11.9,4.4
	c2.7-2.1,3.2-4.9,3.1-8c-0.1-4.3-3-7.5-6.9-7.8C450.5,149.3,447.4,151.7,446.5,156.4 M125.1,150.2c-0.8,0.4-1.6,0.8-2.3,1.2
	c-0.5-1.5-1-1.7-3.2-1c0,5.3,0,10.6,0,16c1,0,1.9,0,3,0c0-3.7,0-7.3,0-10.9c0-0.5,0.1-1.3,0.5-1.6c1-0.6,2.1-1.1,3.2-1.3
	c2.5-0.5,3.9,0.7,4.1,3.2c0,0.6,0,1.1,0,1.7c0,3,0,5.9,0,8.9c1.1,0,2,0,3,0c0-0.4,0-0.8,0-1.1c0-3.4,0.1-6.8,0-10.2
	c-0.1-3.7-2.6-5.8-6.2-5.5C126.5,149.7,125.9,149.9,125.1,150.2 M239.3,11.1c-1.5,0.6-3.1,1.2-4.5,1.7c0-3.2,0-6.7,0-10.3
	c-1,0-1.8,0-2.6,0c0,8.1,0,16.1,0,24c0.9,0,1.8,0,2.6,0c0-2.9-0.1-5.7,0-8.5c0-1,0.2-2.1,0.6-3.1c0.6-1.6,2.4-2.4,4.1-2.2
	c1.6,0.2,2.5,1.2,2.7,3.1c0.1,1.7,0.1,3.3,0.1,5c0,1.9,0,3.7,0,5.6c0.9,0,1.7,0,2.9,0c0-3.5,0.1-6.9,0-10.4
	C244.8,12.6,243.1,11.2,239.3,11.1 M304.7,163.1c1.2-2.1,1.2-4.4,0.9-6.6c-0.9-7.1-7.6-8.3-11.6-5.7c-2.9,1.9-3.5,4.9-3.4,8.2
	c0.1,3.7,2,6.7,5.1,7.7C299.2,167.7,302.3,166.6,304.7,163.1 M361.6,152.5c2.8,0,3.6,0.7,3.7,3.4c0.1,3.5,0,6.9,0,10.4
	c1.1,0,2,0,2.9,0c0-4,0.1-8,0-11.9c-0.1-3.1-2.3-5.1-5.4-4.8c-1.6,0.1-3.2,1-4.8,1.6c-0.2,0.1-0.4,0.2-0.6,0.3
	c-0.1-0.5-0.1-0.9-0.1-1.3c-1,0-1.8,0-2.7,0c0,5.5,0,10.8,0,16.2c1,0,1.8,0,2.8,0c0-3.7,0-7.3,0-10.9c0-0.6,0.3-1.4,0.7-1.6
	C359.1,153.3,360.2,153,361.6,152.5 M317,153.8c0-1.2,0-2.4,0-3.6c-1.1,0-2,0-3,0c0,3.8-0.1,7.4,0,11.1c0.1,3.8,2.4,6,5.9,5.6
	c1.6-0.2,3-1.2,4.5-1.8c0.1-0.1,0.3,0,0.4-0.1c0,0.5,0.1,0.9,0.1,1.3c0.9,0,1.8,0,2.7,0c0-5.4,0-10.8,0-16.2c-1,0-1.8,0-2.8,0
	c0,3.1,0,6.1,0,9.1c0,3.3,0,3.3-3.1,4.5c-2.9,1.1-4.8-0.2-4.9-3.3C317,158.4,317,156.2,317,153.8 M477.1,16c-1.7-5.4-8-5.8-11.8-3.9
	c-3.1,1.5-3.5,4.5-3.4,7.7c0.1,3.7,1.9,6.2,5.3,7c4.2,1,7.7-0.4,9.4-3.7C477.8,20.9,477.7,18.6,477.1,16 M170.4,26.8
	c8.3,1.3,11.2-3.8,9.6-10.8c-1.2-5.3-7.9-5.9-11.8-3.8c-3.2,1.8-3.8,5-3.3,8.4C165.3,23.7,167,25.9,170.4,26.8 M487.7,12.8
	c2.1,0.7,2.9,1.9,2.9,4.2c0,3.1,0,6.3,0,9.5c0.8,0,1.7,0,2.7,0c0-3.8,0.1-7.6,0-11.3c-0.1-2-1.3-3.5-3.4-3.9
	c-2.5-0.6-4.6,0.1-6.6,1.9c-0.1-0.7-0.1-1.2-0.2-1.7c-0.9,0-1.8,0-2.7,0c0,5,0,10,0,15c1,0,1.9,0,2.8,0c0-3,0-6,0-8.9
	C483.2,14.5,484.4,13.2,487.7,12.8 M438.6,150.5c-3.6-1.4-7.1-1.4-10,1.5c-2.1,2.1-2.8,7.4-1.4,10.5c1.5,3.5,5.8,5.1,10.1,3.8
	c2.8-0.9,3-1.2,2.4-3.9c-1.4,0.5-2.7,1.2-4.1,1.5c-2.7,0.7-5.3-0.9-5.7-3.6c-0.3-1.5-0.2-3.1,0.1-4.6c0.4-2.2,2.2-3.7,4.5-3.6
	c1.2,0.1,2.4,0.6,3.6,1c0.6,0.2,1.1,0.5,2.1,1C439.4,152.8,440.8,151.3,438.6,150.5 M70.7,21.1c0.5,1.1,0.9,2.4,1.7,3.4
	c2.5,3,5.9,3.1,9.3,2c3.2-1,4.3-3.8,4.6-6.9c0.3-3.1-1.5-6.7-3.8-7.7c-3.4-1.5-7.8-0.8-10,1.6C70.5,15.6,70.2,18.2,70.7,21.1
	 M375.3,20.1c-0.1,2.1-0.2,4.3-0.3,6.4c1,0,1.9,0,3,0c0-3.5,0-6.9,0-10.2c-0.1-3.3-1.8-5.1-5-5.2c-2-0.1-3.8,0.7-5.3,2.4
	c0.1-0.8,0.1-1.4,0.1-1.9c-1,0-1.8,0-2.6,0c0,5,0,10,0,15c1,0,1.9,0,2.8,0c-0.1-0.9-0.2-1.6-0.2-2.4c0-2.7,0-5.4,0.3-8.1
	c0.2-2.1,1.9-3.3,4-3.2c1.6,0.1,2.7,1.1,3.1,3.2C375.3,17.2,375.2,18.5,375.3,20.1 M198.9,146.1c-0.3,1.3-0.7,2.6-1,4
	c-0.5,0.1-1,0.2-1.5,0.2c0,0.8,0,1.5,0,2.3c0.6,0,1.1,0.1,1.8,0.1c0,4.6,0,9.1,0,13.7c1,0,1.9,0,2.9,0c0-4.6,0-9.1,0-13.8
	c1.7,0,3.3,0,4.9,0c0-0.9,0-1.6,0-2.5c-1.7,0-3.3,0-4.8,0c-0.2-3.5,0.5-4,5.7-3.8c0-0.8,0-1.5,0-2.3
	C203.7,142.9,200.5,143.7,198.9,146.1 M246.5,153.8c0.3-0.1,0.8-0.2,0.8-0.3c0.1-0.8,0-1.6,0-2.4c-2.9-1.4-5.8-2-8.7-0.7
	c-4.6,2-5.6,6.9-4.1,11.8c1.1,3.7,5.8,5.7,10.1,4.4c3.4-1.1,2.9-0.5,2.6-4.1c-1.1,0.5-2.2,1.1-3.3,1.5c-3.5,1.2-6.4-0.6-6.8-4.2
	c-0.3-2.4-0.3-5,2.1-6.5c2.3-1.5,4.4-0.8,6.6,0.4C245.9,153.6,246.1,153.6,246.5,153.8 M101.9,19.1c0-2.5,0-5.1,0-7.6
	c-0.8,0-1.6,0-2.5,0c0,1.2,0,2.3,0,3.5c0,2.1,0.1,4.2-0.2,6.3c-0.3,2.6-2.1,4.1-4.2,3.9c-2.1-0.2-3.2-1.7-3.2-4.4c0-3.1,0-6.2,0-9.3
	c-0.8,0-1.7,0-2.7,0c0,3.4,0,6.7,0,10c0,2.3,0.7,4.4,3.1,5.1c2.3,0.7,4.6,0.6,6.5-1.3c0.2-0.2,0.5-0.4,0.8-0.7c0,0.8,0,1.4,0,1.9
	c0.8,0,1.6,0,2.4,0C101.9,24.1,101.9,21.8,101.9,19.1 M151,166.4c0.1-0.9,0.3-1.8,0.4-2.6c-1.2,0.1-2.2,0.3-3.1,0.3
	c-1.3,0.1-2.4-0.5-2.5-1.9c-0.1-3.2,0-6.4,0-9.6c1.9,0,3.7,0,5.5,0c0-0.8,0-1.6,0-2.5c-1.9,0-3.7,0-5.6,0c0-1.7,0-3.2,0-4.7
	c-1,0-1.9,0-2.8,0c0,1.6,0,3,0,4.6c-0.6,0.1-1.2,0.1-1.8,0.2c0,0.8,0,1.5,0,2.4c0.6,0.1,1.1,0.1,1.8,0.2c0,2.4,0,4.7,0,7
	C142.8,166,144.7,167.5,151,166.4 M265.5,12.9c-2,2-2.5,4.6-2.2,7.2c0.6,6.9,7.7,8.3,12.4,5.6c0.6-0.4,0.9-1.4,1.3-2.1
	c-0.1-0.1-0.3-0.2-0.4-0.3c-2.3,2-4.8,3.3-7.7,1.5c-2.1-1.3-2.7-3.3-2.4-5.9c3.6,0,7.1,0,10.7,0c0.3-2.8,0.2-5.4-2.6-7
	C271.9,10.5,267.8,10.9,265.5,12.9 M402.7,19c0.1-0.1,0.4-0.1,0.4-0.2c0.7-2.5-0.7-6.1-3-6.9c-4.4-1.6-9.4-0.9-10.6,5.1
	c-0.7,3.4-0.1,6.5,2.7,8.7c2.3,1.9,6.6,1.8,9.3,0.2c1-0.6,1.3-1.3,1-2.6c-2.3,2.2-4.8,3.2-7.7,1.5c-1.9-1.1-2.7-3.3-2.3-5.8
	C395.7,19,399,19,402.7,19 M41.3,12.1c-2.4,1.5-2.7,4.1-3,6.5c-0.2,2.2,0.2,4.3,1.8,6c2.5,2.7,6.7,3.1,10.1,1.3
	c1.1-0.6,1.5-1.4,1.3-2.8c-2.4,2.2-4.9,3.4-7.8,1.7c-2.1-1.3-2.8-3.3-2.5-5.9c3.7,0,7.4,0,11,0c0.4-4.5-1.5-7.4-5.5-7.7
	C45,11.1,43.3,11.7,41.3,12.1 M256.9,11.3c-2.2-0.4-4.4-0.3-6.2,1c-3.2,2.4-3.8,8.4-1.4,11.7c2.3,3.3,7.1,4.1,10.9,1.8
	c1.1-0.7,1.2-1,0.8-2.4c-2.2,2.2-4.6,3.1-7.5,1.5c-2-1.1-3-3.4-2.5-5.9c3.6,0,7.2,0,10.8,0C262.1,14.6,260.7,12.3,256.9,11.3
	 M418.6,27c2,0.3,3.7-0.6,5.1-1.9c1.2,1.9,3.5,2.2,4.5,0.5c-1.6,0-1.9-1-1.8-2.3c0.1-2.5,0.2-5.1,0.2-7.6c0-1.8-0.7-3.3-2.4-4
	c-2.3-0.9-4.6-0.8-6.8,0.3c-1.5,0.7-1.6,1-0.8,3.2c0.3-0.6,0.4-1,0.7-1.2c1.1-1.3,2.6-1.7,4.2-1.2c1.5,0.4,2.4,1.9,2.4,3.7
	c0,1.8-1.5,1.5-2.5,1.9c-1.3,0.4-2.7,0.5-4,1c-2.2,0.8-2.9,2.2-2.7,4.3C414.9,25.6,415.9,26.6,418.6,27 M19.1,4.6
	c-4.7,0-9.5,0-14.3,0c0,0.8,0,1.5,0,2c2.3,0,4.5,0,6.8,0c0,6.6,0,13.3,0,19.9c1.1,0,2,0,3,0c0-6.7,0-13.3,0-19.9c2.3,0,4.5,0,6.8,0
	c0-0.6,0-1.3,0-2C20.7,4.6,20.1,4.6,19.1,4.6 M119.1,26.6c0-0.7,0-1.5,0.1-2.2c0-2.7-0.1-5.4,0.2-8.1c0.2-2.3,1.9-3.6,4.1-3.4
	c1.8,0.1,3.1,1.4,3.2,3.7c0.1,3.3,0,6.6,0,10c0.7,0,1.6,0,2.7,0c0-3.7,0.2-7.3-0.1-10.9c-0.2-3.1-2.2-4.7-5.3-4.4
	c-1.7,0.2-3.3,1.1-4.9,1.6c0-0.1,0-0.7,0-1.2c-0.9,0-1.8,0-2.5,0c0,5,0,10,0,15.1C117.2,26.6,118,26.6,119.1,26.6 M133.1,20.7
	c-1.1,2.1-0.9,3.9,0.6,5.3c1.7,1.6,4.3,1.4,7.9-0.7c1.5,1.8,3.4,2,4.4,0.5c-1.6-0.5-1.9-1.2-1.8-3.6c0.1-2.3,0.2-4.5,0.1-6.8
	c0-1.5-0.7-2.9-2.1-3.5c-2.5-1.1-5-1-7.5,0.4c-1.1,0.6-1.1,1.4-0.8,2.2c1.3-0.7,2.4-1.5,3.7-1.8c1.9-0.5,3.7,0.9,4,2.8
	c0.3,2,0,2.4-2.7,2.9c-0.4,0.1-0.8,0.1-1.1,0.2C136.3,19.2,134.8,19.8,133.1,20.7 M317.7,26.9c2.2,0.2,4.3-0.1,5.8-1.9
	c1.5,1.9,3.5,2.2,4.6,0.8c-1.8-0.6-1.8-0.6-1.8-2.5c0-2.6,0-5.2,0-7.8c0-1.7-0.7-3-2.1-3.7c-2.3-1.1-4.8-0.8-7,0.3
	c-1.4,0.6-1.4,1-0.8,2.6c0.3-0.3,0.5-0.6,0.8-0.9c1.2-1.2,3.2-1.6,4.6-1c1.3,0.6,2.3,2.3,2.1,3.9c-0.2,1.5-1.5,1.3-2.4,1.6
	c-1.2,0.4-2.5,0.5-3.7,0.8c-2.1,0.6-3.1,2-3.2,3.8C314.4,24.8,315.3,26,317.7,26.9 M280.1,150.1c-1.4,0-2.7,0-4,0c0,1,0,1.8,0,2.6
	c1.1,0,2.1,0,3,0c0,5.1,0.1,10,0,15c0,1.7-1.5,2.6-3.2,2.4c-0.8-0.1-1.6-0.3-2.4-0.5c0,1,0,1.9,0,2.9c1,0.1,1.9,0.2,2.9,0.2
	c3.8,0.1,5.8-1.8,5.8-5.6c0-2.2,0-4.3,0-6.5c0-3.4,0-6.8,0-10.4C281.5,150.1,281,150.1,280.1,150.1 M191.2,152.7c0-0.8,0-1.6,0-2.4
	c-2.9-0.7-5.1,0.4-7.2,1.9c-0.1-0.8-0.1-1.4-0.2-2c-1,0-1.9,0-3,0c0,2.8,0,5.4,0,8.1c0,2.7,0,5.4,0,8.1c1.1,0,2,0,3.1,0
	c0-3,0-6,0-8.9c0-3,0.3-3.4,3.2-4.2c0.9-0.2,1.8-0.1,2.8-0.2C190.3,153.1,190.7,153,191.2,152.7 M63.5,28.6c-0.9,0.7-1.9,1.3-3,2.1
	c0.4,0.1,0.7,0.3,1,0.3c3.2,0,5.8-2.7,5.8-6.2c0-5.4,0-10.8,0-16.1c0-1.3,0.1-2.6,0.2-3.9c-1.2,0-2.1,0-3.2,0c0,0.4,0,0.6,0,0.9
	c0.1,5.4,0.3,10.8,0.3,16.3C64.6,24,64,26.2,63.5,28.6 M186.3,13.2c1-0.1,2-0.3,3.1-0.4c0-0.1,0.1-0.7,0.1-0.7
	c-1-0.2-2.1-0.4-3.1-0.6c-1.2-5.3-0.1-7.1,4-6.3c0-0.4,0.1-0.9,0.1-1.3c0-0.5,0-1-0.1-1.4c-3.3-0.6-6.3,3.1-6.8,9.1
	c-2.1,0.3-2.1,0.3-2,1.4c0.7,0,1.4,0,2,0c0,4.6,0,9.1,0,13.6c0.9,0,1.9,0,2.7,0C186.3,22.1,186.3,17.8,186.3,13.2 M435.1,11.6
	c-3.9,0.9-6.1,5.3-5,9.7c1.3,5.1,6.6,7.2,11.7,4.7c1.6-0.8,1.7-0.9,1.3-2.8c-0.4,0.3-0.7,0.6-1,0.9c-3.8,3-8.3,1.3-9.1-3.5
	c-0.3-2-0.2-4.1,0.9-6c1.5-2.8,5-3.4,7.3-1.2c0.4,0.4,0.6,1,0.8,1.6c0.2-0.2,0.4-0.4,0.6-0.5c0.2-0.7,0.5-1.4,0.8-2.3
	C440.8,11.1,438.2,10.7,435.1,11.6 M340.3,156.2c-0.3-1.4,0.5-2.2,1.7-2.4c1.8-0.5,3.7-0.7,5.6-1c0-0.7,0-1.6,0-2.6
	c-2.7-0.6-5,0.2-7.1,2c-0.1-0.9-0.1-1.4-0.1-2.1c-0.9,0-1.8,0-2.7,0c0,5.4,0,10.8,0,16.2c0.9,0,1.8,0,2.8,0
	C340.3,163.1,340.3,159.8,340.3,156.2 M357.1,13.1c0,4.5,0,8.9,0,13.4c1.1,0,2.1,0,3,0c0-7.4,0-14.6,0-21.8c-1.1,0-2.1,0-3,0
	C357.1,7.5,357.1,10.1,357.1,13.1 M342.9,5.8c0-1.1,0-2.2,0-3.3c-1,0-1.9,0-2.8,0c0,8.1,0,16.1,0,24c1,0,1.9,0,2.8,0
	C342.9,19.7,342.9,12.9,342.9,5.8 M402.9,159.5c0-5.2,0-10.4,0-15.6c-1.1,0-1.9,0-2.8,0c0,7.6,0,15,0,22.5c1,0,1.8,0,2.8,0
	C402.9,164.1,402.9,162,402.9,159.5 M283.3,17.8c0-5.1,0-10.1,0-15.3c-0.8,0-1.8,0-2.7,0c0,8,0,16,0,24c1,0,2,0,2.7,0
	C283.3,23.6,283.3,20.9,283.3,17.8 M152.4,22.3c0-6.6,0-13.1,0-19.8c-0.9,0-1.8,0-2.8,0c0,8.1,0,16,0,24c1,0,2,0,2.9,0
	C152.5,25.1,152.5,23.9,152.4,22.3 M447.2,8c-1.5,1,0.2,2.5-0.8,3.7c-0.5,0-1.1,0-1.8,0c0,0.5,0,1,0,1.4c0.7,0.1,1.3,0.1,2,0.1
	c0,0.4,0,0.8,0,1.2c-0.1,2.9-0.1,5.8-0.2,8.6c0,1.4,0.3,3.1,1.8,3.4c1.5,0.4,3.2,0,4.8,0c0,0,0.1-0.4,0.1-0.6
	c-2.8-0.1-3.7-0.3-3.7-1.8c-0.2-3.6-0.1-7.2-0.1-10.9c3.4-0.2,3.4-0.2,3.1-1.5c-1,0-1.9,0-3,0c0-1.6,0-3,0-4.7
	C448.6,7.4,448,7.6,447.2,8 M382.5,17.5c-0.1,2-0.1,4-0.1,6c0,1.3,0.2,2.8,1.7,3.1c1.5,0.3,3.2-0.1,4.8-0.1c0,0,0-0.4,0.1-0.6
	c-3.2,0.1-4-0.4-4.1-3.3c-0.1-3.1,0-6.2,0-9.4c1.1,0,1.9,0,2.6,0c1.1,0,1.1-0.1,0.8-1.4c-1,0-2,0-3,0c0-1.5,0-3,0-4.6
	c-2.8,0.8-2.8,0.8-2.8,4.5c-0.6,0.1-1.3,0.1-1.9,0.2c0,0.5,0,0.9,0,1.3c0.7,0.1,1.3,0.1,2.1,0.2C382.5,14.6,382.5,15.9,382.5,17.5
	 M111.4,11.5c-0.8,0.7-1.6,1.4-2.5,2.1c0-0.7,0-1.4,0-2c-1,0-1.8,0-2.5,0c0,5.1,0,10,0,15c0.9,0,1.7,0,2.6,0c0-2.8,0-5.5,0-8.2
	c0-3.8,1.2-4.9,4.8-4.5c0.1-0.9,0.2-1.7,0.3-2.8C113.1,11.2,112.4,11.3,111.4,11.5 M408.7,21.1c0.2-1.9,0.1-3.8,0.5-5.6
	c0.4-1.7,1.7-2.3,3.5-1.7c0.3,0.1,0.6,0.1,1,0.2c0-1,0-1.9,0-2.7c-2.3-0.5-3.7,0.7-5,2.7c0-1,0-1.6,0-2.4c-0.9,0-1.7,0-2.6,0
	c0,5,0,10,0,15c0.9,0,1.8,0,2.6,0C408.7,24.8,408.7,23.1,408.7,21.1 M109.9,159.8c0-3.2,0-6.4,0-9.6c-1.1,0-1.9,0-2.8,0
	c0,5.5,0,10.8,0,16.2c1,0,1.8,0,2.8,0C109.9,164.2,109.9,162.2,109.9,159.8 M294.3,8.1c0.4-1.3,0.8-2.7,1.3-4.1c-0.6,0-1.1,0-1.7,0
	c-2.9,7.6-5.8,15.3-8.8,23.1c0.8,0,1.3,0,1.8,0C289.4,20.8,291.8,14.6,294.3,8.1 M455.5,12.9c0,4.6,0,9.1,0,13.7c1,0,2,0,2.8,0
	c0-5.1,0-10.1,0-15c-1.1,0-2,0-2.9,0C455.4,11.9,455.4,12.3,455.5,12.9 M331.8,14.2c0,4.1,0,8.3,0,12.4c1,0,1.9,0,2.6,0
	c0-2.6,0-5,0-7.5c0-2.5,0-5,0-7.5c-0.8,0-1.7,0-2.7,0C331.7,12.4,331.7,13.1,331.8,14.2 M92.7,163.2c0,1,0,2.1,0,3.2
	c1.3,0,2.6,0,3.8,0c0-1.4,0-2.7,0-4.3C95.1,162.3,93.9,162.6,92.7,163.2 M417.2,165.3c0-1,0-2,0-3c-1.3,0-2.5,0-3.6,0
	c0,1.4,0,2.7,0,4.1c1,0,1.9,0.1,2.7,0C416.6,166.4,416.9,165.9,417.2,165.3 M108.2,144.4c-1.7,0.1-1.7,0.2-1.2,2.9c1,0,2,0,3,0
	c0-1,0-1.9,0-2.9C109.5,144.5,109,144.5,108.2,144.4 M280.5,147.5c0.6,0,1.2,0,1.7,0c0-1.1,0-2,0-3c-1.1,0-2.1,0-3.3,0
	c0,0.7,0.1,1.3,0,1.9C278.8,147.4,279.4,147.6,280.5,147.5 M333.4,7.6c0.5-0.5,1.3-1,1.4-1.6c0.2-1-0.4-2-1.5-1.9
	c-0.7,0.1-1.7,0.8-1.8,1.4C331.1,6.7,331.9,7.5,333.4,7.6 M458.7,6.1c-0.3-1.7-1.6-2.5-2.6-1.6c-0.5,0.4-0.9,1.2-0.8,1.8
	c0.1,0.5,0.9,1.4,1.3,1.3C457.3,7.4,458,6.8,458.7,6.1z"/>
<path class="st1" d="M15,129.9c160,0,319.9,0,479.9,0c0,2.2,0,4.3,0,6.6c-163.5,0-327,0-490.7,0c0-2.1,0-4.2,0-6.6
	C7.8,129.9,11.3,129.9,15,129.9z"/>
<path class="st2" d="M5.4,53.9c14.6,0,29,0,43.6,0c0,0.7,0,1.3,0,1.9c-0.6,10.2-3.9,19.5-8.5,28.5c-4.1,7.9-9.3,15-15.9,21
	c-4.5,4.1-9.6,7.5-15.3,9.9c-1.6,0.7-3.2,1.1-5,1.6c0-0.7-0.1-1.1-0.1-1.6c0-19.9,0-39.8,0-59.7C4.3,54.9,3.8,53.8,5.4,53.9z"/>
<path class="st3" d="M174.8,121.3c0,0.6,0,1-0.1,1.3c-2.8,0-5.4,0-8.1,0c-2.6,0-5.2,0-8,0c0.1-1.6,0.3-3.4,0.5-5.1
	c0.2-2.5,0.5-5,0.5-7.4c0.1-7,0.1-14.1,0-21.1c-0.1-2.8-1-5.4-3-7.5c-3.8-3.8-9.8-2.9-12.3,1.8c-1.9,3.6-2.4,7.5-2.4,11.4
	c0.2,9,0.5,17.9,0.8,26.9c0,0.4,0,0.7,0,1.1c-5.4,0-10.7,0-16,0c0.9-17.2,0.9-34.4,0-51.5c5,0,10.1,0,15.4,0
	c-0.1,2.3-0.2,4.8-0.3,7.5c1.6-1.7,3-3.5,4.7-5c6.1-5.4,16.7-5.6,22.8-0.5c3.2,2.7,4.8,6.4,5.1,10.5c0.4,5.8,0.2,11.7,0.2,17.6
	c0,5.5,0.1,11.1,0.1,16.6C174.6,119,174.7,120.1,174.8,121.3z"/>
<path class="st4" d="M346.6,104.6c2.1-5.8,7.2-7.6,12.3-9.2c4.2-1.3,8.4-2.4,12.6-3.7c2.1-0.6,2.9-2.2,2.9-4.3
	c0-5.6-3.6-9.2-9.2-9.4c-5.3-0.2-9.7,1.6-13.4,5.4c-0.7,0.7-1.1,0.6-1.4-0.3c-0.4-1.7-0.8-3.4-1-5c-0.1-0.4,0.2-1.1,0.5-1.3
	c8.5-6.5,17.9-9,28.4-5.7c6.6,2,10.7,7.9,10.7,14.8c0,8.2-0.2,16.3-0.3,24.5c0,1.4,0.1,2.8,0.2,4.1c0.2,2.8,1.7,4.2,4.4,4.4
	c0.5,0,1.1,0,1.7,0c0,1,0,1.9,0,2.8c-3.3,1.5-6.6,2.8-10.2,2.7c-4.9-0.1-8.2-2.7-9.8-7.2c-1.6,1.5-3,3.1-4.7,4.3
	c-5.5,4.1-15.1,3.8-20.4-0.6c-2.6-2.2-3.9-5.2-4.1-8.5C345.6,109.8,346.2,107.3,346.6,104.6 M373.9,95.9c-1,0.4-1.9,0.8-2.9,1.1
	c-8.2,2.4-11.3,6.7-9.8,14.9c0.3,1.4,1.2,3,2.3,3.8c3.8,2.7,9.9,0.2,10.5-4.4c0.6-5,0.6-10.1,0.8-15.2
	C374.6,95.9,374.3,95.8,373.9,95.9z"/>
<path class="st5" d="M457.5,76.5c4.5-4.5,9.9-6.6,16-6.9c4.7-0.3,9.3,0.2,13.4,2.5c6.8,3.9,9.8,10.2,10.3,17.7c0.2,2.4,0,4.8,0,7.3
	c-10.2,0-20.4,0-31,0c0.4,3,0.8,5.9,1.3,8.8c0.1,0.6,0.4,1.3,0.6,1.9c3.1,8.8,9.9,11.1,18.4,8.6c2.3-0.7,4.3-2.1,6.5-3.1
	c0.5-0.2,1.3-0.4,1.6-0.1c0.3,0.3,0.4,1.1,0.3,1.6c-0.3,1.1-1,2-1.2,3.1c-0.4,1.7-1.5,2.6-3,3.3c-8.1,4.2-16.6,4-25,1.3
	c-5.3-1.7-9.4-5.2-12-10.2c-2.9-5.4-3.5-11.4-3.2-17.4c0.2-4,0.8-8,2.6-11.6C454.3,80.9,456,78.8,457.5,76.5 M475.8,92.1
	c2.3,0,4.6,0,7,0c-0.1-1.2-0.1-2.2-0.2-3.2c-0.4-4.1-0.9-8.1-3-11.8c-1.7-3-6.5-3.4-8.6-0.9c-3.8,4.6-4.1,10.1-4.6,15.8
	C469.6,92.1,472.6,92.1,475.8,92.1z"/>
<path class="st5" d="M252.3,97.1c-6.3,0-12.5,0-18.9,0c0.2,6.8,1,13.2,6.6,17.8c3.6,2.8,7.8,2.8,12,1.9c2.9-0.6,5.6-1.6,7.9-3.6
	c0.5-0.4,1.4-0.1,2.5-0.2c-1,2.5-1.7,4.4-2.6,6.3c-0.3,0.5-0.9,1-1.4,1.3c-5,3.1-10.6,3.8-16.3,3.6c-4.5-0.2-8.8-1.1-12.8-3.2
	c-5.9-3.2-9.6-8.3-11-14.7c-1.9-8.3-1.8-16.7,2.3-24.5c4.1-7.8,10.8-11.8,19.4-12.1c3.2-0.1,6.6,0,9.7,0.9c8,2.1,12.2,7.9,13.7,15.6
	c0.7,3.5,0.7,7.1,1,10.9C260.3,97.1,256.4,97.1,252.3,97.1 M239.8,92.1c3.3,0,6.6,0,9.9,0c0.3-3.8-0.8-10.2-2.1-13.4
	c-2-4.6-7.1-5.6-10.1-1.8c-3.5,4.4-3.7,9.7-4,15.2C235.6,92.1,237.6,92.1,239.8,92.1z"/>
<path class="st4" d="M318.7,83c0-1.9,0-3.7,0-5.6c-2.4,0-4.8,0-7.3,0c0-2,0-3.9,0-5.7c2.3,0,4.7,0,7.2,0c0.3-1.5,0.7-3.2,1-4.8
	c1.2-5.5,2.4-11,5.3-16c4.4-7.5,13.3-11.2,21.2-9c0,4.4,0,8.6,0,12.9c0,1.7-0.6,2-2.3,1.4c-2.7-1-5.4-1.8-8.1-2.7
	c-0.1,0-0.2-0.1-0.3-0.1c-5.8-0.1-8.5,1.7-6.7,7.7c1.1,3.7,2.7,7.2,3.9,10.6c3.8,0,7.1,0,10.5,0c0,1.9,0,3.8,0,5.7
	c-3.2,0-6.5,0-10.1,0c0.3,15.2,0.5,30.3,0.8,45.5c-5.2,0-10.5,0-15.7,0C318.3,109.5,318.5,96.3,318.7,83z"/>
<path class="st4" d="M211.6,71.5c0.3,0.3,0.6,0.6,0.6,0.9c0,1.6,0,3.2,0,4.9c-3,0-6.1,0-9.3,0c-0.2,2.1-0.5,4.2-0.5,6.3
	c-0.1,8.2-0.2,16.3-0.1,24.5c0,2.1,0.4,4.2,0.8,6.2c0.6,2.8,2.1,4,4.9,3.9c1.6,0,3.2-0.4,5-0.6c0,1,0,2.3,0,3.5c0,0.3-0.3,0.8-0.6,1
	c-4.8,1.8-9.8,3-14.9,1.9c-5.4-1.2-8.6-4.8-9.3-10.9c-0.5-4.1-0.4-8.3-0.4-12.5c0-4,0.4-8,0.4-11.9c0.1-3.7,0-7.3,0-11.2
	c-2.3,0-4.8,0-7.3,0c0-2,0-3.9,0-5.7c2.4,0,4.8,0,7.3,0c0-4.2,0-8.5,0-12.8c4.6-2.2,9.2-4.4,13.9-6.6c1.1-0.5,1.8,0.2,1.7,1.4
	c-0.4,5.9-0.8,11.8-1.1,17.8C205.7,71.5,208.6,71.5,211.6,71.5z"/>
<path class="st4" d="M53.3,121.6c-14.4,0-28.6,0-42.8,0c15.6-1.7,30.1-6.8,42.9-15.8c12.9-9,22.8-20.6,28.6-35.5c0,17,0,34.1,0,51.4
	C72.5,121.6,63,121.6,53.3,121.6z"/>
<path class="st4" d="M399.8,86.7c4.4-11.4,13.3-16.2,24.8-17.1c6.7-0.5,13,1,18.8,4.2c0.5,0.3,0.9,0.6,1.3,0.8
	c-1.4,3.8-2.8,7.4-4.2,11.3c-0.6,0-1.4,0-2.3,0c-0.5-1.4-0.9-2.9-1.5-4.3c-2.4-5.7-8.3-7.8-13.9-5.3c-3.2,1.4-5,4-6,7.1
	c-2.7,8.1-3.3,16.2-0.5,24.4c2.7,7.9,11.7,11.8,19.4,8.4c2.1-0.9,4-2.3,6.2-3.6c1,0.4,0.9,1.3,0.3,2.5c-0.4,0.8-0.8,1.6-1,2.5
	c-0.4,2.2-1.9,3.3-3.8,4.2c-7.8,3.6-15.8,3.2-23.6,0.6c-5.8-1.9-10.5-5.6-12.9-11.2C397.5,103.3,396.9,95.1,399.8,86.7z"/>
<path class="st4" d="M296.6,84.8c-4.6,1.6-7.4,5.4-7.3,10.2c0.2,9.1,0.5,18.1,0.8,27.2c0,0.2-0.1,0.3-0.1,0.6c-5.3,0-10.6,0-16,0
	c1.1-17.2,1.1-34.4,0-51.5c4.9,0,9.8,0,14.7,0c0,4,0,8.1,0,12.8c1.6-4.2,3.6-7.7,6.6-10.5c3.1-2.9,7-4.1,10.9-3.6
	c0,4.9-0.1,9.7-0.1,14.5c0,1-0.8,1.6-1.7,1.1C301.9,84.2,299.4,84.3,296.6,84.8z"/>
<path class="st4" d="M98,121.8c0.2-10.1,0.6-20.1,0.6-30.1c0-6.9-0.3-13.8-0.5-20.6c5.1,0,10.4,0,15.8,0c-1.1,17-1.2,34.2,0,51.6
	c-5.1,0-10.2,0-15.2,0C98.5,122.7,98.3,122.3,98,121.8z"/>
<path class="st4" d="M104.2,59.1c-5.1-0.4-9.3-7.7-5.1-13.4c2.8-3.8,7.7-4.7,11.5-2.1c3.9,2.6,5.1,7.6,2.8,11.7
	C111.5,58.4,108.3,59.7,104.2,59.1z"/>
<path class="st6" d="M209.2,17.8c1.5-4.4,2.9-8.7,4.3-13.1c0.6,0,1.2,0,2,0c2,6,4,12.1,6,18.1c0.1,0,0.3,0,0.4,0
	c1.8-6,3.6-12.1,5.4-18.1c0.8,0,1.5,0,2.4,0c-1.6,4.7-3.2,9.4-4.8,14c-0.7,2-1.4,4-1.9,6c-0.4,1.8-1.4,2.3-3.2,1.8
	c-1.8-5.7-3.7-11.5-5.6-17.7c-0.7,1.8-1.3,3.3-1.8,4.7c-1.3,3.7-2.6,7.4-3.9,11.1c-0.7,2-0.7,2-3,1.8c-2.3-7.2-4.6-14.5-6.9-21.8
	c1.2,0,2.3,0,3.3,0c1.8,6,3.5,12,5.5,18.6C208,21.2,208.6,19.5,209.2,17.8z"/>
<path class="st7" d="M473,151.3c1.3-0.4,2.5-1.2,3.8-1.5c2.4-0.6,4.5,0.1,5.7,1.9c2.1-0.7,3.9-1.7,5.9-2c3-0.4,5.1,1.3,5.4,4.3
	c0.3,2.4,0.2,4.9,0.2,7.3c0,1.7,0,3.3,0,5.1c-1,0-1.9,0-3,0c0-2,0-4,0-5.9c0-1.7,0.1-3.3-0.1-5c-0.3-2.6-2.1-3.7-4.6-2.7
	c-0.8,0.3-1.6,0.6-2.2,1.1c-0.4,0.3-0.7,0.9-0.7,1.3c-0.1,3.7,0,7.3,0,11.1c-0.8,0-1.8,0-2.9,0c0-1.9,0-3.8,0-5.6
	c0-1.7,0-3.4-0.1-5.1c-0.2-2.8-1.8-3.7-4.4-2.8c-2.8,1-3,1.3-3,4.2c0,3.1,0,6.2,0,9.4c-0.9,0-1.7,0-2.6,0c0-5.3,0-10.7,0-16.2
	C471.2,150.6,472.6,149,473,151.3z"/>
<path class="st8" d="M44.5,155.9c-0.2-0.5-0.4-0.9-0.6-1.5c-1.3,3.8-2.6,7.3-3.7,10.9c-0.4,1.2-1,1.2-1.9,1.2
	c-1.1,0.1-1.2-0.6-1.4-1.4c-1.3-4.9-2.6-9.8-4-14.9c1.1,0,2,0,3.1,0c0.9,3.8,1.9,7.7,2.9,11.8c1.3-4.1,2.6-8,3.9-11.9
	c2.6-0.3,2.6-0.2,3.3,2.2c1,3.2,2,6.3,3.2,9.9c0.8-3.5,1.5-6.6,2.2-9.7c0.6-2.7,0.6-2.7,3.6-2.4c-1.4,5.4-2.9,10.8-4.3,16
	c-1.9,0.6-2.8,0.1-3.4-1.8C46.6,161.6,45.5,158.8,44.5,155.9z"/>
<path class="st8" d="M12.6,154.5c0.4-1.2,0.6-2.4,1.1-3.4c0.2-0.4,0.9-0.8,1.4-0.9c0.7-0.2,1.3-0.2,1.7,0.8
	c1.2,3.6,2.4,7.2,3.8,11.3c0.7-3.3,1.3-6.2,1.9-9.1c0.1-0.3,0.1-0.5,0.2-0.8c0.6-2.5,0.6-2.5,3.5-2.2c-1.4,5.4-2.8,10.8-4.3,16.1
	c-2.6,0.4-2.6,0.3-3.3-1.9c-1.1-3.2-2.2-6.5-3.5-10.1c-0.8,2.5-1.5,4.6-2.2,6.8c-0.3,1.1-0.7,2.1-0.9,3.2c-0.4,1.9-1.4,2.8-3.6,2
	c-1.4-5.1-2.8-10.5-4.3-16c0.6,0,1.1,0,1.6-0.1c1.2-0.2,1.6,0.3,1.9,1.4c0.7,3.5,1.6,6.9,2.6,10.8C11,159.5,11.8,157.1,12.6,154.5z"
	/>
<path class="st8" d="M68.3,159.9c0.9-2.9,1.9-5.7,2.7-8.5c0.4-1.2,1.1-1.3,2.1-1.3c1,0,1.1,0.7,1.3,1.4c1.1,3.5,2.2,6.9,3.5,10.9
	c1-4.3,1.9-8.2,2.8-12.1c0.9,0,1.8,0,3,0c-1.4,5.2-2.7,10.4-4.1,15.5c-0.1,0.4-1,0.6-1.5,0.7c-0.8,0.1-1.5,0.1-1.8-1
	c-1-3.5-2.2-7-3.3-10.4c0-0.1-0.1-0.3-0.3-0.8c-0.5,1.5-0.9,2.7-1.3,4c-0.7,2-1.4,4.1-2.1,6.1c-0.8,2.3-0.8,2.3-3.4,1.9
	c-1.4-5.4-2.8-10.7-4.2-16c2.9-0.6,3-0.5,3.6,2.1c0.7,3.1,1.4,6.3,2.1,9.8C67.8,161.3,68.1,160.6,68.3,159.9z"/>
<path class="st9" d="M308.7,25.7c-2.3-3-4.6-5.9-6.8-8.7c-0.3-0.4-0.9-0.5-1.3-0.8c-0.1,0.5-0.4,1-0.4,1.5c0,2.9,0,5.9,0,8.9
	c-0.9,0-1.9,0-3,0c0-7.2,0-14.5,0-21.8c3.2,0,6.5-0.2,9.7,0.1c2.4,0.2,4,1.9,4.2,3.8c0.4,2.7-0.9,5-3.4,6.2c-0.9,0.4-1.8,0.7-3,1.1
	c2.8,3.5,5.6,6.9,8.3,10.3C311.6,26.2,310,27.5,308.7,25.7 M300.2,14.5c2.3,0.7,4.5,0.4,6.4-1.1c2.4-1.9,2.1-5.8-0.8-6.9
	c-1.7-0.6-3.6-0.5-5.4-0.6c-0.1,1.7-0.2,3-0.3,4.3C300.2,11.5,300.2,12.8,300.2,14.5z"/>
<path class="st9" d="M378.9,157.2c2.9-0.7,5.7-1.4,8.7-2.1c0.1-1.2-0.6-2.3-2-2.4c-1.9-0.1-3.8,0.1-5.7,0.3
	c-0.6,0.1-1.2,0.3-1.8,0.5c0-1,0-1.9,0-3c3-0.8,6.1-1.2,9.2-0.2c2,0.6,3.2,2.1,3.2,4.2c0.1,3.9,0,7.9,0,11.9c-0.9,0-1.8,0-2.8,0
	c-0.1-0.4-0.1-0.8-0.2-1.1c-1.4,0.5-2.8,1.2-4.3,1.6c-2.7,0.7-5.2-0.5-6.3-2.8C375.9,161.6,376.5,159.1,378.9,157.2 M381.4,163.9
	c2,0.6,3.8-0.1,5.5-1.1c0.3-0.2,0.7-0.6,0.7-1c0.1-1.3,0-2.6,0-4.1c-2.1,0.3-4,0.5-5.8,0.9c-1.2,0.3-2.2,1.1-2.3,2.5
	C379.4,162.5,380,163.4,381.4,163.9z"/>
<path class="st6" d="M223.5,166.5c-0.4-0.4-0.7-0.8-0.9-1.1c-1.4,0.5-2.9,1.2-4.4,1.5c-3,0.6-5.6-1-6.3-3.8
	c-0.8-2.8,0.4-5.4,3.4-6.4c1.8-0.6,3.8-0.7,5.7-1c0.5-0.1,1.1,0,1.6,0c0.4-1.8-0.5-2.8-1.8-2.9c-1.8-0.2-3.7,0-5.5,0.2
	c-0.6,0-1.2,0.4-2,0.6c0-1.1,0-2,0-3.1c2.6-0.7,5.3-1.1,8-0.5c2.6,0.5,4.3,2.2,4.4,4.9c0.1,3.8,0,7.7,0,11.7
	C225,166.5,224.3,166.5,223.5,166.5 M221,158.1c-1.6,0.3-3.3,0.3-4.7,0.9c-0.8,0.3-1.3,1.7-1.4,2.6c-0.1,0.6,0.6,1.7,1.2,2.1
	c1.4,0.9,5.1,0.1,6.3-1.1c0.2-0.2,0.4-0.6,0.4-0.9c0-1.3,0-2.5,0-3.9C222.2,158,221.8,158.1,221,158.1z"/>
<path class="st6" d="M165,158.6c-1.5,0-2.8,0-4.1,0c-0.3,5.4,4.6,7.1,11.1,4c0.6,2.8,0.5,3.1-2.3,3.8c-3.7,0.9-7.3,0.8-10.1-2.3
	c-2.1-2.3-2.6-7.3-1-10.2c1.7-3.2,4.8-4.7,8.5-4.3c3.2,0.4,5.3,2.7,5.5,5.9c0.1,0.9,0,1.9,0,3C170,158.6,167.6,158.6,165,158.6
	 M166.4,152.1c-3.6,0-5.3,1.3-5.4,4c2.9,0,5.9,0,8.8,0C169.6,153.7,168.9,152.9,166.4,152.1z"/>
<path class="st6" d="M257.5,161.6c1.8,2.5,4.2,3.2,7.4,2.2c1.1-0.3,2.1-0.8,3.2-1.2c0.4,3,0.4,3-2.4,3.8c-4.4,1.2-8.6,0.2-10.7-3.1
	c-1.9-3.1-1.8-6.5-0.2-9.7c1.7-3.2,4.6-4.3,8.1-4c3.3,0.3,5.5,2.7,5.6,6.1c0,0.9,0,1.8,0,2.9c-3.9,0-7.8,0-12,0
	C257,159.8,257.2,160.6,257.5,161.6 M259.9,156.3c2,0,4.1,0,6.1,0c-0.2-2.8-1.5-4.1-4.1-4.2c-2.8,0-4.7,1.5-4.8,4.2
	C257.9,156.3,258.7,156.3,259.9,156.3z"/>
<path class="st7" d="M22.5,9.3c0-2.3,0-4.5,0-6.7c0.8,0,1.7,0,2.7,0c0,1.7,0,3.5,0,5.2c0,1.8,0,3.5,0,5.6c2.1-2.1,4.3-2.7,6.9-2
	c2,0.5,3.2,2,3.3,4.1c0.1,3.7,0,7.3,0,11.1c-0.9,0-1.8,0-2.7,0c0-2.9,0-5.9,0-8.9c0-0.8-0.1-1.6-0.3-2.3c-0.4-1.5-1.4-2.5-3.1-2.5
	c-1.7,0-3,0.7-3.6,2.4c-0.3,0.8-0.4,1.7-0.4,2.6c-0.1,2.9,0,5.7,0,8.7c-0.9,0-1.8,0-2.7,0C22.5,20.9,22.5,15.2,22.5,9.3z"/>
<path class="st10" d="M446.5,156.2c0.9-4.5,4-6.9,8.3-6.6c3.9,0.3,6.7,3.6,6.9,7.8c0.1,3.1-0.4,6-3.1,8c-4.3,3.3-10.9,0.9-11.9-4.4
	C446.4,159.6,446.6,157.9,446.5,156.2 M450.8,153.6c-1.8,2.5-1.6,5.3-0.7,8.1c0.6,1.8,2.1,2.7,4.2,2.6c1.8,0,3.5-1,3.9-2.8
	c0.4-1.7,0.5-3.5,0.4-5.2C458.1,152.3,453.5,150.9,450.8,153.6z"/>
<path class="st11" d="M125.2,150.1c0.7-0.2,1.3-0.4,1.9-0.5c3.6-0.4,6.1,1.8,6.2,5.5c0.1,3.4,0,6.8,0,10.2c0,0.3,0,0.7,0,1.1
	c-1,0-1.9,0-3,0c0-3,0-5.9,0-8.9c0-0.6,0-1.1,0-1.7c-0.1-2.5-1.6-3.7-4.1-3.2c-1.1,0.2-2.2,0.7-3.2,1.3c-0.4,0.2-0.5,1-0.5,1.6
	c0,3.6,0,7.2,0,10.9c-1,0-2,0-3,0c0-5.4,0-10.7,0-16c2.2-0.6,2.7-0.5,3.2,1C123.5,151,124.3,150.6,125.2,150.1z"/>
<path class="st12" d="M239.4,11.1c3.7,0.1,5.4,1.5,5.5,5.1c0.2,3.4,0,6.9,0,10.4c-1.1,0-2,0-2.9,0c0-1.9,0-3.7,0-5.6
	c0-1.7,0-3.3-0.1-5c-0.2-1.9-1.1-2.9-2.7-3.1c-1.7-0.2-3.5,0.6-4.1,2.2c-0.4,1-0.6,2-0.6,3.1c-0.1,2.8,0,5.6,0,8.5
	c-0.8,0-1.6,0-2.6,0c0-8,0-16,0-24c0.8,0,1.7,0,2.6,0c0,3.6,0,7.1,0,10.3C236.2,12.3,237.7,11.7,239.4,11.1z"/>
<path class="st10" d="M304.7,163.2c-2.3,3.4-5.4,4.5-9,3.4c-3-0.9-4.9-4-5.1-7.7c-0.1-3.3,0.5-6.3,3.4-8.2
	c3.9-2.6,10.7-1.4,11.6,5.7C305.9,158.7,305.9,161,304.7,163.2 M302.8,158.5c-0.2-1.1-0.2-2.3-0.5-3.4c-0.4-1.6-2.3-2.8-4.1-2.9
	c-1.7-0.1-3.3,0.9-3.9,2.5c-0.9,2.4-0.9,4.8,0,7.3c0.6,1.6,1.9,2.3,3.5,2.4C301,164.5,302.6,162.7,302.8,158.5z"/>
<path class="st11" d="M361.4,152.5c-1.2,0.4-2.4,0.8-3.3,1.3c-0.4,0.2-0.7,1-0.7,1.6c-0.1,3.6,0,7.2,0,10.9c-0.9,0-1.8,0-2.8,0
	c0-5.4,0-10.7,0-16.2c0.9,0,1.7,0,2.7,0c0,0.4,0.1,0.8,0.1,1.3c0.2-0.1,0.4-0.2,0.6-0.3c1.6-0.6,3.1-1.5,4.8-1.6
	c3.1-0.3,5.3,1.7,5.4,4.8c0.2,3.9,0,7.9,0,11.9c-1,0-1.8,0-2.9,0c0-3.5,0-7,0-10.4C365.2,153.2,364.4,152.5,361.4,152.5z"/>
<path class="st8" d="M317,154c0,2.3,0,4.4,0,6.5c0.1,3.1,2,4.4,4.9,3.3c3.1-1.1,3.1-1.1,3.1-4.5c0-3,0-6,0-9.1c0.9,0,1.8,0,2.8,0
	c0,5.4,0,10.7,0,16.2c-0.9,0-1.7,0-2.7,0c0-0.4-0.1-0.9-0.1-1.3c-0.2,0-0.3,0-0.4,0.1c-1.5,0.6-3,1.6-4.5,1.8
	c-3.5,0.4-5.8-1.8-5.9-5.6c-0.1-3.7,0-7.3,0-11.1c1,0,1.9,0,3,0C317,151.4,317,152.6,317,154z"/>
<path class="st13" d="M477.2,16.2c0.5,2.4,0.6,4.7-0.5,6.9c-1.7,3.3-5.2,4.7-9.4,3.7c-3.4-0.8-5.2-3.3-5.3-7
	c-0.1-3.2,0.3-6.1,3.4-7.7C469.1,10.2,475.5,10.6,477.2,16.2 M470.6,25.8c1.5-0.3,2.5-1.2,3.1-2.5c1.2-2.8,1.2-5.7,0-8.6
	c-0.7-1.6-2.1-2.6-3.9-2.6c-1.8,0-3.2,0.8-4,2.5c-1.2,2.7-1.3,5.5-0.2,8.2C466.3,25.1,467.8,25.9,470.6,25.8z"/>
<path class="st14" d="M170.3,26.7c-3.3-0.8-5-3-5.4-6.1c-0.4-3.3,0.1-6.6,3.3-8.4c3.9-2.1,10.6-1.5,11.8,3.8
	C181.7,23,178.7,28.1,170.3,26.7 M173.9,12.3c-2.7-0.4-4.4,0.4-5.4,2.8c-1,2.6-1.1,5.3,0,7.9c0.8,1.9,2.5,3,4.2,2.9
	c2-0.1,3.8-1.4,4.2-3.4c0.4-2,0.4-4.1,0.3-6.1C177.1,14.6,176,13.2,173.9,12.3z"/>
<path class="st11" d="M487.6,12.8c-3.2,0.4-4.4,1.7-4.4,4.8c0,2.9,0,5.9,0,8.9c-0.8,0-1.7,0-2.8,0c0-5,0-10,0-15c0.9,0,1.8,0,2.7,0
	c0.1,0.5,0.1,1,0.2,1.7c2-1.8,4.1-2.5,6.6-1.9c2.1,0.5,3.3,1.9,3.4,3.9c0.2,3.7,0,7.5,0,11.3c-1,0-1.8,0-2.7,0c0-3.2,0-6.4,0-9.5
	C490.6,14.7,489.8,13.5,487.6,12.8z"/>
<path class="st8" d="M438.8,150.6c2,0.7,0.6,2.2,1.4,3.7c-1-0.5-1.6-0.8-2.1-1c-1.2-0.4-2.4-0.9-3.6-1c-2.3-0.1-4.1,1.3-4.5,3.6
	c-0.3,1.5-0.3,3.1-0.1,4.6c0.5,2.7,3,4.3,5.7,3.6c1.4-0.4,2.8-1,4.1-1.5c0.6,2.7,0.5,3-2.4,3.9c-4.2,1.3-8.6-0.4-10.1-3.8
	c-1.3-3.1-0.7-8.5,1.4-10.5C431.6,149.2,435,149.1,438.8,150.6z"/>
<path class="st14" d="M70.6,21c-0.4-2.8-0.2-5.3,1.7-7.4c2.2-2.5,6.6-3.2,10-1.6c2.3,1,4.1,4.6,3.8,7.7c-0.3,3.1-1.4,5.9-4.6,6.9
	c-3.3,1.1-6.8,1-9.3-2C71.5,23.5,71.2,22.2,70.6,21 M82.7,22.4c0.8-2.7,0.8-5.3-0.5-7.9c-0.8-1.7-2.4-2.4-4.2-2.3
	c-1.8,0.1-3.2,1-3.8,2.9c-0.9,2.8-1,5.6,0.2,8.2c0.5,1,1.5,1.9,2.5,2.3C79.4,26.6,81.4,25.4,82.7,22.4z"/>
<path class="st14" d="M375.3,19.9c-0.1-1.4,0-2.7-0.3-4c-0.3-2-1.5-3.1-3.1-3.2c-2.1-0.1-3.8,1-4,3.2c-0.3,2.7-0.2,5.4-0.3,8.1
	c0,0.8,0.1,1.5,0.2,2.4c-0.9,0-1.8,0-2.8,0c0-4.9,0-10,0-15c0.8,0,1.7,0,2.6,0c0,0.6-0.1,1.1-0.1,1.9c1.6-1.7,3.3-2.4,5.3-2.4
	c3.2,0.1,5,1.9,5,5.2c0.1,3.4,0,6.7,0,10.2c-1.1,0-2,0-3,0C375.1,24.4,375.2,22.2,375.3,19.9z"/>
<path class="st13" d="M198.9,145.9c1.6-2.3,4.7-3,7.9-1.9c0,0.7,0,1.5,0,2.3c-5.2-0.2-5.9,0.3-5.7,3.8c1.6,0,3.1,0,4.8,0
	c0,0.9,0,1.6,0,2.5c-1.6,0-3.1,0-4.9,0c0,4.7,0,9.2,0,13.8c-1,0-1.9,0-2.9,0c0-4.6,0-9.1,0-13.7c-0.7-0.1-1.2-0.1-1.8-0.1
	c0-0.8,0-1.5,0-2.3c0.5-0.1,1-0.2,1.5-0.2C198.2,148.7,198.5,147.4,198.9,145.9z"/>
<path class="st6" d="M246.4,153.8c-0.3-0.1-0.4-0.2-0.6-0.3c-2.1-1.2-4.3-1.8-6.6-0.4c-2.4,1.6-2.4,4.1-2.1,6.5
	c0.4,3.7,3.3,5.4,6.8,4.2c1.1-0.4,2.2-1,3.3-1.5c0.2,3.6,0.7,3-2.6,4.1c-4.3,1.4-9-0.7-10.1-4.4c-1.5-4.9-0.5-9.8,4.1-11.8
	c3-1.3,5.8-0.6,8.7,0.7c0,0.8,0,1.6,0,2.4C247.3,153.6,246.8,153.7,246.4,153.8z"/>
<path class="st11" d="M101.9,19.3c0,2.5,0,4.8,0,7.2c-0.9,0-1.6,0-2.4,0c0-0.6,0-1.1,0-1.9c-0.3,0.3-0.6,0.5-0.8,0.7
	c-1.9,1.9-4.1,2.1-6.5,1.3c-2.4-0.8-3.1-2.8-3.1-5.1c0-3.3,0-6.6,0-10c1,0,1.9,0,2.7,0c0,3.1,0,6.2,0,9.3c0,2.7,1.1,4.3,3.2,4.4
	c2.2,0.2,3.9-1.3,4.2-3.9c0.2-2.1,0.1-4.2,0.2-6.3c0-1.2,0-2.3,0-3.5c0.9,0,1.7,0,2.5,0C101.9,14.1,101.9,16.6,101.9,19.3z"/>
<path class="st14" d="M150.9,166.4c-6.2,1.1-8-0.5-8-6.7c0-2.3,0-4.6,0-7c-0.6-0.1-1.2-0.1-1.8-0.2c0-0.8,0-1.6,0-2.4
	c0.6-0.1,1.1-0.1,1.8-0.2c0-1.6,0-3,0-4.6c1,0,1.8,0,2.8,0c0,1.5,0,3.1,0,4.7c1.9,0,3.8,0,5.6,0c0,0.9,0,1.6,0,2.5
	c-1.8,0-3.6,0-5.5,0c0,3.3-0.1,6.5,0,9.6c0.1,1.3,1.2,2,2.5,1.9c0.9-0.1,1.9-0.2,3.1-0.3C151.3,164.6,151.1,165.5,150.9,166.4z"/>
<path class="st8" d="M265.5,12.8c2.2-1.9,6.4-2.3,9-0.8c2.7,1.5,2.8,4.1,2.6,7c-3.6,0-7.1,0-10.7,0c-0.3,2.5,0.3,4.6,2.4,5.9
	c2.9,1.8,5.4,0.4,7.7-1.5c0.1,0.1,0.3,0.2,0.4,0.3c-0.4,0.7-0.7,1.7-1.3,2.1c-4.7,2.8-11.8,1.3-12.4-5.6
	C263,17.5,263.5,14.9,265.5,12.8 M274.3,15.4c-0.9-2.5-2.2-3.5-4.2-3.2c-2.1,0.3-3.5,2.4-3.7,5.4c2.6,0,5.3,0,8,0
	C274.4,16.9,274.4,16.3,274.3,15.4z"/>
<path class="st14" d="M402.5,19c-3.5,0-6.8,0-10.1,0c-0.5,2.5,0.3,4.7,2.3,5.8c2.9,1.7,5.4,0.7,7.7-1.5c0.4,1.3,0,2-1,2.6
	c-2.7,1.6-7,1.7-9.3-0.2c-2.8-2.3-3.3-5.4-2.7-8.7c1.2-6,6.2-6.7,10.6-5.1c2.3,0.9,3.8,4.5,3,6.9C403,18.8,402.8,18.9,402.5,19
	 M400.1,17.6c0.6-1.7,0.2-3.4-1.1-4.6c-1.2-1-2.5-1.1-3.9-0.5c-1.7,0.8-2.8,2.9-2.6,5.1C394.9,17.6,397.3,17.6,400.1,17.6z"/>
<path class="st8" d="M41.4,12c1.8-0.3,3.6-0.9,5.3-0.8c4,0.3,5.9,3.2,5.5,7.7c-3.6,0-7.3,0-11,0c-0.2,2.6,0.5,4.6,2.5,5.9
	c2.9,1.8,5.4,0.5,7.8-1.7c0.2,1.4-0.2,2.3-1.3,2.8c-3.5,1.8-7.7,1.3-10.1-1.3c-1.6-1.7-2-3.8-1.8-6C38.6,16.1,38.9,13.6,41.4,12
	 M49.3,15.7c-1-3.3-3.4-4.6-5.7-2.9c-1.6,1.1-2.2,2.8-2.2,4.7c2.8,0,5.4,0,8.1,0C49.4,17,49.4,16.5,49.3,15.7z"/>
<path class="st9" d="M257,11.3c3.7,1,5.1,3.3,4.8,7.6c-3.6,0-7.2,0-10.8,0c-0.5,2.5,0.5,4.8,2.5,5.9c2.9,1.6,5.3,0.7,7.5-1.5
	c0.4,1.5,0.3,1.8-0.8,2.4c-3.7,2.3-8.5,1.5-10.9-1.8c-2.4-3.3-1.7-9.2,1.4-11.7C252.4,10.9,254.7,10.9,257,11.3 M251.6,17.6
	c2.5,0,5,0,7.8,0c-0.4-1.4-0.6-2.6-1.1-3.6c-0.8-1.8-2.8-2.3-4.6-1.5C251.9,13.4,250.6,16,251.6,17.6z"/>
<path class="st11" d="M418.4,27c-2.5-0.4-3.5-1.4-3.8-3.4c-0.3-2.2,0.5-3.5,2.7-4.3c1.3-0.5,2.7-0.6,4-1c1-0.3,2.5-0.1,2.5-1.9
	c0-1.8-0.9-3.3-2.4-3.7c-1.6-0.4-3.1,0-4.2,1.2c-0.3,0.3-0.4,0.7-0.7,1.2c-0.7-2.2-0.6-2.5,0.8-3.2c2.2-1,4.5-1.2,6.8-0.3
	c1.7,0.7,2.4,2.3,2.4,4c0,2.5-0.1,5.1-0.2,7.6c0,1.3,0.3,2.3,1.8,2.3c-1,1.7-3.2,1.4-4.5-0.5C422.2,26.4,420.6,27.2,418.4,27
	 M418.2,24.9c1.5,1.2,2.9,0.8,4.2-0.2c2.1-1.5,1.1-3.7,1.4-5.8c-1.5,0.3-2.6,0.5-3.7,0.8C417.4,20.5,416.8,22.1,418.2,24.9z"/>
<path class="st15" d="M19.3,4.6c0.8,0,1.4,0,2.1,0c0,0.7,0,1.4,0,2c-2.2,0-4.4,0-6.8,0c0,6.6,0,13.2,0,19.9c-0.9,0-1.9,0-3,0
	c0-6.6,0-13.2,0-19.9c-2.3,0-4.5,0-6.8,0c0-0.5,0-1.2,0-2C9.6,4.6,14.4,4.6,19.3,4.6z"/>
<path class="st11" d="M118.9,26.6c-0.9,0-1.7,0-2.4,0c0-5.1,0-10.1,0-15.1c0.8,0,1.6,0,2.5,0c0,0.6,0,1.1,0,1.2
	c1.6-0.5,3.2-1.4,4.9-1.6c3.1-0.3,5.1,1.4,5.3,4.4c0.2,3.6,0.1,7.3,0.1,10.9c-1.1,0-1.9,0-2.7,0c0-3.4,0.1-6.7,0-10
	c-0.1-2.4-1.4-3.7-3.2-3.7c-2.2-0.1-3.9,1.1-4.1,3.4c-0.3,2.7-0.1,5.4-0.2,8.1C119.1,25.1,119.1,25.9,118.9,26.6z"/>
<path class="st9" d="M133.2,20.6c1.6-0.7,3.1-1.4,4.6-2c0.3-0.1,0.8-0.2,1.1-0.2c2.7-0.5,3.1-0.9,2.7-2.9c-0.3-1.9-2.1-3.3-4-2.8
	c-1.3,0.3-2.4,1.2-3.7,1.8c-0.4-0.8-0.4-1.6,0.8-2.2c2.4-1.4,5-1.6,7.5-0.4c1.4,0.6,2.1,2,2.1,3.5c0,2.3,0,4.5-0.1,6.8
	c-0.1,2.4,0.2,3.1,1.8,3.6c-0.9,1.5-2.9,1.3-4.4-0.5c-3.6,2.1-6.2,2.3-7.9,0.7C132.3,24.6,132.1,22.8,133.2,20.6 M141.7,22
	c0-1,0-2,0-3.1c-1,0.2-2,0.4-2.9,0.6c-0.5,0.1-1.1,0.1-1.4,0.4c-0.8,0.7-1.7,1.5-2,2.4c-0.4,1.7,0.8,3.2,2.4,3.3
	C139.5,25.7,141.5,24.1,141.7,22z"/>
<path class="st8" d="M317.6,26.9c-2.3-0.9-3.2-2.1-3.1-4.1c0.1-1.8,1.1-3.1,3.2-3.8c1.2-0.4,2.5-0.5,3.7-0.8
	c0.9-0.3,2.2-0.1,2.4-1.6c0.2-1.5-0.7-3.2-2.1-3.9c-1.4-0.6-3.4-0.2-4.6,1c-0.3,0.3-0.5,0.6-0.8,0.9c-0.6-1.6-0.6-2,0.8-2.6
	c2.3-1.1,4.7-1.4,7-0.3c1.4,0.7,2.2,2,2.1,3.7c0,2.6,0,5.2,0,7.8c0,1.9,0,1.9,1.8,2.5c-1.1,1.4-3.1,1.2-4.6-0.8
	C322,26.9,319.9,27.2,317.6,26.9 M322.5,24.6c2.2-1.5,0.6-3.8,1.7-5.9c-2,0.5-3.4,0.8-4.8,1.3c-1.1,0.4-2,1.2-2,2.6
	C317.3,25.3,319.5,26.3,322.5,24.6z"/>
<path class="st7" d="M280.3,150.1c0.7,0,1.2,0,1.9,0c0,3.6,0,7,0,10.4c0,2.2,0,4.3,0,6.5c0,3.8-1.9,5.7-5.8,5.6
	c-0.9,0-1.9-0.1-2.9-0.2c0-1,0-1.9,0-2.9c0.8,0.2,1.6,0.4,2.4,0.5c1.7,0.2,3.1-0.7,3.2-2.4c0.1-5,0-9.9,0-15c-0.9,0-1.9,0-3,0
	c0-0.8,0-1.6,0-2.6C277.4,150.1,278.8,150.1,280.3,150.1z"/>
<path class="st16" d="M191.2,152.8c-0.5,0.2-0.9,0.3-1.3,0.3c-0.9,0.1-1.9,0-2.8,0.2c-2.9,0.7-3.2,1.1-3.2,4.2c0,2.9,0,5.9,0,8.9
	c-1,0-1.9,0-3.1,0c0-2.7,0-5.4,0-8.1c0-2.7,0-5.3,0-8.1c1,0,2,0,3,0c0.1,0.6,0.1,1.2,0.2,2c2.1-1.6,4.4-2.6,7.2-1.9
	C191.2,151.1,191.2,151.9,191.2,152.8z"/>
<path class="st6" d="M63.6,28.5c0.4-2.3,1-4.4,1-6.6c0-5.4-0.2-10.8-0.3-16.3c0-0.3,0-0.5,0-0.9c1.1,0,2,0,3.2,0
	c-0.1,1.3-0.2,2.6-0.2,3.9c0,5.4,0,10.8,0,16.1c0,3.5-2.6,6.2-5.8,6.2c-0.3,0-0.6-0.2-1-0.3C61.6,29.9,62.6,29.3,63.6,28.5z"/>
<path class="st14" d="M186.3,13.3c0,4.5,0,8.8,0,13.2c-0.8,0-1.7,0-2.7,0c0-4.5,0-9,0-13.6c-0.6,0-1.3,0-2,0c-0.1-1.2-0.1-1.2,2-1.4
	c0.5-6,3.5-9.7,6.8-9.1c0,0.5,0.1,0.9,0.1,1.4c0,0.4-0.1,0.9-0.1,1.3c-4.1-0.8-5.2,1-4,6.3c1,0.2,2.1,0.4,3.1,0.6c0,0,0,0.6-0.1,0.7
	C188.3,12.9,187.3,13,186.3,13.3z"/>
<path class="st9" d="M435.3,11.6c2.9-0.8,5.6-0.5,8.2,0.7c-0.3,0.8-0.5,1.6-0.8,2.3c-0.2,0.2-0.4,0.4-0.6,0.5
	c-0.3-0.5-0.4-1.2-0.8-1.6c-2.3-2.2-5.7-1.6-7.3,1.2c-1,1.9-1.2,3.9-0.9,6c0.8,4.8,5.2,6.5,9.1,3.5c0.3-0.3,0.6-0.6,1-0.9
	c0.3,1.9,0.3,2-1.3,2.8c-5.1,2.5-10.4,0.3-11.7-4.7C429,16.9,431.3,12.5,435.3,11.6z"/>
<path class="st7" d="M340.3,156.4c0,3.4,0,6.7,0,10c-1,0-1.8,0-2.8,0c0-5.4,0-10.8,0-16.2c0.9,0,1.8,0,2.7,0c0,0.6,0.1,1.2,0.1,2.1
	c2.2-1.8,4.4-2.6,7.1-2c0,0.9,0,1.9,0,2.6c-1.9,0.3-3.8,0.5-5.6,1C340.9,154.1,340,154.9,340.3,156.4z"/>
<path class="st7" d="M357.1,13c0-2.8,0-5.5,0-8.2c0.9,0,1.9,0,3,0c0,7.2,0,14.5,0,21.8c-1,0-2,0-3,0C357.1,22.1,357.1,17.6,357.1,13
	z"/>
<path class="st12" d="M342.9,6c0,6.9,0,13.7,0,20.6c-0.9,0-1.8,0-2.8,0c0-8,0-16,0-24c0.9,0,1.8,0,2.8,0
	C342.9,3.6,342.9,4.7,342.9,6z"/>
<path class="st7" d="M402.9,159.6c0,2.3,0,4.5,0,6.7c-1,0-1.8,0-2.8,0c0-7.5,0-14.9,0-22.5c0.8,0,1.7,0,2.8,0
	C402.9,149.1,402.9,154.3,402.9,159.6z"/>
<path class="st11" d="M283.3,18c0,2.9,0,5.7,0,8.6c-0.7,0-1.7,0-2.7,0c0-8,0-15.9,0-24c0.9,0,1.9,0,2.7,0
	C283.3,7.6,283.3,12.7,283.3,18z"/>
<path class="st13" d="M152.5,22.5c0,1.4,0,2.7,0,4.1c-0.9,0-1.9,0-2.9,0c0-8,0-15.9,0-24c1,0,1.9,0,2.8,0
	C152.4,9.2,152.4,15.7,152.5,22.5z"/>
<path class="st12" d="M447.3,7.9c0.7-0.3,1.3-0.5,2.1-0.9c0,1.6,0,3.1,0,4.7c1.1,0,2.1,0,3,0c0.3,1.3,0.3,1.3-3.1,1.5
	c0,3.6-0.1,7.2,0.1,10.9c0.1,1.5,0.9,1.7,3.7,1.8c0,0.2-0.1,0.6-0.1,0.6c-1.6,0.1-3.3,0.4-4.8,0c-1.5-0.4-1.8-2-1.8-3.4
	c0-2.9,0.1-5.8,0.2-8.6c0-0.4,0-0.8,0-1.2c-0.7,0-1.3-0.1-2-0.1c0-0.5,0-0.9,0-1.4c0.7,0,1.3,0,1.8,0
	C447.4,10.5,445.6,8.9,447.3,7.9z"/>
<path class="st7" d="M382.5,17.3c0-1.4,0-2.7,0-4c-0.8-0.1-1.4-0.1-2.1-0.2c0-0.4,0-0.8,0-1.3c0.6-0.1,1.3-0.1,1.9-0.2
	c0-3.6,0-3.6,2.8-4.5c0,1.5,0,3,0,4.6c1.1,0,2.1,0,3,0c0.3,1.4,0.3,1.4-0.8,1.4c-0.8,0-1.5,0-2.6,0c0,3.2-0.1,6.3,0,9.4
	c0.1,2.9,0.9,3.4,4.1,3.3c0,0.2,0,0.6-0.1,0.6c-1.6,0.1-3.3,0.4-4.8,0.1c-1.4-0.3-1.6-1.8-1.7-3.1C382.3,21.5,382.4,19.5,382.5,17.3
	z"/>
<path class="st10" d="M111.5,11.4c0.9-0.2,1.6-0.3,2.6-0.4c-0.1,1.1-0.2,2-0.3,2.8c-3.6-0.4-4.8,0.6-4.8,4.5c0,2.7,0,5.4,0,8.2
	c-0.9,0-1.7,0-2.6,0c0-4.9,0-9.9,0-15c0.8,0,1.6,0,2.5,0c0,0.6,0,1.3,0,2C109.8,12.9,110.6,12.2,111.5,11.4z"/>
<path class="st10" d="M408.7,21.3c0,1.8,0,3.5,0,5.2c-0.8,0-1.7,0-2.6,0c0-5,0-9.9,0-15c0.9,0,1.7,0,2.6,0c0,0.7,0,1.4,0,2.4
	c1.3-2,2.7-3.2,5-2.7c0,0.9,0,1.7,0,2.7c-0.4-0.1-0.7-0.1-1-0.2c-1.7-0.5-3.1,0-3.5,1.7C408.8,17.4,408.8,19.3,408.7,21.3z"/>
<path class="st12" d="M109.9,160c0,2.2,0,4.3,0,6.4c-1,0-1.8,0-2.8,0c0-5.4,0-10.7,0-16.2c0.8,0,1.7,0,2.8,0
	C109.9,153.4,109.9,156.6,109.9,160z"/>
<path class="st11" d="M294.3,8.2c-2.5,6.4-4.9,12.6-7.4,18.9c-0.5,0-1,0-1.8,0c3-7.8,5.9-15.5,8.8-23.1c0.6,0,1.1,0,1.7,0
	C295.2,5.4,294.8,6.8,294.3,8.2z"/>
<path class="st7" d="M455.5,12.7c0-0.5-0.1-0.8-0.1-1.2c1,0,1.9,0,2.9,0c0,4.9,0,9.9,0,15c-0.8,0-1.8,0-2.8,0
	C455.5,22,455.5,17.4,455.5,12.7z"/>
<path class="st7" d="M331.7,14.1c0-0.9,0-1.7,0-2.5c0.9,0,1.8,0,2.7,0c0,2.5,0,5,0,7.5c0,2.5,0,4.9,0,7.5c-0.7,0-1.6,0-2.6,0
	C331.8,22.4,331.8,18.3,331.7,14.1z"/>
<path class="st12" d="M92.7,163c1.2-0.4,2.4-0.7,3.8-1c0,1.7,0,2.9,0,4.3c-1.2,0-2.5,0-3.8,0C92.7,165.3,92.7,164.2,92.7,163z"/>
<path class="st16" d="M417.2,165.5c-0.3,0.4-0.6,0.9-0.9,1c-0.9,0.1-1.8,0-2.7,0c0-1.4,0-2.7,0-4.1c1.2,0,2.3,0,3.6,0
	C417.2,163.4,417.2,164.4,417.2,165.5z"/>
<path class="st16" d="M108.4,144.4c0.6,0,1.1,0.1,1.6,0.1c0,1,0,1.9,0,2.9c-1,0-2,0-3,0C106.5,144.6,106.6,144.5,108.4,144.4z"/>
<path class="st16" d="M280.4,147.5c-1,0.1-1.5-0.1-1.4-1.1c0.1-0.6,0-1.2,0-1.9c1.1,0,2.2,0,3.3,0c0,1,0,1.9,0,3
	C281.7,147.5,281.1,147.5,280.4,147.5z"/>
<path class="st11" d="M333.3,7.6c-1.4-0.1-2.2-0.9-1.8-2c0.2-0.6,1.2-1.3,1.8-1.4c1.1-0.1,1.7,0.8,1.5,1.9
	C334.7,6.7,333.9,7.1,333.3,7.6z"/>
<path class="st14" d="M458.7,6.2c-0.7,0.6-1.3,1.2-2.1,1.3c-0.4,0.1-1.2-0.8-1.3-1.3c-0.1-0.5,0.3-1.4,0.8-1.8
	C457.1,3.6,458.3,4.4,458.7,6.2z"/>
<path class="st17" d="M374,95.8c0.3,0,0.7,0.2,0.7,0.3c-0.2,5.1-0.2,10.2-0.8,15.2c-0.6,4.6-6.7,7.2-10.5,4.4
	c-1.1-0.8-2-2.5-2.3-3.8c-1.5-8.2,1.6-12.5,9.8-14.9C371.9,96.7,372.9,96.2,374,95.8z"/>
<path class="st17" d="M475.7,92.1c-3.1,0-6,0-9.2,0c0.4-5.7,0.7-11.3,4.6-15.8c2.2-2.6,6.9-2.1,8.6,0.9c2.1,3.6,2.6,7.7,3,11.8
	c0.1,1,0.1,2,0.2,3.2C480.4,92.1,478.1,92.1,475.7,92.1z"/>
<path class="st17" d="M239.7,92.1c-2.1,0-4,0-6.2,0c0.3-5.5,0.6-10.8,4-15.2c3-3.8,8.1-2.9,10.1,1.8c1.4,3.2,2.4,9.6,2.1,13.4
	C246.4,92.1,243.1,92.1,239.7,92.1z"/>
<path class="st18" d="M300.2,14.3c0-1.5-0.1-2.8,0-4.2c0-1.3,0.1-2.5,0.3-4.3c1.8,0.2,3.8,0,5.4,0.6c2.8,1,3.2,4.9,0.8,6.9
	C304.8,14.9,302.6,15.2,300.2,14.3z"/>
<path class="st19" d="M381.3,163.9c-1.3-0.5-1.8-1.4-1.7-2.7c0.1-1.4,1.1-2.2,2.3-2.5c1.8-0.4,3.7-0.6,5.8-0.9c0,1.5,0,2.8,0,4.1
	c0,0.3-0.4,0.8-0.7,1C385.2,163.8,383.4,164.5,381.3,163.9z"/>
<path class="st20" d="M221.2,158.1c0.6-0.1,1-0.1,1.6-0.2c0,1.4,0,2.6,0,3.9c0,0.3-0.2,0.6-0.4,0.9c-1.2,1.2-4.9,1.9-6.3,1.1
	c-0.6-0.4-1.3-1.4-1.2-2.1c0.1-1,0.7-2.3,1.4-2.6C217.8,158.4,219.5,158.4,221.2,158.1z"/>
<path class="st20" d="M166.5,152.2c2.4,0.8,3.1,1.6,3.2,4c-2.9,0-5.9,0-8.8,0C161.1,153.4,162.8,152.1,166.5,152.2z"/>
<path class="st19" d="M259.7,156.3c-1,0-1.8,0-2.6,0c0.2-2.6,2-4.2,4.8-4.2c2.6,0,3.9,1.3,4.1,4.2
	C263.9,156.3,261.9,156.3,259.7,156.3z"/>
<path class="st18" d="M450.9,153.5c2.6-2.6,7.3-1.2,7.6,2.8c0.1,1.7,0,3.5-0.4,5.2c-0.4,1.7-2.1,2.7-3.9,2.8c-2.1,0-3.6-0.8-4.2-2.6
	C449.2,158.9,449,156.2,450.9,153.5z"/>
<path class="st18" d="M302.8,158.6c-0.2,4.1-1.8,5.9-5.1,5.7c-1.6-0.1-2.8-0.8-3.5-2.4c-0.9-2.4-0.9-4.9,0-7.3
	c0.6-1.6,2.2-2.5,3.9-2.5c1.8,0.1,3.6,1.3,4.1,2.9C302.6,156.1,302.7,157.3,302.8,158.6z"/>
<path class="st18" d="M470.5,25.8c-2.6,0.1-4.1-0.7-5-2.9c-1-2.7-1-5.5,0.2-8.2c0.8-1.7,2.2-2.5,4-2.5c1.8,0,3.2,0.9,3.9,2.6
	c1.2,2.8,1.2,5.7,0,8.6C473.1,24.6,472.1,25.5,470.5,25.8z"/>
<path class="st18" d="M174.1,12.4c1.9,0.8,3,2.2,3.2,4.1c0.1,2,0.1,4.1-0.3,6.1c-0.4,2.1-2.2,3.3-4.2,3.4c-1.7,0.1-3.4-1-4.2-2.9
	c-1.1-2.6-1-5.3,0-7.9C169.5,12.7,171.3,11.9,174.1,12.4z"/>
<path class="st18" d="M82.7,22.5c-1.3,2.9-3.3,4-5.8,3.1c-1-0.4-2.1-1.4-2.5-2.3c-1.2-2.6-1.1-5.4-0.2-8.2c0.6-1.9,2-2.8,3.8-2.9
	c1.8-0.1,3.4,0.6,4.2,2.3C83.5,17.1,83.5,19.7,82.7,22.5z"/>
<path class="st19" d="M274.3,15.5c0.1,0.7,0.1,1.3,0.2,2c-2.7,0-5.4,0-8,0c0.2-2.9,1.6-5,3.7-5.4C272.1,11.9,273.4,12.9,274.3,15.5z
	"/>
<path class="st18" d="M399.9,17.6c-2.6,0-5,0-7.5,0c-0.2-2.2,0.9-4.3,2.6-5.1c1.4-0.6,2.7-0.5,3.9,0.5
	C400.3,14.2,400.7,15.9,399.9,17.6z"/>
<path class="st19" d="M49.3,15.9c0.1,0.6,0.1,1.1,0.2,1.7c-2.7,0-5.3,0-8.1,0c0.1-1.9,0.7-3.5,2.2-4.7
	C45.9,11.2,48.3,12.4,49.3,15.9z"/>
<path class="st19" d="M251.4,17.6c-0.8-1.6,0.5-4.2,2.3-5.1c1.8-0.9,3.8-0.3,4.6,1.5c0.5,1,0.7,2.2,1.1,3.6
	C256.6,17.6,254.1,17.6,251.4,17.6z"/>
<path class="st20" d="M418.2,24.8c-1.4-2.7-0.7-4.3,2-5.1c1.1-0.3,2.2-0.5,3.7-0.8c-0.3,2.1,0.7,4.3-1.4,5.8
	C421.2,25.7,419.7,26.1,418.2,24.8z"/>
<path class="st20" d="M141.7,22.2c-0.2,1.9-2.1,3.6-3.9,3.4c-1.6-0.1-2.8-1.6-2.4-3.3c0.2-0.9,1.2-1.7,2-2.4
	c0.3-0.3,0.9-0.3,1.4-0.4c0.9-0.2,1.8-0.4,2.9-0.6C141.7,20,141.7,21,141.7,22.2z"/>
<path class="st20" d="M322.4,24.7c-2.8,1.6-5.1,0.6-5-2.1c0-1.4,0.9-2.2,2-2.6c1.4-0.5,2.8-0.8,4.8-1.3
	C323.1,20.8,324.7,23.1,322.4,24.7z"/>
</svg>
