<svg viewBox="0 0 567.51 105.24" xmlns="http://www.w3.org/2000/svg"><path d="m26.41 13.36-20.69 76.79h48.95l4.41-17.02h-18.38l15.96-59.77z" fill="#af2024"/><path d="m291.84 13.47-7.04 76.78h-31.2l2.73-16.7h-8.72l-6.3 16.7h-31.2l34.36-76.78zm-28.36 17.33s-11.13 25.94-10.4 26.05c.74.1 6.63 0 6.63 0z" fill="#af2024"/><path d="m290.37 90.25 20.9-76.78h38.23v31.35l16.91-31.35h38.13l-20.48 76.78h-27.1l11.49-42.46-22.52 42.46s-17.12.21-17.23 0c-.1-.21.11-41.8.11-41.8l-11.45 41.8z" fill="#af2024"/><path d="m95.96 12.84h36.55s17.54-1.26 13.23 14.92-12.75 47.37-12.75 47.37-3.42 15.84-18.55 15.53-38.23 0-38.23 0-16.91.44-12.29-15.95 13.66-48.84 13.66-48.84 2.31-11.51 18.38-13.03m9.65 21.22-9.35 33.93s-1.89 5.15 2.21 5.25 4.73-2.52 5.67-5.25c.95-2.73 9.03-33.4 9.03-33.4s1.37-3.99-2.52-4.52-5.04 3.99-5.04 3.99" fill="#af2024"/><path d="m155.95 13.47h51.76s11.77-.26 12.95 8.4c1.17 8.66-4.41 18.38-4.83 18.91s-3.26 6.2-13.02 8.3c0 0 9.03 2.94 8.19 10.4s-7.04 30.78-7.04 30.78h-30.57l7.28-29.1s.55-2.62-2.18-2.73c-2.73-.1-4.62-.1-4.62-.1l-8.36 31.93h-30.25l20.69-76.78zm25.4 17.33-2.94 10.92s3.78.21 5.09 0c1.32-.21 2.58-.31 4.05-4.73 1.47-4.41.04-5.99-1.03-6.2s-5.17 0-5.17 0" fill="#af2024"/><g fill="#8a8c8e"><path d="m439.41 9.48 107.25 89.94h15.51l-12.23-9.13 13.96.02-23.85-16.02-11.98.02-14.17-10.55h10.8l-18.34-12.31h-8.8l-10.12-7.44h7.89l-11.92-8.02h-6.89l-6.86-5.05h6.26l-7.94-5.35h-5.6l-5.91-4.35h5.06l-4.76-3.21h-4.67l-4.06-2.98h4.3l-2.38-1.6h-4.1l-5.4-3.97z"/><path d="m435.33 63.75h61.11l-13.59-12.3h-49z"/><path d="m431.99 35.99.96 8.02h41.69l-8.86-8.02z"/><path d="m430.73 25.59.65 5.35h28.83l-5.91-5.35z"/><path d="m429.82 18.03.39 3.21h19.29l-3.54-3.21z"/><path d="m429.27 13.45.2 1.6h13.2l-1.78-1.6z"/><path d="m518.33 83.58-10.26-9.29h-71.47l1.12 9.29.87 6.77h86.96z"/><path d="m426.46 9.48-.54 3.97h-4.1l-.42 1.6h4.3l-.4 2.98h-4.67l-.84 3.21h5.07l-.59 4.35h-5.61l-1.39 5.35h6.27l-.69 5.05h-6.89l-2.08 8.02h7.88l-1.01 7.44h-8.8l-3.35 12.31h10.48l-1.07 10.53h-12.38l-4.18 16h14.95l-.93 9.23h14.92l-2.87-90.04z"/><path d="m476.44 14.86c.33-.74.77-1.39 1.34-1.93.56-.55 1.22-.98 1.97-1.29s1.54-.47 2.39-.47 1.63.16 2.38.47c.74.31 1.39.74 1.95 1.29s1 1.19 1.33 1.93.49 1.55.49 2.41-.16 1.7-.49 2.45-.77 1.4-1.33 1.95-1.21.98-1.95 1.29-1.54.46-2.38.46-1.64-.15-2.39-.46-1.4-.74-1.97-1.29c-.56-.55-1.01-1.2-1.34-1.95s-.49-1.57-.49-2.45.16-1.67.49-2.41m1.01 4.5c.26.64.61 1.2 1.07 1.67.45.47.99.84 1.61 1.11s1.29.4 2.01.4 1.37-.13 1.98-.4 1.15-.64 1.6-1.11.81-1.03 1.07-1.67.39-1.34.39-2.09-.13-1.42-.39-2.05-.61-1.18-1.07-1.65c-.45-.46-.99-.83-1.6-1.1s-1.27-.4-1.98-.4-1.39.13-2.01.4-1.15.64-1.61 1.1c-.45.46-.81 1.01-1.07 1.65-.26.63-.39 1.32-.39 2.05s.13 1.45.39 2.09m5.06-5.65c.85 0 1.48.17 1.89.51s.62.85.62 1.54c0 .64-.18 1.12-.54 1.42s-.81.48-1.35.53l2.05 3.16h-1.2l-1.95-3.08h-1.18v3.08h-1.12v-7.17h2.77zm-.49 3.18c.25 0 .49 0 .71-.02.23-.02.42-.06.6-.14s.31-.19.42-.35c.1-.16.16-.38.16-.67 0-.24-.05-.43-.14-.57s-.21-.25-.36-.33-.32-.13-.51-.15c-.19-.03-.38-.04-.56-.04h-1.48v2.28h1.16z"/></g></svg>