<?xml version="1.0" encoding="utf-8"?>
<!-- Generator: Adobe Illustrator 27.6.1, SVG Export Plug-In . SVG Version: 6.00 Build 0)  -->
<svg version="1.1" xmlns="http://www.w3.org/2000/svg" xmlns:xlink="http://www.w3.org/1999/xlink" x="0px" y="0px"
	 viewBox="0 0 354.2 42.5" style="enable-background:new 0 0 354.2 42.5;" xml:space="preserve">
<style type="text/css">
	.st0{fill:#FFFFFF;}
</style>
<g id="Background">
</g>
<g id="Guides">
</g>
<g id="RASTERLINIEN">
</g>
<g id="Foreground">
	<g>
		<path d="M354.2,35.4c0,3.9-3.2,7.1-7.1,7.1H7.1c-3.9,0-7.1-3.2-7.1-7.1V7.1C0,3.2,3.2,0,7.1,0h340c3.9,0,7.1,3.2,7.1,7.1V35.4z"/>
		<g>
			<path class="st0" d="M11.3,7h14.8c7.8,0,10.5,5.4,10.5,9.3c0,6.6-4.7,9.7-11.2,9.7h-5.2v8.3h-8.8V7z M20.2,19.6h3.4
				c2.3,0,4.7-0.2,4.7-2.9c0-2.5-2-2.6-4.2-2.6h-3.9V19.6z"/>
			<path class="st0" d="M37.6,7h8v27.3h-8V7z"/>
			<path class="st0" d="M68.3,29.9c0,1.5,0.1,3.2,1,4.4h-8.1c-0.2-0.5-0.3-1.3-0.3-1.9h-0.1c-1.7,1.8-4.1,2.4-6.7,2.4
				c-4,0-7.4-1.8-7.4-6c0-6.3,7.7-6,11.8-6.8c1.1-0.2,2.2-0.5,2.2-1.8c0-1.3-1.3-1.8-2.6-1.8c-2.5,0-2.9,1.2-3,2h-7.4
				c0.2-5.6,5.8-6.5,10.7-6.5c10,0,9.9,3.9,9.9,7.8V29.9z M60.7,25.4c-1,0.5-2,0.7-3.1,1c-1.8,0.4-2.7,0.8-2.7,2.1
				c0,0.9,1,1.8,2.5,1.8c1.8,0,3.2-1,3.3-3.1V25.4z"/>
			<path class="st0" d="M82.2,20.2c0-0.7-0.4-1.1-0.9-1.5c-0.5-0.4-1.1-0.6-1.8-0.6c-1.1,0-2.4,0.2-2.4,1.5c0,0.6,0.5,0.8,0.9,1
				c1.3,0.5,4.3,0.7,7,1.5c2.7,0.8,5,2.3,5,5.5c0,5.5-5.5,7-10.6,7c-4.9,0-10.3-1.9-10.4-7h7.6c0,0.7,0.4,1.3,1,1.8
				c0.4,0.3,1.2,0.6,2.1,0.6c1,0,2.7-0.4,2.7-1.5c0-1.1-0.7-1.5-4.4-2.1c-6.1-1-8.5-2.8-8.5-6.2c0-5,5.7-6.3,9.8-6.3
				c4.5,0,9.9,1.2,10.1,6.3H82.2z"/>
			<path class="st0" d="M103.3,20.2c0-0.7-0.4-1.1-0.9-1.5c-0.5-0.4-1.1-0.6-1.8-0.6c-1.1,0-2.4,0.2-2.4,1.5c0,0.6,0.5,0.8,0.9,1
				c1.3,0.5,4.3,0.7,7,1.5c2.7,0.8,5,2.3,5,5.5c0,5.5-5.5,7-10.6,7c-4.9,0-10.3-1.9-10.4-7h7.6c0,0.7,0.4,1.3,1,1.8
				c0.4,0.3,1.2,0.6,2.1,0.6c1,0,2.7-0.4,2.7-1.5c0-1.1-0.7-1.5-4.4-2.1c-6.1-1-8.5-2.8-8.5-6.2c0-5,5.7-6.3,9.8-6.3
				c4.5,0,9.9,1.2,10.1,6.3H103.3z"/>
			<path class="st0" d="M118.9,26.1c0.2,2.3,1.6,3.9,4.1,3.9c1.3,0,2.7-0.5,3.3-1.4h7.4c-1.6,4.3-6,6.3-10.7,6.3
				c-6.7,0-11.7-3.8-11.7-10.4c0-5.8,4.4-10.5,11-10.5c8.3,0,11.9,4.4,11.9,12.1H118.9z M126.5,22.2c0-1.8-1.4-3.3-3.5-3.3
				c-2.4,0-3.7,1.2-4.1,3.3H126.5z"/>
			<path class="st0" d="M135.3,14.5h7.6v3.2h0.1c1.3-2.4,3-3.7,5.9-3.7c0.8,0,1.6,0.1,2.3,0.3V21c-0.8-0.3-1.5-0.5-3.1-0.5
				c-3.1,0-4.8,1.8-4.8,6v7.8h-8V14.5z"/>
			<path class="st0" d="M169.9,7h8.6l10.4,27.3h-9.2l-1.2-3.9h-9.1l-1.3,3.9h-8.9L169.9,7z M176.8,24.6l-2.6-8.4h-0.1l-2.8,8.4
				H176.8z"/>
			<path class="st0" d="M189.1,14.5h7.7v2.6h0.1c1.6-2.3,3.9-3.1,6.8-3.1c2.2,0,4.7,1.1,5.6,3.1c0.3-0.2,1.9-3.1,7.1-3.1
				c5.3,0,7.2,3.5,7.2,6.7v13.6h-8V23.6c0-1.9-0.2-3.6-2.6-3.6c-2,0-2.7,1.5-2.7,3.6v10.8h-8V23.6c0-1.9-0.2-3.6-2.6-3.6
				c-2,0-2.7,1.5-2.7,3.6v10.8h-8V14.5z"/>
			<path class="st0" d="M232.5,26.1c0.2,2.3,1.6,3.9,4.1,3.9c1.3,0,2.7-0.5,3.3-1.4h7.4c-1.6,4.3-6,6.3-10.7,6.3
				c-6.7,0-11.7-3.8-11.7-10.4c0-5.8,4.4-10.5,11-10.5c8.3,0,11.9,4.4,11.9,12.1H232.5z M240.1,22.2c0-1.8-1.4-3.3-3.5-3.3
				c-2.4,0-3.7,1.2-4.1,3.3H240.1z"/>
			<path class="st0" d="M249.1,14.5h7.6v3.2h0.1c1.3-2.4,3-3.7,5.9-3.7c0.8,0,1.6,0.1,2.3,0.3V21c-0.8-0.3-1.5-0.5-3.1-0.5
				c-3.1,0-4.8,1.8-4.8,6v7.8h-8V14.5z"/>
			<path class="st0" d="M273.5,12.3h-8V7h8V12.3z M265.6,14.5h8v19.9h-8V14.5z"/>
			<path class="st0" d="M289.3,22c-0.1-0.8-0.4-1.5-0.9-1.9c-0.5-0.4-1.2-0.7-2-0.7c-3.1,0-3.5,2.5-3.5,4.9c0,2.4,0.4,4.9,3.5,4.9
				c1.7,0,2.9-1.3,3.1-2.9h7.6c-0.8,5.4-5.2,8.4-10.8,8.4c-6.3,0-11.3-4.1-11.3-10.4c0-6.3,5-10.4,11.3-10.4c5.5,0,10.1,2.6,10.6,8
				H289.3z"/>
			<path class="st0" d="M319,29.9c0,1.5,0.1,3.2,1,4.4h-8.1c-0.2-0.5-0.3-1.3-0.3-1.9h-0.1c-1.7,1.8-4.1,2.4-6.7,2.4
				c-4,0-7.4-1.8-7.4-6c0-6.3,7.7-6,11.8-6.8c1.1-0.2,2.2-0.5,2.2-1.8c0-1.3-1.3-1.8-2.6-1.8c-2.5,0-2.9,1.2-3,2h-7.4
				c0.2-5.6,5.8-6.5,10.7-6.5c10,0,9.9,3.9,9.9,7.8V29.9z M311.4,25.4c-1,0.5-2,0.7-3.1,1c-1.8,0.4-2.7,0.8-2.7,2.1
				c0,0.9,1,1.8,2.5,1.8c1.8,0,3.2-1,3.3-3.1V25.4z"/>
			<path class="st0" d="M321.3,14.5h7.7V17h0.1c1.5-2,3.6-3,6.8-3c3.7,0,7.2,2.2,7.2,6.7v13.6h-8V23.9c0-2.3-0.3-3.9-2.6-3.9
				c-1.4,0-3.2,0.7-3.2,3.8v10.5h-8V14.5z"/>
		</g>
	</g>
</g>
<g id="Raster_vorne">
</g>
</svg>
