<svg height="60.861" viewBox="0 0 44.895 60.861" width="44.895" xmlns="http://www.w3.org/2000/svg" xmlns:xlink="http://www.w3.org/1999/xlink"><clipPath id="a"><path d="m0 0h44.895v60.861h-44.895z"/></clipPath><g clip-path="url(#a)" fill="#fff"><path d="m40.639 32.845a3.144 3.144 0 0 0 3.141-3.145v-18.956a3.144 3.144 0 0 0 -3.141-3.144h-29.483a3.145 3.145 0 0 0 -3.142 3.141v18.959a3.145 3.145 0 0 0 3.142 3.141zm-30.446-3.145v-18.956a.963.963 0 0 1 .962-.962h29.484a.963.963 0 0 1 .962.962v18.956a.963.963 0 0 1 -.962.962h-29.483a.963.963 0 0 1 -.962-.962" transform="translate(-3.648 -3.461)"/><path d="m14.789 71.755a4.336 4.336 0 1 0 -4.336-4.336 4.341 4.341 0 0 0 4.336 4.336m0-6.493a2.157 2.157 0 1 1 -2.157 2.157 2.159 2.159 0 0 1 2.157-2.157" transform="translate(-4.758 -28.712)"/><path d="m60.227 63.082a4.336 4.336 0 1 0 4.336 4.336 4.341 4.341 0 0 0 -4.336-4.336m0 6.493a2.157 2.157 0 1 1 2.157-2.157 2.159 2.159 0 0 1 -2.157 2.157" transform="translate(-25.439 -28.712)"/><path d="m44.738 59.208-5.961-9.884a7.262 7.262 0 0 0 5.274-6.963v-35.461a6.909 6.909 0 0 0 -6.9-6.9h-30.251a6.909 6.909 0 0 0 -6.9 6.9v35.784a6.849 6.849 0 0 0 6.022 6.8l-5.865 9.724a1.09 1.09 0 1 0 1.866 1.125l2.683-4.449h35.483l2.683 4.449a1.09 1.09 0 1 0 1.866-1.125m-42.559-16.524v-35.784a4.726 4.726 0 0 1 4.721-4.721h30.249a4.726 4.726 0 0 1 4.722 4.721v35.461a4.947 4.947 0 0 1 -4.665 5h-30.255a4.683 4.683 0 0 1 -3.392-1.361 4.628 4.628 0 0 1 -1.38-3.315m3.841 11.015 2.51-4.162h27.834l2.51 4.162z"/></g></svg>