<svg xmlns="http://www.w3.org/2000/svg" xml:space="preserve" style="enable-background:new 0 0 171.6 33.8" viewBox="0 0 171.6 33.8"><style>.st4{display:inline;fill:#f59fb5}.st9{fill:#c12832}</style><g id="Layer_2"><path d="M46 6.8h-5.4v20.1h13.8v-4.6H46zM70 16.8v-.2c2.7-.4 3.2-2.1 3.2-4.6 0-4.4-2.4-5.1-6.4-5.1H56.3V27H67c4.3 0 6.6-.7 6.6-5.6-.1-2.6-.6-4.4-3.6-4.6zm-8.4-5.7h4.5c1.5.1 1.7.6 1.7 1.8 0 1.6-.5 2-2.3 2h-3.9v-3.8zm4.1 11.2h-4.1v-3.9h4.2c1.7 0 2.4.2 2.4 1.9-.1 1.6-.8 2-2.5 2z" class="st9"/><path d="M75.5 26.9h5.4v-7.5h8.2v-4.3h-8.2v-4h8.9V6.8H75.5zM98.6 10.2c-6.9 0-8.3 1.7-8.3 8.5 0 6.6 1.5 8.5 8.3 8.5 6.9 0 8.3-1.6 8.3-8.5 0-7-1.4-8.5-8.3-8.5zm.1 13.5c-2.6 0-2.9-.8-2.9-5 0-4.1.3-5 2.9-5h.1c2.5 0 2.8.8 2.8 5-.1 4.2-.4 5-2.9 5zM148.2 10.2c-6.7 0-8.1 2.1-8.1 8.5 0 6.2 1.6 8.5 8.1 8.5 2.4 0 4.4-.2 5.8-1 1.4-.8 2.2-2.2 2.2-4.7h-5.3c0 1.7-1.1 2.2-2.7 2.2-2.2 0-2.7-1.1-2.7-4h10.8v-.9c0-6.9-1.9-8.6-8.1-8.6zm0 6.4h-2.7c.1-2.2.7-2.6 2.6-2.6h.1c1.8 0 2.7.2 2.7 2.6h-2.7zM171.6 15.1c-.1-2.6-.8-4.9-4.1-4.9-2 0-3.4.7-4.2 2.6h-.1v-1.7h-5.4v15.8h5.4V17c0-1.4.4-2.6 2-2.6.7 0 1.1.3 1.2.8l5.2-.1zM133.5 23.6c-1 0-1.2-.4-1.2-1.4v-7.1h6.5v-4h-6.5V6.9h-5.4v4.2h-2v4h2v7.4c0 4.2 2.9 4.6 6.3 4.6 4.4 0 6.1-1 6.1-5.5v-.2h-4.4c-.1 1-.2 2.2-1.4 2.2zM116.3 16.5c-2.8-.1-2.8-.6-2.8-1.5 0-1 0-1.3 2.8-1.3.9 0 2 0 2.2 1.4h5.1v-.8c0-4.1-4.3-4.1-7.3-4.1-4.6 0-8.1.1-8.1 5.4 0 3.4 1.2 4.9 8.1 4.9 1.9 0 2.8 0 2.8 1.6 0 1.3-.4 1.5-2.8 1.5-1.3 0-2.7 0-2.7-1.9v-.4h-5.4v.7c.2 5.1 3.9 5 8.1 5 4.4 0 8.1-.7 8.1-5.6 0-4.5-2.5-4.8-8.1-4.9zM169.4 22.5c-1.2 0-2.2 1-2.2 2.2 0 1.2 1 2.2 2.2 2.2 1.2 0 2.2-1 2.2-2.2 0-1.2-1-2.2-2.2-2.2zm0 4.1c-1 0-1.9-.8-1.9-1.9 0-1 .8-1.9 1.9-1.9 1 0 1.9.8 1.9 1.9 0 1-.9 1.9-1.9 1.9z"/><path d="M170.5 24.1c0-.5-.4-.7-.9-.7h-1.1V26h.3v-1.1h.5l.7 1.1h.4l-.7-1.1c.5-.1.8-.3.8-.8zm-.9.5h-.7v-.8h.7c.3 0 .6 0 .6.4 0 .2-.1.4-.6.4z"/><path d="M2.1 8.8c1.6-2.9 4-5.3 7.1-6.9C11.6.6 14.2 0 16.9 0c.7 0 1.5 0 2.2.1.4.4 2 2.4 3.2 5.3 1.6 3.7 2 7.2 1.1 10.5-.4-.8-.8-1.6-1.3-2.3-.9-1.2-1.9-2.3-3.1-3.2C12.7 5.6 4.6 7.9 2.1 8.8z" style="fill:#d3d9d9"/><path d="M4.6 28.5c-1.1-1.1-2-2.4-2.8-3.9-2.5-4.9-2.4-10.4-.2-15 .5-.2 2.9-1.1 6-1.5 4-.4 7.5.3 10.3 2.2-.9.1-1.7.3-2.6.5-1.5.4-2.8 1.1-4 1.9-6.5 4.7-6.8 13.1-6.7 15.8z" style="fill:#9facab"/><path d="M24.1 32.1c-2.3 1.1-4.8 1.6-7.2 1.6-4.3 0-8.5-1.6-11.6-4.6 0-.6-.2-3.1.5-6.2.8-4 2.6-7 5.3-9.1-.2.9-.3 1.7-.3 2.6 0 1.5.2 3 .6 4.4 2.3 7.7 10.2 10.6 12.7 11.3z"/><path d="M31.9 9.2c.8 1.5 1.3 3 1.6 4.6-.3.5-1.7 2.6-4 4.7-3 2.7-6.3 4.1-9.6 4.3.6-.6 1.2-1.3 1.7-1.9.9-1.2 1.6-2.5 2.1-3.9C26.3 9.4 21.6 2.4 20 .3c.7.1 1.4.3 2.1.5 4.2 1.4 7.7 4.4 9.8 8.4z" class="st9"/><path d="M33.6 14.7c.3 2.4.1 4.9-.7 7.4-1.3 4.2-4.2 7.6-8 9.7-.6-.1-3-.8-5.7-2.3-3.5-2-5.9-4.7-7-7.9.8.4 1.6.8 2.4 1.1 1.4.5 2.9.8 4.4.8h.3c7.8-.1 12.8-6.6 14.3-8.8z" style="fill:#cd535b"/></g></svg>