<?xml version="1.0" encoding="UTF-8" standalone="no"?>
<svg
   xmlns:dc="http://purl.org/dc/elements/1.1/"
   xmlns:cc="http://creativecommons.org/ns#"
   xmlns:rdf="http://www.w3.org/1999/02/22-rdf-syntax-ns#"
   xmlns:svg="http://www.w3.org/2000/svg"
   xmlns="http://www.w3.org/2000/svg"
   viewBox="0 0 368.14999 242.2625"
   height="242.2625"
   width="368.14999"
   xml:space="preserve"
   version="1.1"
   id="svg2"><metadata
     id="metadata8"><rdf:RDF><cc:Work
         rdf:about=""><dc:format>image/svg+xml</dc:format><dc:type
           rdf:resource="http://purl.org/dc/dcmitype/StillImage" /></cc:Work></rdf:RDF></metadata><defs
     id="defs6" /><g
     transform="matrix(1.25,0,0,-1.25,0,242.2625)"
     id="g10"><g
       transform="scale(0.1,0.1)"
       id="g12"><path
         id="path14"
         style="fill:#231f20;fill-opacity:1;fill-rule:nonzero;stroke:none"
         d="m 2870.89,455.191 6.93,0 c 8.08,0 14.62,2.7 14.62,9.239 0,5.781 -4.24,9.629 -13.47,9.629 -3.84,0 -6.54,-0.387 -8.08,-0.778 l 0,-18.09 z m -0.38,-35.41 -14.63,0 0,63.129 c 5.77,0.762 13.86,1.93 24.25,1.93 11.93,0 17.32,-1.93 21.55,-5.02 3.86,-2.691 6.54,-7.3 6.54,-13.449 0,-7.723 -5.77,-12.723 -13.08,-15.019 l 0,-0.782 c 6.16,-1.922 9.24,-6.922 11.16,-15.398 1.92,-9.621 3.47,-13.082 4.62,-15.391 l -15.39,0 c -1.94,2.309 -3.09,7.699 -5.01,15.391 -1.15,6.547 -5,9.629 -13.09,9.629 l -6.92,0 0,-25.02 z m -38.89,32.719 c 0,-28.109 21.17,-50.43 49.28,-50.43 27.32,-0.39 48.11,22.321 48.11,50.039 0,28.102 -20.79,50.821 -48.88,50.821 -27.34,0 -48.51,-22.719 -48.51,-50.43 z m 113.56,0 c 0,-35.41 -28.48,-63.52 -64.67,-63.52 -36.18,0 -65.05,28.11 -65.05,63.52 0,35.41 28.87,63.121 65.44,63.121 35.8,0 64.28,-27.711 64.28,-63.121" /><path
         id="path16"
         style="fill:#231f20;fill-opacity:1;fill-rule:nonzero;stroke:none"
         d="m 137.48,111.559 c 30.774,-17.727 76.993,-33.0707 125.458,-33.0707 60.773,0 94.691,28.4607 94.691,70.8317 0,39.25 -26.191,62.36 -92.387,86.129 -85.418,30.821 -140.125,76.27 -140.125,150.883 0,84.738 70.86,149.367 183.262,149.367 56.172,0 97.734,-12.32 124.687,-26.187 L 409.941,433.32 c -18.457,10 -54.687,24.649 -103.171,24.649 -60.04,0 -86.133,-32.348 -86.133,-62.367 0,-40.032 29.961,-58.473 99.265,-85.454 C 409.941,276.27 453.855,230.898 453.855,156.25 453.855,73.082 390.664,0 256.758,0 202.109,0 145.145,16.1719 116.68,33.0508 l 20.8,78.5082" /><path
         id="path18"
         style="fill:#fcd006;fill-opacity:1;fill-rule:nonzero;stroke:none"
         d="M 2026.42,1938.07 C 1584.53,1282.7 863.164,886.352 104.844,701.582 852.871,930.539 1454.7,1355.41 1847.98,1938.07 l 178.44,0" /><path
         id="path20"
         style="fill:#fcd006;fill-opacity:1;fill-rule:nonzero;stroke:none"
         d="M 2348.07,1938.07 C 1876.62,1239.07 1092.66,861.961 434.297,701.582 1113.43,914.359 1801.47,1359.27 2169.57,1938.07 l 178.5,0" /><path
         id="path22"
         style="fill:#fcd006;fill-opacity:1;fill-rule:nonzero;stroke:none"
         d="M 2669.43,1938.07 C 2207.88,1253.23 1521.28,889.941 747.781,701.582 1488.14,933.73 2067.03,1310.25 2490.83,1938.07 l 178.6,0" /><path
         id="path24"
         style="fill:#fcd006;fill-opacity:1;fill-rule:nonzero;stroke:none"
         d="M 2796.47,1923.29 C 2373.97,1304.48 1803.42,932 1068.95,701.582 1760.62,870.211 2393.77,1186.64 2849.99,1739.76 l -0.07,79.62 c 0,44.78 -16.81,83.42 -53.45,103.91" /><path
         id="path26"
         style="fill:#fcd006;fill-opacity:1;fill-rule:nonzero;stroke:none"
         d="M 2849.99,1566.28 C 2476.58,1167.76 1949.41,877.922 1438.39,709.57 l 1292.94,0.211 c 65.3,0 118.59,53.188 118.59,118.36 l 0.07,738.139" /><path
         id="path28"
         style="fill:#fcd006;fill-opacity:1;fill-rule:nonzero;stroke:none"
         d="m 1708.19,1938.07 -1589.545,0 C 52.918,1938.07 0,1884.91 0,1819.38 L 0,828.102 C 0,805.922 6.38672,784.898 17.1992,767.262 722.949,978.43 1288.18,1352.04 1708.19,1938.07" /><path
         id="path30"
         style="fill:#231f20;fill-opacity:1;fill-rule:nonzero;stroke:none"
         d="m 567.82,520.289 c 33.879,6.172 80.879,10.801 144.778,10.801 69.277,0 120.039,-14.649 153.183,-42.379 30.723,-25.352 50.774,-66.152 50.774,-114.672 0,-49.258 -15.41,-90.059 -44.68,-117.789 -37.715,-37.68 -96.926,-55.41 -163.945,-55.41 -17.727,0 -33.848,0.859 -46.172,3.082 l 0,-195.52356 -93.938,0 0,511.89056 z m 93.938,-241.68 c 11.472,-3.121 26.875,-3.847 46.172,-3.847 70.82,0 113.906,34.668 113.906,95.449 0,57.738 -39.961,88.559 -105.418,88.559 -26.215,0 -44.68,-2.379 -54.66,-4.649 l 0,-175.512" /><path
         id="path32"
         style="fill:#231f20;fill-opacity:1;fill-rule:nonzero;stroke:none"
         d="m 1297.9,238.59 -195.58,0 0,-152.3986 218.65,0 0,-77.74999 -313.28,0 0,518.82059 301.8,0 0,-77.731 -207.17,0 0,-134.019 195.58,0 0,-76.922" /><path
         id="path34"
         style="fill:#231f20;fill-opacity:1;fill-rule:nonzero;stroke:none"
         d="m 1444.09,520.289 c 35.42,6.172 88.47,10.801 143.17,10.801 74.65,0 125.41,-12.34 160.07,-41.559 28.52,-23.851 44.7,-60.062 44.7,-103.91 0,-66.949 -45.46,-112.441 -93.96,-130.109 l 0,-2.293 c 36.97,-13.899 59.29,-50.059 72.4,-100.059 16.14,-64.6991 30,-124.7186 40.78,-144.76156 l -97.73,0 c -7.76,15.45316 -19.98,57.77346 -34.69,122.44156 -14.63,67.711 -39.22,89.262 -93.12,90.82 l -47.76,0 0,-213.26156 -93.86,0 0,511.89056 z m 93.86,-229.348 56.23,0 c 63.89,0 103.89,33.84 103.89,85.43 0,56.949 -40,83.098 -101.61,83.098 -30.01,0 -49.23,-2.321 -58.51,-4.59 l 0,-163.938" /><path
         id="path36"
         style="fill:#231f20;fill-opacity:1;fill-rule:nonzero;stroke:none"
         d="m 1918.17,516.5 c 35.39,6.148 88.53,10.801 143.21,10.801 74.6,0 125.42,-12.281 160.1,-41.602 28.49,-23.808 44.65,-59.98 44.65,-103.867 0,-66.992 -45.41,-112.402 -93.92,-130.051 l 0,-2.39 c 36.97,-13.809 59.27,-50.039 72.33,-100.071 16.21,-64.6091 30.05,-124.6716 40.81,-144.67156 l -97.76,0 c -7.69,15.41016 -20.03,57.71096 -34.63,122.33956 -14.63,67.774 -39.25,89.364 -93.15,90.821 l -47.68,0 0,-213.16056 -93.96,0 0,511.85156 z m 93.96,-229.352 56.14,0 c 63.86,0 103.94,33.84 103.94,85.454 0,56.91 -40.08,83.117 -101.6,83.117 -30.06,0 -49.24,-2.36 -58.48,-4.649 l 0,-163.922" /><path
         id="path38"
         style="fill:#231f20;fill-opacity:1;fill-rule:nonzero;stroke:none"
         d="m 2509.91,12.2305 0,216.3395 -163.95,302.461 107.77,0 62.36,-133.199 c 17.72,-38.422 30.75,-67.711 44.6,-103.121 l 1.56,0 c 13.1,33.121 27.7,65.461 45.41,103.121 l 62.34,133.199 107.03,0 -172.5,-300.23 0,-218.5705 -94.62,0" /></g></g></svg>