<svg id="Ebene_1" data-name="Ebene 1" xmlns="http://www.w3.org/2000/svg" viewBox="0 0 478.1 172.52"><defs><style>.cls-1{fill:#ff6300;}.cls-2{fill:#dc002e;}.cls-3{fill:#a0a0a0;}</style></defs><title>Logo_Rhomberg_Sersa_RGB</title><path d="M374.7,399.56h7.11v4.74a13.09,13.09,0,0,1-7.53,2.25c-6.2,0-9.6-4.49-9.6-12.64s3.52-13.06,9.42-13.06c4.25,0,6.56,2.12,7.17,6.62h9.54c-.18-3.83-.49-5.23-1.89-7.66-2.43-4.49-8.14-7.29-15-7.29-12.39,0-20.41,8.39-20.41,21.33s8,21,20.47,21A26.15,26.15,0,0,0,386,412a30.35,30.35,0,0,0,5.35-3.46V392.09H374.7Zm-47.22-18h3.28c5.84,0,7.6,1.09,7.6,4.68s-2.13,4.92-8,4.92h-2.92ZM316.78,414h10.7V399.26h3.77L339.33,414h12.4l-10-16.47c5-2.13,7.54-5.71,7.54-11a12,12,0,0,0-3.41-8.75c-3.34-3.28-7.29-4.32-16.83-4.32H316.78Zm-25.21-32.21h18.59v-8.33H280.87V414h30v-8.33H291.57v-8.45h16.95v-8.32H291.57Zm-39.69,15h3.28c6.32,0,8.09,1,8.09,4.68s-1.7,4.62-7.66,4.62h-3.71Zm0-15.44h3c5,0,6.44.85,6.44,3.89s-1.7,4-6.38,4h-3ZM241.37,414h12.09a58.31,58.31,0,0,0,9.91-.55c6.56-1,10.82-5.47,10.82-11.43,0-5.16-2.86-8.44-8.39-9.84,4.07-1.34,6-4,6-8.2a9.56,9.56,0,0,0-4.2-8.09c-2.85-1.82-6.2-2.43-13.61-2.43H241.37Zm-55,0h9.73V387.05L204.3,414H214l8.33-26.92V414H232V373.43h-14.4l-8.27,28.26-8.44-28.26H186.37Zm-26-33.12c5.83,0,9.36,4.8,9.36,12.88s-3.53,12.82-9.36,12.82-9.36-4.8-9.36-12.82,3.46-12.88,9.36-12.88m0,34c12.33,0,20.48-8.45,20.48-21.15s-8.15-21.21-20.48-21.21-20.54,8.45-20.54,21.21,8.2,21.15,20.54,21.15M109.2,373.43H98.51V414H109.2V397h14.4v17h10.76V373.43H123.6v15.44H109.2Zm-39.62,8.15h3.28c5.84,0,7.6,1.09,7.6,4.68s-2.13,4.92-8,4.92H69.58ZM58.88,414h10.7V399.26h3.77L81.43,414h12.4l-10-16.47c5-2.13,7.54-5.71,7.54-11A12,12,0,0,0,88,377.75c-3.34-3.28-7.29-4.32-16.83-4.32H58.88Z" transform="translate(-58.88 -336.41)"/><polygon class="cls-1" points="356.7 55.82 313.76 172.52 334.29 172.52 377.24 55.82 356.7 55.82"/><polygon class="cls-2" points="406.58 0 365.98 109.84 386.52 109.84 427.12 0 406.58 0"/><path class="cls-3" d="M528.42,456.92h1.15c3,0,4,.59,4,2.47,0,1.7-1,2.4-3.31,2.4h-1.86Zm-3.13,13.64h3.18v-6.1h.95a16.05,16.05,0,0,0,4.17-.34,4.71,4.71,0,0,0,3.4-4.66,5.62,5.62,0,0,0-1.59-3.74,5.41,5.41,0,0,0-3.31-1.37c-.85-.07-1.54-.12-3-.12h-3.82Zm-16.7-6.9c0,2.37.12,3.15.64,4.18.95,1.94,3.08,3,5.82,3s4.9-1.1,5.83-3c.52-1,.64-1.81.64-4.18v-9.43h-3.14v9.38a14.37,14.37,0,0,1-.07,1.76,2.9,2.9,0,0,1-3.26,2.79,3.1,3.1,0,0,1-2.76-1.27c-.47-.69-.54-1.28-.54-3.28v-9.38h-3.16Zm-10-7.05c2.54,0,4.09,2.18,4.09,5.8s-1.55,5.78-4.09,5.78-4.12-2.18-4.12-5.78,1.55-5.8,4.12-5.8m0,14.27c4.43,0,7.34-3.36,7.37-8.47s-2.94-8.47-7.37-8.47-7.4,3.35-7.4,8.47,2.94,8.47,7.4,8.47m-17.5-14h.9c2.13,0,2.57.05,3.23.42a2.12,2.12,0,0,1,1.06,1.91c0,1.81-1,2.4-4,2.4h-1.15Zm-3.14,13.64h3.14v-6.22h2.25l3.35,6.22h3.65l-3.77-6.78a4.63,4.63,0,0,0,2.89-4.53,4.71,4.71,0,0,0-2.33-4.24c-1.1-.61-2.22-.78-5.11-.78h-4.07Zm-9.13-6.1h3.28v2.65a6.37,6.37,0,0,1-3.4,1.05c-2.72,0-4.26-2.08-4.26-5.73s1.52-5.8,4.09-5.8a3,3,0,0,1,3.23,2.86h2.69c-.19-3.5-2.42-5.58-6-5.58-4.4,0-7.29,3.38-7.29,8.55s2.91,8.42,7.54,8.42a10,10,0,0,0,6-2v-6.78h-5.88Z" transform="translate(-58.88 -336.41)"/><path class="cls-3" d="M505.3,446.33h10.28v-2.67H508.5V430h-3.2ZM501.38,430h-3.13v16.33h3.13Zm-14.57,10.26,2.08-6.66,2.11,6.66Zm-5,6.07H485l1-3.4h5.75l1,3.4H496L490.49,430H487.3ZM471.5,432.7h.91c2.13,0,2.57.05,3.23.41a2.13,2.13,0,0,1,1.05,1.91c0,1.81-1,2.4-4,2.4H471.5Zm-3.13,13.63h3.13v-6.21h2.26l3.35,6.21h3.65L477,439.55a4.62,4.62,0,0,0,2.89-4.53,4.69,4.69,0,0,0-2.33-4.23c-1.1-.62-2.23-.79-5.12-.79h-4.06Z" transform="translate(-58.88 -336.41)"/><path d="M348.57,454.58l3.89-13.73,3.83,13.73Zm-16.41,16.1h11.12l2.68-8h13l2.62,8h11.18l-15.2-40.53H347.29Zm-1.71-28.31c0-3.29-.18-4.44-1.15-6.51-1.89-4.25-6.93-6.62-14.22-6.62-9.61,0-15.8,4.8-15.8,12.34,0,5.53,3.16,8.81,11.91,12.64l4.37,1.88c3.53,1.52,4.44,2.37,4.44,4.07,0,2.07-2,3.34-5.47,3.34-4.68,0-6.81-2-7.23-6.74h-9.91v.73c0,9.17,6,14.1,17,14.1,10.21,0,16.59-4.81,16.59-12.58a10.55,10.55,0,0,0-4-8.57c-2-1.7-3.41-2.43-9.12-4.86-2.25-.92-3.52-1.46-3.89-1.64-3-1.22-3.89-1.95-3.89-3.47,0-1.94,1.83-3.1,4.93-3.1,3.88,0,5.52,1.52,5.59,5.29h9.9Zm-59.13-4.08h3.28c5.84,0,7.6,1.1,7.6,4.68s-2.13,4.93-8,4.93h-2.92Zm-10.69,32.39h10.69V456h3.77l8.08,14.7h12.4l-10-16.46c5-2.13,7.54-5.72,7.54-11a12,12,0,0,0-3.4-8.76c-3.35-3.28-7.3-4.31-16.84-4.31H260.63Zm-25.22-32.2H254v-8.33H224.71v40.53h30v-8.32H235.41v-8.45h17v-8.32h-17Zm-17.5,3.89c0-3.29-.19-4.44-1.16-6.51-1.88-4.25-6.93-6.62-14.22-6.62-9.6,0-15.8,4.8-15.8,12.34,0,5.53,3.16,8.81,11.91,12.64L203,456.1c3.52,1.52,4.43,2.37,4.43,4.07,0,2.07-2,3.34-5.47,3.34-4.67,0-6.8-2-7.23-6.74h-9.9v.73c0,9.17,6,14.1,17,14.1,10.21,0,16.59-4.81,16.59-12.58a10.52,10.52,0,0,0-4-8.57c-2-1.7-3.4-2.43-9.11-4.86-2.25-.92-3.53-1.46-3.89-1.64-3-1.22-3.89-1.95-3.89-3.47,0-1.94,1.82-3.1,4.92-3.1,3.89,0,5.53,1.52,5.59,5.29h9.91Z" transform="translate(-58.88 -336.41)"/></svg>