<?xml version="1.0" encoding="UTF-8"?><svg id="a" xmlns="http://www.w3.org/2000/svg" viewBox="0 0 1905 647.18"><polygon points="707.09 191.51 791.08 191.51 779.42 340.48 780.08 340.48 833.74 191.51 930.82 191.51 921.12 340.48 921.77 340.48 973.49 191.51 1057.42 191.51 955.87 428.37 854.23 428.37 864.89 274.84 864.21 274.84 809.63 428.37 707.88 428.37 707.09 191.51" style="fill:#fff;"/><path d="m1099.87,370.33c-2.89,13.46-9.01,22.3-22.82,22.3-12.14,0-16.95-6.57-14.77-17.05,1.97-9.2,8.67-19.05,29.66-19.05h10.85l-2.92,13.81Zm9.48-44.61h-9.51c-61.68,0-98.06,16.73-106.71,57.41-6.86,32.46,12.95,50.17,46.42,50.17,18.04,0,36.6-5.59,51.3-20.7l-1.37,15.77h69.57l23.61-111.18c8.15-38.43-7.94-58.43-71.21-58.43-41.69,0-84.41,9.52-96.44,53.79h65.61c3.93-13.76,9.87-17.04,19.7-17.04,11.15,0,14.35,4.89,12.65,13.12l-3.62,17.08Z" style="fill:#fff;"/><path d="m1271.99,346.02c3.1-14.41,3.99-18.68,6.74-25.56,4.01-9.53,11.43-15.12,20.29-15.12,16.38,0,15.65,14.4,10.05,40.68-4.74,22.34-10.64,40.69-27.7,40.69-8.83,0-11.59-3.95-12.85-8.87-1.27-4.89-.13-14.79,3.47-31.81m-96.89,82.36h74.79l5.33-19.03c9.84,18.7,28.04,23.95,46.15,23.95,39.99,0,75.07-30.85,87.51-89.24,13.27-62.33-13.7-85.28-49.45-85.28-18.4,0-36.9,5.24-53.14,20l18.57-87.25h-79.41l-50.35,236.86Z" style="fill:#fff;"/><path d="m1415.64,312.23h-21.33l10.32-48.54h21.33l5.61-26.56,85.3-27.57-11.5,54.13h35.73l-10.31,48.54h-35.74l-10.8,50.52c-2.62,12.48.42,16.75,9.93,16.75,5.58,0,12.15,0,19.78-1.98l-10.34,48.57c-18.84,3.91-38.62,7.2-54.34,7.2-30.87,0-57.38-9.47-49.56-46.27l15.92-74.79Z" style="fill:#fff;"/><path d="m1602.71,325.71l.48-2.28c3.37-15.75,13.63-23.99,26.38-23.99s18.98,8.23,15.58,23.99l-.48,2.28h-41.96Zm31.37,49.86c-4.76,11.78-14.45,17.05-23.28,17.05-15.74,0-20.55-8.19-16.55-27.25l1.08-4.89h113.49l2.4-11.17c12.46-58.71-10.61-90.56-72.95-90.56-59.06,0-103.69,29.54-115.79,86.29-14.12,66.56,24.57,88.23,72.79,88.23,61.64,0,94.53-20.32,108.38-57.72h-69.58Z" style="fill:#fff;"/><path d="m1830.18,331.24c3.76-20.66,3.48-31.79-10.3-31.79s-21.17,6.9-30.08,48.89c-8.14,38.36-2.88,44.29,9.29,44.29,12.79,0,18.42-9.5,24.6-30.83h73.49c-10.76,45.93-44.75,71.49-110.03,71.49-51.48,0-90.19-21.67-76-88.23,12.01-56.76,56.69-86.29,115.08-86.29,63.95,0,84.59,27.89,77.41,72.48h-73.46Z" style="fill:#fff;"/><path d="m745.88,528.12c1.07-7.1-5.55-11.78-13.17-11.78-18.29,0-25.22,16.71-28.02,29.75-3.24,15.29-1.72,29.8,14.39,29.8,7.97,0,16-3.91,18.87-11.84h10.79c-3.66,12.46-17.95,20.62-32.43,20.62-21.9,0-26.8-17.85-22.39-38.58,3.9-18.18,16.37-39.35,41.09-38.59,14.19.4,23.35,7.37,21.68,20.62h-10.82Z" style="fill:#fff;"/><path d="m799.17,546.1c3.4-15.85,10.66-29.76,29.46-29.76s20.13,13.92,16.76,29.76c-3.28,15.37-10.64,29.8-29.43,29.8s-20.03-14.43-16.79-29.8m-10.77,0c-4.61,21.63,2.59,38.58,25.66,38.58s37.55-16.95,42.09-38.58c4.65-21.67-2.58-38.6-25.66-38.6s-37.47,16.93-42.09,38.6" style="fill:#fff;"/><path d="m912.78,517.87h16.93c11.29.5,12.76,5.65,11.55,11.48-1.27,5.85-4.91,11-16.41,11.52h-16.95l4.88-23Zm7.83,31.8c4.02.29,8.18,0,10.48,3.41,2.58,3.73,1.28,9.71.69,16.41-.39,4.43-.18,9.26-.18,13.66h10.95c-1.18-7-.31-14.87.12-22.28.61-8.31.39-13.07-8.09-15.2l.04-.23c9.07-2.02,15.86-8.88,17.8-17.83,3.1-14.69-8.88-18.58-21.33-18.58h-26.46l-15.8,74.11h10.3l7.13-33.49h14.35Z" style="fill:#fff;"/><path d="m1002.28,541.72l5.09-23.86h16.13c1.21,0,13.46-.63,10.77,11.92-2.65,12.5-14.6,11.94-15.83,11.94h-16.16Zm-19.11,41.44h10.3l6.94-32.62h13.94c13.76-.36,27.46-5.29,30.7-20.76,3.46-16.21-7.32-21.37-21.26-20.74h-24.83l-15.8,74.11Z" style="fill:#fff;"/><path d="m1087.31,546.1c3.34-15.85,10.63-29.76,29.4-29.76s20.16,13.92,16.81,29.76c-3.32,15.37-10.68,29.8-29.47,29.8s-20.03-14.43-16.74-29.8m-10.78,0c-4.6,21.63,2.55,38.58,25.64,38.58s37.48-16.95,42.11-38.58c4.6-21.67-2.6-38.6-25.67-38.6s-37.48,16.93-42.08,38.6" style="fill:#fff;"/><path d="m1200.86,517.87h17.01c11.28.5,12.73,5.65,11.5,11.48-1.25,5.85-4.93,11-16.44,11.52h-16.9l4.83-23Zm7.86,31.8c4.05.29,8.2,0,10.48,3.41,2.6,3.73,1.26,9.71.71,16.41-.41,4.43-.23,9.26-.23,13.66h11c-1.2-7-.34-14.87.07-22.28.66-8.31.44-13.07-8.04-15.2l.05-.23c9.03-2.02,15.87-8.88,17.74-17.83,3.1-14.69-8.86-18.58-21.31-18.58h-26.51l-15.71,74.11h10.27l7.09-33.49h14.39Z" style="fill:#fff;"/><path d="m1313.03,519.2l5.85,35.84h-27.62l21.77-35.84Zm-39.25,63.96l12.09-19.27h34.4l3.95,19.27h11.14l-14.21-74.11h-10.96l-46.97,74.11h10.57Z" style="fill:#fff;"/><polygon points="1394.65 517.87 1369.78 517.87 1371.67 509.05 1431.65 509.05 1429.76 517.87 1404.93 517.87 1391.04 583.16 1380.78 583.16 1394.65 517.87" style="fill:#fff;"/><polygon points="1452.04 583.16 1467.76 509.05 1478.08 509.05 1462.29 583.16 1452.04 583.16" style="fill:#fff;"/><path d="m1521.82,546.1c3.35-15.85,10.63-29.76,29.43-29.76s20.09,13.92,16.79,29.76c-3.33,15.37-10.65,29.8-29.48,29.8s-20.03-14.43-16.74-29.8m-10.78,0c-4.63,21.63,2.55,38.58,25.64,38.58s37.51-16.95,42.13-38.58c4.58-21.67-2.6-38.6-25.69-38.6s-37.48,16.93-42.08,38.6" style="fill:#fff;"/><polygon points="1688.09 509.05 1672.35 583.16 1659.64 583.16 1635.53 520.21 1635.36 520.21 1621.91 583.16 1612.82 583.16 1628.6 509.05 1642.64 509.05 1665.75 570.33 1665.92 570.33 1678.99 509.05 1688.09 509.05" style="fill:#fff;"/><path d="m356.31,0l-13.44,63.3c141.77,30.14,232.26,169.47,202.14,311.26-30.17,141.76-169.46,232.25-311.23,202.05C91.99,546.52,1.51,407.18,31.65,265.43l-25.29-5.37c-33.1,155.71,66.27,308.83,222.02,341.93l-8.04,37.97c176.73,37.58,350.41-75.28,387.98-251.95C645.81,211.29,533.04,37.56,356.31,0" style="fill:#fff;"/><path d="m321.37,164.57c85.82,18.24,140.63,102.62,122.38,188.47l37.98,8.07c-22.71,106.76-127.67,174.97-234.46,152.31l-5.44,25.26c120.82,25.69,239.56-51.43,265.25-172.21,25.63-120.79-51.48-239.5-172.29-265.19-120.76-25.66-239.5,51.46-265.17,172.25l63.26,13.43c18.27-85.84,102.63-140.63,188.49-122.38" style="fill:#fff;"/><path d="m339.39,399.13l14.37,21.55c25.72-16.71,45.08-43.3,52.03-75.74,13.78-64.88-27.64-128.61-92.52-142.38-64.88-13.83-128.65,27.63-142.43,92.5-13.75,64.82,27.66,128.57,92.52,142.37l5.4-25.32,8.06-37.94c-29.91-6.39-49.04-35.78-42.67-65.72,6.39-29.88,35.74-48.96,65.68-42.62l8.09-37.96c50.87,10.8,83.35,60.81,72.51,111.68-5.4,25.55-20.71,46.43-41.05,59.58" style="fill:#fff;"/></svg>