<svg xmlns="http://www.w3.org/2000/svg" width="158.015" height="98" viewBox="0 0 158.015 98">
  <g id="Trains_logo" data-name="Trains logo" transform="translate(-1623 -64)">
    <text id="Presenting_Sponsor_" data-name="Presenting Sponsor " transform="translate(1623 140)" fill="#505050" font-size="14" font-family="SegoeUI, Segoe UI"><tspan x="0" y="0">Presenting Sponsor </tspan><tspan font-family="Ronnia-Regular, Ronnia"><tspan x="0" y="18"></tspan></tspan></text>
    <g id="Trains_logo-2" data-name="Trains logo" transform="translate(1623.309 64)">
      <g id="Group_8" data-name="Group 8" transform="translate(0.569)">
        <g id="Group_5" data-name="Group 5">
          <rect id="Rectangle_19" data-name="Rectangle 19" width="157.137" height="55" fill="#e50019"/>
          <path id="Path_8" data-name="Path 8" d="M97.515,54.942c-1.25-1.545-2.712-2.719-4.821-2.717-2.651,0-4.392,1.306-4.743,5.268L86.4,75.226l-10.851.013,2.874-32.553,10.835.011-.208,2.353a10.134,10.134,0,0,1,7.016-3.043,8.487,8.487,0,0,1,5,1.355Z" transform="translate(-47.083 -25.863)" fill="#fff"/>
          <path id="Path_9" data-name="Path 9" d="M151.843,61.937a9.947,9.947,0,0,0-4.557-.922,3.4,3.4,0,0,0-3.681,3.471c-.18,2.043.713,3.527,3.063,3.524a8.285,8.285,0,0,0,4.781-1.615ZM150.65,75.267l.216-2.249a13.962,13.962,0,0,1-7.964,2.859c-6.146.008-9.9-3.886-9.253-11.19.617-6.995,5.634-10.592,12.322-10.6a13.926,13.926,0,0,1,6.447,1.352l.142-1.61c.252-2.847-1.168-3.836-4.12-3.831a17.46,17.46,0,0,0-9.005,2.364L137.254,45a31.137,31.137,0,0,1,13.878-2.947c8.857-.013,12.315,4.457,11.649,12.01l-1.868,21.192Z" transform="translate(-82.808 -25.89)" fill="#fff"/>
          <path id="Path_10" data-name="Path 10" d="M210.014,76.346,212.887,43.8h10.868l-2.878,32.528Z" transform="translate(-129.869 -26.969)" fill="#fff"/>
          <path id="Path_11" data-name="Path 11" d="M262,75.239l1.651-18.576c.372-4.21-.915-5.322-3.145-5.319-2.29,0-3.774,1.12-4.134,5.205l-1.644,18.69-10.851.013,2.88-32.541h10.845l-.231,2.34a13.115,13.115,0,0,1,8.243-3.022c6.929-.008,9.823,4.653,9.069,13.2l-1.756,20.015Z" transform="translate(-150.721 -25.876)" fill="#fff"/>
          <path id="Path_12" data-name="Path 12" d="M336.04,75.861a34.225,34.225,0,0,1-12.977-2.748l3.274-8.423a28,28,0,0,0,10.655,2.832c2.109,0,2.936-.5,3.024-1.49.092-1.053-.351-1.485-2.351-2.039-9.526-2.648-12.72-4.687-12.124-11.434.59-6.686,5.224-10.518,13.841-10.531a30.217,30.217,0,0,1,11.956,2.2l-3.168,8.608c-3.994-1.852-7.051-2.714-9.822-2.71-2.109,0-2.69.437-2.777,1.427s.241,1.362,2.936,2.225c8.7,2.4,12.127,4.563,11.559,11-.661,7.491-5.959,11.068-14.033,11.08" transform="translate(-199.47 -25.876)" fill="#fff"/>
          <path id="Path_13" data-name="Path 13" d="M218.412,23.072l.763-8.426,10.888,0-.8,8.409Z" transform="translate(-135.04 -9.017)" fill="#fff"/>
        </g>
        <g id="Group_6" data-name="Group 6" transform="translate(147.892 47.185)">
          <path id="Path_14" data-name="Path 14" d="M387.665,125.526a1.376,1.376,0,1,1,1.377-1.376A1.35,1.35,0,0,1,387.665,125.526Zm0-2.508a1.132,1.132,0,1,0,1.132,1.132A1.108,1.108,0,0,0,387.665,123.018Zm.358,1.266.29.591h-.357l-.271-.549h-.259v.549h-.316v-1.5h.7a.458.458,0,0,1,.515.473A.425.425,0,0,1,388.023,124.283Zm-.24-.621h-.358v.385h.358c.138,0,.214-.069.214-.194S387.917,123.662,387.783,123.662Z" transform="translate(-386.289 -122.774)" fill="#fff"/>
        </g>
        <g id="Group_7" data-name="Group 7" transform="translate(100.169 5.484)">
          <path id="Path_15" data-name="Path 15" d="M267.514,21.907V19.212c0-.4.021-1.331.021-1.614-.1.273-.325.8-.514,1.216l-1.488,3.26-1.488-3.26c-.189-.42-.409-.944-.514-1.216,0,.284.022,1.216.022,1.614v2.695h-1.436V14.569h1.415l1.53,3.323c.189.409.409.965.5,1.227.094-.272.3-.807.492-1.227l1.478-3.323h1.447v7.338Z" transform="translate(-262.116 -14.454)" fill="#1a1818"/>
          <path id="Path_16" data-name="Path 16" d="M287.57,21.907l-.577-1.635H284.31l-.577,1.635h-1.572l2.809-7.338H286.4l2.789,7.338Zm-1.551-4.361c-.147-.43-.293-.87-.367-1.143-.073.273-.22.713-.367,1.143l-.471,1.331h1.677Z" transform="translate(-274.457 -14.454)" fill="#1a1818"/>
          <path id="Path_17" data-name="Path 17" d="M304.134,21.838c-1.919,0-3.208-1.467-3.208-3.784,0-2.233,1.342-3.784,3.259-3.784a2.732,2.732,0,0,1,2.778,1.834l-1.394.576a1.426,1.426,0,0,0-1.4-.954c-1.1,0-1.729.964-1.729,2.327s.64,2.348,1.74,2.348c1.006,0,1.352-.472,1.436-1.111h-1.163V17.918h2.631v.965A2.764,2.764,0,0,1,304.134,21.838Z" transform="translate(-286.01 -14.27)" fill="#1a1818"/>
          <path id="Path_18" data-name="Path 18" d="M323.244,21.907l-.577-1.635h-2.683l-.576,1.635h-1.572l2.809-7.338h1.425l2.789,7.338Zm-1.551-4.361c-.148-.43-.293-.87-.367-1.143-.073.273-.22.713-.367,1.143l-.472,1.331h1.677Z" transform="translate(-296.421 -14.454)" fill="#1a1818"/>
          <path id="Path_19" data-name="Path 19" d="M337.69,21.907v-1.3l3.155-3.763c.231-.283.65-.766.839-.954-.294.011-1.059.021-1.488.021h-2.3V14.569h5.525v1.3L340.3,19.632c-.231.283-.65.765-.839.954.294-.01,1.058-.021,1.488-.021h2.526v1.342Z" transform="translate(-308.645 -14.454)" fill="#1a1818"/>
          <path id="Path_20" data-name="Path 20" d="M355.962,21.907V14.569h1.467v7.338Z" transform="translate(-319.895 -14.454)" fill="#1a1818"/>
          <path id="Path_21" data-name="Path 21" d="M368.232,21.907l-2.693-4c-.178-.272-.42-.639-.514-.827,0,.273.021,1.194.021,1.6v3.228H363.6V14.569H365l2.6,3.879c.178.272.419.64.513.828,0-.273-.021-1.195-.021-1.6v-3.1h1.447v7.338Z" transform="translate(-324.597 -14.454)" fill="#1a1818"/>
          <path id="Path_22" data-name="Path 22" d="M382.609,21.907V14.569H387.7v1.437h-3.626v1.268h2.106V18.7h-2.106v1.772h3.784v1.436Z" transform="translate(-336.3 -14.454)" fill="#1a1818"/>
        </g>
      </g>
      <path id="Path_23" data-name="Path 23" d="M13.308,53.947l12.54-.007,3.118-35.285,12.673-.018L42.651,7.4H0V18.69l16.423-.018Z" transform="translate(0 -4.556)" fill="#fff"/>
    </g>
  </g>
</svg>
