<?xml version="1.0" encoding="utf-8"?>
<svg viewBox="456.016 0 994.291 213.957" xmlns="http://www.w3.org/2000/svg">
  <text id="_29th_Annual_Wheel_Rail_Interaction_Conference" data-name="29th Annual Wheel Rail Interaction Conference" transform="matrix(1, 0, 0, 1, 467, 207)" fill="#0d064c" font-size="48" font-family="SegoeUI-Bold, Segoe UI" font-weight="700" style="white-space: pre;"><tspan x="0" y="0">29th Annual Wheel Rail Interaction Conference</tspan></text>
  <g id="WRI_logo" data-name="WRI logo" transform="matrix(1, 0, 0, 1, 483.9179992675781, -200.3459930419922)">
    <path id="Path_1" data-name="Path 1" d="M345.514,262.96l-24.179,74.562H298.753l-14.273-45.375-14.913,45.375H246.986L222.807,262.96h21.73l15.019,47.614L275.32,262.96H294.7L309.723,311l15.659-48.041Z" transform="translate(0 0.228)" fill="#1a1818"/>
    <path id="Path_2" data-name="Path 2" d="M339.06,317.711h-11.5v19.811h-21.09V262.96H340.55c20.344,0,33.127,10.547,33.127,27.589,0,10.97-5.325,19.066-14.594,23.539l16.085,23.433H352.587Zm.213-38.133H327.556v21.836h11.717c8.734,0,13.1-4.047,13.1-10.864C352.374,283.625,348.007,279.578,339.273,279.578Z" transform="translate(46.61 0.228)" fill="#1a1818"/>
    <path id="Path_3" data-name="Path 3" d="M357.084,262.96h21.091v74.562H357.084Z" transform="translate(74.811 0.228)" fill="#1a1818"/>
    <path id="Path_4" data-name="Path 4" d="M438.094,330.933v6.817h-52.3v-5.433l30.995-30.356c8.416-8.309,10.014-13.314,10.014-18.427,0-8.628-6.071-13.953-17.469-13.953-8.736,0-15.445,2.663-20.346,8.307l-5.431-4.685c5.75-6.817,15.019-10.652,26.415-10.652,15.126,0,24.713,7.671,24.713,20.132,0,7.136-2.238,13.527-12.25,23.326l-25.35,24.925Z" transform="translate(89.56 0)" fill="#1a1818"/>
    <path id="Path_5" data-name="Path 5" d="M424.463,300.469c0-23.753,12.463-37.919,29.72-37.919s29.824,14.167,29.824,37.919-12.569,37.921-29.824,37.921S424.463,324.224,424.463,300.469Zm51.661,0c0-19.917-8.947-30.889-21.942-30.889s-21.943,10.972-21.943,30.889,8.947,30.89,21.943,30.89S476.124,320.388,476.124,300.469Z" transform="translate(112.35 0)" fill="#1a1818"/>
    <path id="Path_6" data-name="Path 6" d="M521.821,330.933v6.817h-52.3v-5.433l30.995-30.356c8.415-8.309,10.014-13.314,10.014-18.427,0-8.628-6.073-13.953-17.47-13.953-8.734,0-15.445,2.663-20.346,8.307l-5.431-4.685c5.752-6.817,15.019-10.652,26.415-10.652,15.126,0,24.712,7.671,24.712,20.132,0,7.136-2.236,13.527-12.249,23.326l-25.35,24.925Z" transform="translate(136.207 0)" fill="#1a1818"/>
    <path id="Path_7" data-name="Path 7" d="M570.724,317.924H555.813v19.6h-7.671v-19.6H506.069v-5.539l39.517-49.425h8.522l-38.133,48.147h32.381V293.851h7.457v17.256h14.911Z" transform="translate(157.816 0.228)" fill="#1a1818"/>
  </g>
</svg>