<?xml version="1.0" encoding="UTF-8"?>
<svg xmlns="http://www.w3.org/2000/svg" version="1.1" viewBox="0 0 68.5 68.5">
  <defs>
    <style>
      .cls-1 {
        fill: none;
        stroke: #c20021;
        stroke-miterlimit: 10;
        stroke-width: 2px;
      }

      .cls-2 {
        fill: #c20021;
        stroke-width: 0px;
      }
    </style>
  </defs>
  <g id="Layer_3" data-name="Layer 3">
    <line class="cls-1" x1="0" y1="62.9" x2="68.5" y2="62.9"/>
    <line class="cls-1" x1="-1" y1="67.5" x2="68.5" y2="67.5"/>
  </g>
  <g id="Layer_2" data-name="Layer 2">
    <g>
      <path class="cls-2" d="M34.2,0C16.7,0,2.4,14.3,2.4,31.9s14.3,31.8,31.8,31.8,31.8-14.3,31.8-31.8S51.8,0,34.2,0ZM34.2,61.5c-16.4,0-29.6-13.3-29.6-29.6S17.9,2.2,34.2,2.2s29.6,13.3,29.6,29.6-13.3,29.6-29.6,29.6Z"/>
      <path class="cls-2" d="M34.2,7.2c-13.6,0-24.7,11.1-24.7,24.7s11.1,24.7,24.7,24.7,24.7-11.1,24.7-24.7S47.9,7.2,34.2,7.2ZM40.4,30.6l14.9-6.1c.9,2.4,1.3,4.9,1.3,7.6s-.4,5.2-1.3,7.6l-14.9-6.1c.2-1.1.2-2,0-2.9ZM54.6,22.3l-14.9,6.1c-.5-.8-1.2-1.4-2-2l6.1-14.9c4.7,2.2,8.6,6,10.8,10.8ZM35.8,35.7c-2.1.9-4.5-.1-5.4-2.2-.9-2.1.1-4.5,2.2-5.4.5-.2,1.1-.3,1.5-.3,1.6,0,3.2,1,3.8,2.5,1,2.1,0,4.5-2.2,5.4ZM41.8,10.8l-6.1,14.9c-.9-.2-1.9-.2-2.7,0l-6.1-14.9c2.4-.9,4.9-1.3,7.6-1.3s5,.4,7.5,1.3ZM24.7,11.6l6.1,14.9c-.8.5-1.4,1.2-2,2l-14.9-6.1c2.2-4.7,6-8.6,10.8-10.8ZM13.2,24.3l14.9,6.1c-.2.9-.2,1.9,0,2.7l-14.9,6.1c-.9-2.4-1.3-4.9-1.3-7.6s.4-5,1.3-7.5ZM13.9,41.4l14.9-6.1c.5.8,1.2,1.4,2,2l-6.1,14.9c-4.7-2.2-8.6-6-10.8-10.8ZM26.7,53l6.1-14.9c.4.1.9.2,1.3.2s.9,0,1.3-.1l6.1,14.9c-2.4.9-4.9,1.3-7.6,1.3s-4.9-.5-7.4-1.4ZM43.8,52.2l-6.1-14.9c.8-.5,1.4-1.2,2-2l14.9,6.1c-2.2,4.7-6,8.6-10.8,10.8Z"/>
    </g>
  </g>
</svg>